<?xml version="1.0" encoding="utf-8"?>
<COLLADA version="1.5.0" xmlns="http://www.collada.org/2008/03/COLLADASchema">
	<asset>
		<contributor>
			<authoring_tool>BrawlCrate</authoring_tool>
		</contributor>
		<created>2026-05-29T19:30:51Z</created>
		<modified>2026-05-29T19:30:51Z</modified>
		<unit meter="0.01" name="centimeter" />
		<up_axis>Y_UP</up_axis>
	</asset>
	<library_images>
		<image id="LmChaAdd-image" name="LmChaAdd">
			<init_from>
				<ref>LmChaAdd.png</ref>
			</init_from>
		</image>
		<image id="LmChaSkin-image" name="LmChaSkin">
			<init_from>
				<ref>LmChaSkin.png</ref>
			</init_from>
		</image>
		<image id="SwordMaster-image" name="SwordMaster">
			<init_from>
				<ref>SwordMaster.png</ref>
			</init_from>
		</image>
		<image id="SwordMasterGrip-image" name="SwordMasterGrip">
			<init_from>
				<ref>SwordMasterGrip.png</ref>
			</init_from>
		</image>
		<image id="SwordMasterMask-image" name="SwordMasterMask">
			<init_from>
				<ref>SwordMasterMask.png</ref>
			</init_from>
		</image>
	</library_images>
	<library_materials>
		<material id="m_Edge">
			<instance_effect url="#m_Edge-fx" />
		</material>
		<material id="m_Grip">
			<instance_effect url="#m_Grip-fx" />
		</material>
	</library_materials>
	<library_effects>
		<effect id="m_Edge-fx" name="m_Edge">
			<profile_COMMON>
				<newparam sid="SwordMaster-surface">
					<surface type="2D">
						<init_from>
							<ref>SwordMaster-image</ref>
						</init_from>
					</surface>
				</newparam>
				<newparam sid="SwordMaster-sampler">
					<sampler2D>
						<source>SwordMaster-surface</source>
						<instance_image url="#SwordMaster-image" />
						<wrap_s>CLAMP</wrap_s>
						<wrap_t>CLAMP</wrap_t>
						<minfilter>LINEAR</minfilter>
						<magfilter>LINEAR</magfilter>
					</sampler2D>
				</newparam>
				<newparam sid="SwordMasterMask-surface">
					<surface type="2D">
						<init_from>
							<ref>SwordMasterMask-image</ref>
						</init_from>
					</surface>
				</newparam>
				<newparam sid="SwordMasterMask-sampler">
					<sampler2D>
						<source>SwordMasterMask-surface</source>
						<instance_image url="#SwordMasterMask-image" />
						<wrap_s>CLAMP</wrap_s>
						<wrap_t>CLAMP</wrap_t>
						<minfilter>LINEAR</minfilter>
						<magfilter>LINEAR</magfilter>
					</sampler2D>
				</newparam>
				<newparam sid="LmChaSkin-surface">
					<surface type="2D">
						<init_from>
							<ref>LmChaSkin-image</ref>
						</init_from>
					</surface>
				</newparam>
				<newparam sid="LmChaSkin-sampler">
					<sampler2D>
						<source>LmChaSkin-surface</source>
						<instance_image url="#LmChaSkin-image" />
						<wrap_s>CLAMP</wrap_s>
						<wrap_t>CLAMP</wrap_t>
						<minfilter>LINEAR</minfilter>
						<magfilter>LINEAR</magfilter>
					</sampler2D>
				</newparam>
				<newparam sid="LmChaAdd-surface">
					<surface type="2D">
						<init_from>
							<ref>LmChaAdd-image</ref>
						</init_from>
					</surface>
				</newparam>
				<newparam sid="LmChaAdd-sampler">
					<sampler2D>
						<source>LmChaAdd-surface</source>
						<instance_image url="#LmChaAdd-image" />
						<wrap_s>CLAMP</wrap_s>
						<wrap_t>CLAMP</wrap_t>
						<minfilter>LINEAR</minfilter>
						<magfilter>LINEAR</magfilter>
					</sampler2D>
				</newparam>
				<technique sid="COMMON">
					<phong>
						<diffuse>
							<texture texture="SwordMaster-sampler" texcoord="TEXCOORD0" />
						</diffuse>
					</phong>
				</technique>
			</profile_COMMON>
		</effect>
		<effect id="m_Grip-fx" name="m_Grip">
			<profile_COMMON>
				<newparam sid="SwordMasterGrip-surface">
					<surface type="2D">
						<init_from>
							<ref>SwordMasterGrip-image</ref>
						</init_from>
					</surface>
				</newparam>
				<newparam sid="SwordMasterGrip-sampler">
					<sampler2D>
						<source>SwordMasterGrip-surface</source>
						<instance_image url="#SwordMasterGrip-image" />
						<wrap_s>WRAP</wrap_s>
						<wrap_t>WRAP</wrap_t>
						<minfilter>LINEAR</minfilter>
						<magfilter>LINEAR</magfilter>
					</sampler2D>
				</newparam>
				<newparam sid="LmChaSkin-surface">
					<surface type="2D">
						<init_from>
							<ref>LmChaSkin-image</ref>
						</init_from>
					</surface>
				</newparam>
				<newparam sid="LmChaSkin-sampler">
					<sampler2D>
						<source>LmChaSkin-surface</source>
						<instance_image url="#LmChaSkin-image" />
						<wrap_s>CLAMP</wrap_s>
						<wrap_t>CLAMP</wrap_t>
						<minfilter>LINEAR</minfilter>
						<magfilter>LINEAR</magfilter>
					</sampler2D>
				</newparam>
				<newparam sid="LmChaAdd-surface">
					<surface type="2D">
						<init_from>
							<ref>LmChaAdd-image</ref>
						</init_from>
					</surface>
				</newparam>
				<newparam sid="LmChaAdd-sampler">
					<sampler2D>
						<source>LmChaAdd-surface</source>
						<instance_image url="#LmChaAdd-image" />
						<wrap_s>CLAMP</wrap_s>
						<wrap_t>CLAMP</wrap_t>
						<minfilter>LINEAR</minfilter>
						<magfilter>LINEAR</magfilter>
					</sampler2D>
				</newparam>
				<technique sid="COMMON">
					<phong>
						<diffuse>
							<texture texture="SwordMasterGrip-sampler" texcoord="TEXCOORD0" />
						</diffuse>
					</phong>
				</technique>
			</profile_COMMON>
		</effect>
	</library_effects>
	<library_geometries>
		<geometry id="polygon0" name="polygon0">
			<mesh>
				<source id="polygon0_Positions">
					<float_array id="polygon0_PosArr" count="291">119.5117 0 0 110.9609 0.9804688 0 111.2148 0 -3.074219 106.9727 1.007813 -1.800781 104.3438 0 -4.277344 102.9805 1.035156 -2.59375 30.66016 0 -4.605469 30.66016 1.355469 -2.820313 28.38281 0 -5.546875 27.86719 0.4140625 -5.546875 15.75391 -1.355469 -2.085938 13.875 -1.355469 0 16.83203 -1.355469 -2.070313 23.76172 -1.355469 0 23.73828 -1.355469 -2.121094 30.66016 -1.355469 -2.820313 25.16016 -1.136719 -3.386719 27.86719 -0.4140625 -5.546875 26.28906 -0.4140625 -5.546875 16.83203 1.355469 -2.070313 23.73828 1.355469 -2.121094 23.76172 1.355469 0 30.66016 1.355469 0 102.6172 1.035156 0 16.83203 -1.355469 2.070313 23.73828 -1.355469 2.121094 30.66016 -1.355469 2.820313 30.66016 -1.355469 0 102.9805 -1.035156 2.59375 102.6172 -1.035156 0 106.9727 -1.007813 1.800781 110.9609 -0.9804688 0 111.2148 0 3.074219 104.3438 0 4.277344 30.66016 0 4.605469 27.86719 -0.4140625 5.546875 15.75391 1.355469 2.085938 13.875 1.355469 0 16.83203 1.355469 2.070313 23.73828 1.355469 2.121094 30.66016 1.355469 2.820313 25.16016 1.136719 3.386719 26.28906 0.4140625 5.546875 106.9727 1.007813 1.800781 102.9805 1.035156 2.59375 25.77344 0 5.546875 23.09375 0 3.34375 16.83203 0 3.328125 106.9727 -1.007813 -1.800781 102.9805 -1.035156 -2.59375 25.72266 0.8085938 -4.46875 29.26172 0.9492188 -4.183594 25.16016 1.1875 -3.386719 30.66016 1.382813 -2.820313 23.73828 1.382813 -2.121094 23.76172 1.382813 0 25.16016 -1.1875 -3.386719 23.73828 -1.382813 -2.121094 30.66016 -1.382813 -2.820313 23.76172 -1.382813 0 30.66016 -1.382813 0 30.66016 -1.382813 2.820313 25.72266 -0.8085938 4.46875 29.26172 -0.9492188 4.183594 25.16016 -1.1875 3.386719 23.73828 -1.382813 2.121094 25.77344 0 -5.546875 23.09375 0 -3.34375 25.16016 1.1875 3.386719 23.73828 1.382813 2.121094 30.66016 1.382813 2.820313 30.66016 1.382813 0 25.16016 -1.136719 3.386719 27.86719 0.4140625 5.546875 28.38281 0 5.546875 25.72266 0.8085938 4.46875 29.26172 0.9492188 4.183594 26.28906 -0.4140625 5.546875 15.75391 -1.355469 2.085938 26.28906 0.4140625 -5.546875 25.16016 1.136719 -3.386719 25.72266 -0.8085938 -4.46875 29.26172 -0.9492188 -4.183594 15.75391 1.355469 -2.085938 16.83203 0 -3.328125 18.02734 -1.375 2.144531 16.54688 -1.375 2.097656 18.03906 0 3.398438 16.54688 0 3.40625 18.02734 1.375 2.144531 16.54688 1.375 2.097656 18.02734 -1.375 -2.144531 18.03906 0 -3.398438 16.54688 -1.375 -2.097656 16.54688 0 -3.40625 16.54688 1.375 -2.097656 18.02734 1.375 -2.144531</float_array>
					<technique_common>
						<accessor source="#polygon0_PosArr" count="97" stride="3">
							<param name="X" type="float" />
							<param name="Y" type="float" />
							<param name="Z" type="float" />
						</accessor>
					</technique_common>
				</source>
				<source id="polygon0_Normals">
					<float_array id="polygon0_NormArr" count="294">0.1090088 0.949585 -0.2940674 0.1234131 0.9483032 -0.2924805 0.1086426 0.932373 -0.3447876 0.1049805 0.9098511 -0.4014282 0.06011963 0.8679199 -0.493042 0.05108643 0.8550415 -0.5160522 0.1622314 0.7821655 -0.6016235 0.315918 0.7180786 -0.6201172 0 -1 0 -0.006408691 -0.9979858 -0.0635376 -0.004638672 -0.9916992 -0.1287231 -0.01135254 -0.9666748 -0.2557373 -0.006713867 -0.9484253 -0.3169556 0 1 0 -0.006408691 0.9979858 -0.0635376 -0.004638672 0.9916992 -0.1287231 -0.006408691 -0.9979858 0.0635376 -0.004638672 -0.9916992 0.1287231 0.1090088 -0.949585 0.2940674 0.1234131 -0.9483032 0.2924805 0.1086426 -0.932373 0.3447876 0.1049805 -0.9098511 0.4014282 0.06011963 -0.8679199 0.493042 0.05108643 -0.8550415 0.5160522 0.1622314 -0.7821655 0.6016235 0.315918 -0.7180786 0.6201172 -0.006408691 0.9979858 0.0635376 -0.004638672 0.9916992 0.1287231 -0.01135254 0.9666748 0.2557373 -0.006713867 0.9484253 0.3169556 -0.5406494 0.6717529 0.5064087 -0.4827271 0.7113647 0.5108032 -0.4569702 0.7121582 0.5328979 -0.2833862 0.7289429 0.6231689 -0.2086182 0.7105103 0.6720581 -0.003417969 0.6758423 0.7370605 -0.01031494 0.9425659 -0.3338623 -0.006713867 0.9484253 -0.3169556 -0.01031494 0.9630127 -0.269165 -0.006896973 0.9873657 -0.1583862 -0.008728027 0.9962769 -0.08612061 -0.01031494 -0.9630127 -0.269165 -0.008728027 -0.9962769 -0.08612061 -0.006896973 -0.9873657 -0.1583862 -0.006896973 -0.9873657 0.1583862 -0.01031494 -0.9425659 0.3338623 -0.006713867 -0.9484253 0.3169556 -0.01031494 -0.9630127 0.269165 -0.008728027 -0.9962769 0.08612061 -0.5406494 -0.6717529 -0.5064087 -0.4827271 -0.7113647 -0.5108032 -0.4569702 -0.7121582 -0.5328979 -0.2833862 -0.7289429 -0.6231689 -0.2086182 -0.7105103 -0.6720581 -0.003417969 -0.6758423 -0.7370605 -0.01031494 0.9630127 0.269165 -0.008728027 0.9962769 0.08612061 -0.006896973 0.9873657 0.1583862 -0.4569702 -0.7121582 0.5328979 -0.2086182 -0.7105103 0.6720581 -0.2833862 -0.7289429 0.6231689 -0.003417969 -0.6758423 0.7370605 0.315918 -0.7180786 -0.6201172 0.1622314 -0.7821655 -0.6016235 0.05108643 -0.8550415 -0.5160522 0 0 1 0.1086426 -0.932373 -0.3447876 0.06011963 -0.8679199 -0.493042 0.1049805 -0.9098511 -0.4014282 -0.01031494 0.9425659 0.3338623 -0.5406494 -0.6717529 0.5064087 -0.4827271 -0.7113647 0.5108032 -0.5406494 0.6717529 -0.5064087 -0.4569702 0.7121582 -0.5328979 -0.4827271 0.7113647 -0.5108032 -0.2833862 0.7289429 -0.6231689 -0.01031494 -0.9425659 -0.3338623 -0.01135254 -0.9666748 0.2557373 0.1090088 0.949585 0.2940674 0.1086426 0.932373 0.3447876 0.1234131 0.9483032 0.2924805 0.1049805 0.9098511 0.4014282 0.06011963 0.8679199 0.493042 0.05108643 0.8550415 0.5160522 -0.01135254 0.9666748 -0.2557373 -0.2086182 0.7105103 -0.6720581 -0.003417969 0.6758423 -0.7370605 0 0 -1 0.1622314 0.7821655 0.6016235 0.1090088 -0.949585 -0.2940674 0.1234131 -0.9483032 -0.2924805 0.315918 0.7180786 0.6201172 -0.004455566 -0.6765747 0.7363892 -0.00604248 0 1 -0.004455566 0.6765747 0.7363892 -0.009338379 -0.6814575 -0.7318115 -0.01275635 0 -0.999939 -0.004455566 0.6765747 -0.7363892</float_array>
					<technique_common>
						<accessor source="#polygon0_NormArr" count="98" stride="3">
							<param name="X" type="float" />
							<param name="Y" type="float" />
							<param name="Z" type="float" />
						</accessor>
					</technique_common>
				</source>
				<source id="polygon0_Colors0">
					<float_array id="polygon0_ColorArr0" count="4">1 1 1 1</float_array>
					<technique_common>
						<accessor source="#polygon0_ColorArr0" count="1" stride="4">
							<param name="R" type="float" />
							<param name="G" type="float" />
							<param name="B" type="float" />
							<param name="A" type="float" />
						</accessor>
					</technique_common>
				</source>
				<source id="polygon0_UVs0">
					<float_array id="polygon0_UVArr0" count="106">0.06335449 0.7197266 0.06341553 0.6539307 0.2421265 0.6524658 0.1650391 0.6117554 0.4139404 0.5683594 0.2590942 0.5616455 0.4152222 0.2157593 0.2608643 0.2158203 0.4126587 0.1188354 0.3617554 0.1187134 0.164978 0.01696777 0.01397705 0.007873535 0.1650391 0.0269165 0.01391602 0.06835938 0.1646729 0.06848145 0.2131958 0.1119995 0.2478638 0.07458496 0.3848877 0.09289551 0.3861694 0.08453369 0.01385498 0.1120605 0.2119141 0.5352783 0.01361084 0.5325317 0.1234741 0.5810547 0.01409912 0.6248169 0.02911377 0.7303467 0.02935791 0.6645508 0.4232178 0.07733154 0.4234009 0.07287598 0.2756348 0.0614624 0.326355 0.0456543 0.222229 0.0456543 0.3253784 0.008361816 0.2227783 0.008361816 1.086609 0.8001099 1.06134 0.9499512 0.949585 0.800415 0.8825684 0.9990845 0.7884521 0.7496338 0.4963989 0.7491455 0.4962769 0.9992676 0.1112061 0.9990845 -0.08911133 0.8001099 -0.05462646 0.9498901 0.0446167 0.800354 0.2052612 0.7496338 0.3890381 0.02313232 0.3886719 0.05169678 0.4390259 0.01348877 0.4367676 0.06109619 0.5738525 0.4437256 0.5743408 0.3724365 0.9453125 0.4437256 0.9453125 0.3723755</float_array>
					<technique_common>
						<accessor source="#polygon0_UVArr0" count="53" stride="2">
							<param name="S" type="float" />
							<param name="T" type="float" />
						</accessor>
					</technique_common>
				</source>
				<vertices id="polygon0_Vertices">
					<input semantic="POSITION" source="#polygon0_Positions" />
				</vertices>
				<triangles material="m_Edge" count="136">
					<input semantic="VERTEX" source="#polygon0_Vertices" offset="0" />
					<input semantic="NORMAL" source="#polygon0_Normals" offset="1" />
					<input semantic="COLOR" source="#polygon0_Colors0" set="0" offset="2" />
					<input semantic="TEXCOORD" source="#polygon0_UVs0" set="0" offset="3" />
					<p>2 2 0 2 1 1 0 1 0 0 0 0 3 3 0 3 1 1 0 1 2 2 0 2 4 4 0 4 3 3 0 3 2 2 0 2 5 5 0 5 3 3 0 3 4 4 0 4 6 6 0 6 5 5 0 5 4 4 0 4 7 6 0 7 5 5 0 5 6 6 0 6 8 7 0 8 7 6 0 7 6 6 0 6 9 7 0 9 7 6 0 7 8 7 0 8 12 8 0 12 11 8 0 11 10 8 0 10 13 8 0 13 11 8 0 11 12 8 0 12 14 9 0 14 13 8 0 13 12 8 0 12 15 10 0 15 13 8 0 13 14 9 0 14 16 11 0 16 15 10 0 15 14 9 0 14 17 12 0 17 15 10 0 15 16 11 0 16 18 12 0 18 17 12 0 17 16 11 0 16 21 13 0 13 20 14 0 14 19 13 0 12 7 15 0 15 20 14 0 14 21 13 0 13 22 13 0 19 7 15 0 15 21 13 0 13 5 13 0 20 7 15 0 15 22 13 0 19 23 13 0 21 5 13 0 20 22 13 0 19 3 13 0 22 5 13 0 20 23 13 0 21 1 13 0 23 3 13 0 22 23 13 0 21 13 8 0 13 25 16 0 14 24 8 0 12 26 17 0 15 25 16 0 14 13 8 0 13 27 8 0 19 26 17 0 15 13 8 0 13 28 8 0 20 26 17 0 15 27 8 0 19 29 8 0 21 28 8 0 20 27 8 0 19 30 8 0 22 28 8 0 20 29 8 0 21 31 8 0 23 30 8 0 22 29 8 0 21 32 20 0 2 31 19 0 25 0 18 0 24 30 21 0 3 31 19 0 25 32 20 0 2 33 22 0 4 30 21 0 3 32 20 0 2 28 23 0 5 30 21 0 3 33 22 0 4 34 24 0 6 28 23 0 5 33 22 0 4 26 24 0 7 28 23 0 5 34 24 0 6 35 25 0 9 26 24 0 7 34 24 0 6 38 13 0 12 37 13 0 11 36 13 0 10 21 13 0 13 37 13 0 11 38 13 0 12 39 26 0 14 21 13 0 13 38 13 0 12 40 27 0 15 21 13 0 13 39 26 0 14 41 28 0 16 40 27 0 15 39 26 0 14 42 29 0 18 40 27 0 15 41 28 0 16 23 13 0 21 43 13 0 22 1 13 0 23 44 13 0 20 43 13 0 22 23 13 0 21 22 13 0 19 44 13 0 20 23 13 0 21 40 27 0 15 44 13 0 20 22 13 0 19 21 13 0 13 40 27 0 15 22 13 0 19 41 32 0 28 45 31 0 27 42 30 0 26 46 33 0 29 45 31 0 27 41 32 0 28 39 34 0 30 46 33 0 29 41 32 0 28 47 35 0 31 46 33 0 29 39 34 0 30 38 35 0 32 47 35 0 31 39 34 0 30 29 8 0 21 48 8 0 22 31 8 0 23 49 8 0 20 48 8 0 22 29 8 0 21 27 8 0 19 49 8 0 20 29 8 0 21 15 10 0 15 49 8 0 20 27 8 0 19 13 8 0 13 15 10 0 15 27 8 0 19 52 38 0 35 51 37 0 34 50 36 0 33 53 39 0 36 51 37 0 34 52 38 0 35 54 40 0 37 53 39 0 36 52 38 0 35 55 13 0 38 53 39 0 36 54 40 0 37 58 43 0 36 57 42 0 37 56 41 0 35 59 8 0 38 57 42 0 37 58 43 0 36 60 8 0 39 59 8 0 38 58 43 0 36 61 44 0 40 59 8 0 38 60 8 0 39 64 47 0 43 63 46 0 42 62 45 0 41 61 44 0 40 63 46 0 42 64 47 0 43 65 48 0 44 61 44 0 40 64 47 0 43 59 8 0 38 61 44 0 40 65 48 0 44 16 51 0 28 66 50 0 27 18 49 0 26 67 52 0 29 66 50 0 27 16 51 0 28 14 53 0 30 67 52 0 29 16 51 0 28 12 54 0 32 67 52 0 29 14 53 0 30 70 57 0 40 69 56 0 44 68 55 0 43 55 13 0 38 69 56 0 44 70 57 0 40 71 13 0 39 55 13 0 38 70 57 0 40 53 39 0 36 55 13 0 38 71 13 0 39 46 60 0 29 25 59 0 30 72 58 0 28 24 61 0 32 25 59 0 30 46 60 0 29 47 61 0 31 24 61 0 32 46 60 0 29 6 63 0 6 17 62 0 9 8 62 0 8 15 63 0 7 17 62 0 9 6 63 0 6 49 64 0 5 15 63 0 7 6 63 0 6 45 65 0 47 73 65 0 46 42 65 0 45 74 65 0 48 73 65 0 46 45 65 0 47 35 65 0 46 74 65 0 48 45 65 0 47 48 68 0 3 4 67 0 4 2 66 0 2 49 64 0 5 4 67 0 4 48 68 0 3 76 29 0 42 68 55 0 43 75 69 0 41 70 57 0 40 68 55 0 43 76 29 0 42 45 71 0 27 72 58 0 28 77 70 0 26 46 60 0 29 72 58 0 28 45 71 0 27 11 8 0 11 24 8 0 12 78 8 0 10 13 8 0 13 24 8 0 12 11 8 0 11 66 74 0 27 80 73 0 28 79 72 0 26 67 75 0 29 80 73 0 28 66 74 0 27 82 12 0 34 56 41 0 35 81 76 0 33 58 43 0 36 56 41 0 35 82 12 0 34 26 17 0 15 72 77 0 16 25 16 0 14 35 46 0 17 72 77 0 16 26 17 0 15 1 80 0 25 32 79 0 2 0 78 0 24 43 81 0 3 32 79 0 2 1 80 0 25 43 81 0 3 33 82 0 4 32 79 0 2 44 83 0 5 33 82 0 4 43 81 0 3 37 13 0 11 19 13 0 12 83 13 0 10 21 13 0 13 19 13 0 12 37 13 0 11 7 15 0 15 80 84 0 16 20 14 0 14 9 37 0 17 80 84 0 16 7 15 0 15 67 75 0 29 20 85 0 30 80 73 0 28 84 86 0 31 20 85 0 30 67 75 0 29 9 87 0 46 66 87 0 47 79 87 0 45 8 87 0 48 66 87 0 47 9 87 0 46 44 83 0 5 34 88 0 6 33 82 0 4 40 88 0 7 34 88 0 6 44 83 0 5 31 90 0 1 2 66 0 2 0 89 0 0 48 68 0 3 2 66 0 2 31 90 0 1 74 91 0 8 40 88 0 7 73 91 0 9 34 88 0 6 40 88 0 7 74 91 0 8 66 87 0 47 17 87 0 46 18 87 0 45 8 87 0 48 17 87 0 46 66 87 0 47 35 46 0 17 77 46 0 18 72 77 0 16 9 37 0 17 79 37 0 18 80 84 0 16 19 86 0 32 20 85 0 30 84 86 0 31 84 54 0 31 67 52 0 29 12 54 0 32 42 29 0 18 73 29 0 17 40 27 0 15 77 65 0 45 35 65 0 46 45 65 0 47 6 63 0 6 4 67 0 4 49 64 0 5 74 25 0 8 35 25 0 9 34 24 0 6 87 93 0 51 86 92 0 50 85 92 0 49 88 93 0 52 86 92 0 50 87 93 0 51 89 94 0 49 88 93 0 52 87 93 0 51 90 94 0 50 88 93 0 52 89 94 0 49 93 95 0 50 92 96 0 51 91 95 0 49 94 96 0 52 92 96 0 51 93 95 0 50 96 97 0 49 94 96 0 52 95 97 0 50 92 96 0 51 94 96 0 52 96 97 0 49</p>
				</triangles>
			</mesh>
		</geometry>
		<geometry id="polygon1" name="polygon1">
			<mesh>
				<source id="polygon1_Positions">
					<float_array id="polygon1_PosArr" count="621">2.76491 0 -9.409664 5.447812 0.991395 -8.38101 5.442147 0 -6.620833 6.689727 1.246474 -7.322115 6.744354 0 -4.200978 7.425843 1.360971 -6.181655 8.661694 1.569696 -3.397456 8.231817 -0.723259 6.121954 7.425843 -1.360971 6.181655 8.85595 -0.942596 6.75071 9.85045 -1.386235 8.289269 9.795023 0 7.436264 12.86363 -1.498516 9.872727 12.48065 0 8.718451 8.85595 0.942596 6.75071 11.59359 0 5.648515 10.09379 1.29396 4.342351 11.65844 1.517886 2.84608 10.60275 1.617385 2.213571 8.231817 0.723259 -6.121954 8.85595 0.942596 -6.75071 9.85045 1.386235 -8.289269 9.795023 0 -7.436264 12.48065 0 -8.718451 -18.45904 2.742939 2.74294 -18.45904 0 3.879102 -19.54869 0 2.641807 -18.45904 -2.74294 2.74294 -20.25215 -1.147632 1.147632 -19.54869 -2.641808 0 14.24919 -1.913579 15.05573 13.95634 0 13.66296 9.303027 -1.558543 12.17127 9.439882 -0.460439 11.01819 5.447812 -0.991395 8.38101 6.334236 -0.593115 8.166648 9.40666 -0.940385 3.863849 10.09379 -1.29396 4.342351 9.808728 -1.199132 1.766538 10.60275 -1.617385 2.213571 -18.45904 -3.879102 0 -18.45904 -2.74294 -2.74294 -20.25215 -1.147632 -1.147632 -19.54869 0 -2.641807 -18.45904 3.879102 0 -17.32046 2.233117 0 -17.32046 0 2.233117 8.661694 -1.569696 3.397456 9.127692 -1.732471 0 -17.32046 -2.233117 0 -17.32046 0 -2.233117 -18.45904 0 -3.879102 -18.45904 2.742939 -2.74294 4.344616 0 5.108481 5.631151 -3.612242 3.612242 4.344617 -3.612242 3.612242 5.631151 -5.108482 0 4.344617 -5.108482 0 4.344617 -3.612242 -3.612242 7.638926 0 0 6.744354 0 4.200978 6.689727 -1.246474 7.322115 5.442147 0 6.620833 2.76491 0 9.409664 -23.1997 -1.233202 0 -23.1997 -0.502342 -0.502342 -23.1997 -0.502342 0.502342 -23.1997 0.502342 -0.502342 -23.1997 0.502342 0.502342 -23.1997 1.233202 0 5.631151 5.108482 0 4.344617 3.612242 -3.612242 5.631151 3.612242 -3.612242 4.344616 0 -5.108481 5.631151 0 -5.108481 5.631151 -3.612242 -3.612242 9.40666 0.940385 -3.863849 10.09379 1.29396 -4.342351 9.808728 1.199131 -1.766538 10.60275 1.617385 -2.213571 9.127692 1.732471 0 8.85595 -0.942596 -6.75071 11.59359 0 -5.648515 10.09379 -1.29396 -4.342351 11.65844 -1.517887 -2.84608 10.60275 -1.617385 -2.213571 14.24919 1.913579 -15.05573 13.95634 0 -13.66296 9.303027 1.558543 -12.17127 9.439882 0.460439 -11.01819 6.334236 0.593115 -8.166648 7.395657 0.69825 -6.965904 9.713594 0.55588 -9.198912 9.576738 1.414133 -10.10855 13.16404 0 -10.94376 13.55641 1.728035 -12.27265 13.16404 0 10.94376 9.713594 -0.55588 9.198912 7.395657 -0.69825 6.965904 13.55641 -1.728035 12.27265 9.576738 -1.414133 10.10855 -19.54869 2.641808 0 -20.25215 1.147633 1.147632 8.838073 -1.860048 -1.352214 8.838893 0 -1.832608 8.838073 1.860048 -1.352214 -20.25215 1.147633 -1.147632 8.231817 0.723259 6.121954 7.425843 1.360971 6.181655 9.40666 0.940385 3.863849 8.661694 1.569696 3.397456 8.231817 -0.723259 -6.121954 7.425843 -1.360971 -6.181655 9.40666 -0.940385 -3.863849 8.661694 -1.569696 -3.397456 12.34793 0 -3.640831 11.65844 1.517886 -2.84608 15.75443 -1.354167 -2.085213 13.87443 -1.354167 0 9.808728 -1.199132 -1.766538 9.842707 -1.204338 0 11.65844 -1.517887 2.84608 15.75443 -1.354167 2.085213 16.83055 -1.354167 2.071181 16.83055 0 3.329681 12.34793 0 3.640831 5.221722 0 9.468432 9.034414 0 13.48319 14.59725 0 16.82403 3.26106 0 2.488992 3.26106 -2.488992 0 3.26106 0 -2.488992 3.26106 2.488992 0 4.344617 5.108482 0 4.344617 3.612242 3.612242 5.631151 3.612242 3.612242 5.631151 0 5.108481 8.838073 1.860048 1.352214 8.838893 0 1.832608 8.838073 -1.860048 1.352214 9.85045 -1.386235 -8.289269 14.24919 -1.913579 -15.05573 14.59725 0 -16.82403 12.86363 1.498516 -9.872727 12.86363 -1.498516 -9.872727 13.55641 1.728035 12.27265 14.24919 1.913579 15.05573 13.55641 -1.728035 -12.27265 12.86363 1.498516 9.872727 9.85045 1.386235 8.289269 9.808728 1.199131 1.766538 6.334236 -0.593115 -8.166648 9.439882 -0.460439 -11.01819 5.447812 -0.991395 -8.38101 9.303027 -1.558543 -12.17127 9.303027 1.558543 12.17127 9.439882 0.460439 11.01819 9.713594 -0.55588 -9.198912 7.395657 -0.69825 -6.965904 9.576738 -1.414133 -10.10855 5.221722 0 -9.468432 9.034414 0 -13.48319 -23.1997 0 1.233202 6.689727 -1.246474 -7.322115 9.576738 1.414133 10.10855 6.334236 0.593115 8.166648 6.689727 1.246474 7.322115 5.447812 0.991395 8.38101 7.395657 0.69825 6.965904 9.713594 0.55588 9.198912 -23.1997 0 -1.233202 13.03623 1.308419 0.652398 10.38972 1.308419 1.940132 12.35706 2.128563 0 10.3966 2.128563 1.292171 7.11199 1.308419 0 8.431046 2.128563 0 13.71923 2.128563 0 14.3087 1.309316 0.652398 13.03623 1.308419 -0.652398 10.38972 1.308419 -1.940132 10.3966 2.128563 -1.292171 14.3087 1.309316 -0.652398 13.03623 -1.308419 0.652398 12.35706 -2.128563 0 10.38972 -1.308419 1.940132 10.3966 -2.128563 1.29217 7.11199 -1.308419 0 8.431046 -2.128563 0 13.71923 -2.128563 0 14.3087 -1.309316 0.652398 13.03623 -1.308419 -0.652398 10.38972 -1.308419 -1.940132 10.3966 -2.128563 -1.29217 14.3087 -1.309316 -0.652398 13.87443 1.354166 0 9.842707 1.204338 0 16.83055 1.354166 2.071181 15.75443 1.354166 2.085213 16.83055 -1.354167 -2.071181 16.83055 0 -3.329681 15.75443 1.354166 -2.085213 16.83055 1.354166 -2.071181 14.95157 1.310422 0 14.95157 -1.310422 0 10.40349 3.261349 0 10.40349 -3.261349 0</float_array>
					<technique_common>
						<accessor source="#polygon1_PosArr" count="207" stride="3">
							<param name="X" type="float" />
							<param name="Y" type="float" />
							<param name="Z" type="float" />
						</accessor>
					</technique_common>
				</source>
				<source id="polygon1_Normals">
					<float_array id="polygon1_NormArr" count="999">-0.4542847 0.7768555 0.4360962 -0.4834595 0.7633667 0.4284058 -0.5164185 0.762207 0.3903198 -0.5621338 0.7506714 0.3471069 -0.652832 0.725708 0.2171631 -0.6340942 0.7216797 0.27771 -0.663208 0.7332153 0.1502686 0.4400635 -0.6172485 -0.6521606 0.4320679 -0.6947632 -0.5750122 0.5527344 -0.586853 -0.5917358 0.5378418 -0.5463257 -0.6420288 0.5814209 -0.4169312 -0.6986694 0.3846436 -0.4871216 -0.7840576 0.4473267 0.7729492 0.4500122 0.4375 0.8071289 0.3964233 0.5117798 0.7613525 0.3980713 0.2559204 0.9103394 0.3251953 0.4077148 0.8511963 0.3305054 0.002807617 0.9885254 0.1508789 0.4400635 0.6172485 0.6521606 0.4320679 0.6947632 0.5750122 0.5527344 0.586853 0.5917358 0.5378418 0.5463257 0.6420288 0.5814209 0.4169312 0.6986694 0.3846436 0.4871216 0.7840576 -0.7670288 0.4536743 0.4536743 -0.7504883 0 0.6608887 -0.7748413 0 0.6321411 -0.7670288 -0.4536743 0.4536743 -0.7828369 -0.4399414 0.4399414 -0.7748413 -0.6321411 0 0.4179688 -0.5737305 -0.7043457 0.4281006 -0.6687622 -0.6078491 0.4303589 -0.7514038 -0.5001831 -0.3509521 -0.93396 -0.06768799 -0.4125977 -0.9105835 -0.02404785 -0.4716797 -0.8815308 0.01977539 -0.7584229 -0.6517334 0 -0.7670288 -0.4536743 -0.4536743 -0.7828369 -0.4399414 -0.4399414 -0.7748413 0 -0.6321411 0.8223877 0.5689087 0 0.8903809 0.4552002 0 0.8494873 0.3731079 0.3731079 0.8903809 0 0.4552002 0.8223877 0 0.5689087 0.8494873 -0.3731079 0.3731079 0.5453491 -0.7722168 0.3259888 0.5166016 -0.8231812 0.2355957 0.5418701 -0.8404541 0 0.5401611 -0.8378906 0.07843018 0.8223877 -0.5689087 0 0.8903809 -0.4552002 0 0.8494873 -0.3731079 -0.3731079 0.8903809 0 -0.4552002 0.8223877 0 -0.5689087 0.8494873 0.3731079 -0.3731079 0 0 1 0 -0.7070923 0.7070923 0 -1 0 0 -0.7070923 -0.7070923 -0.652832 -0.725708 0.2171631 -0.7043457 -0.7098999 0 -0.652832 -0.725708 -0.2171631 -0.663208 -0.7332153 -0.1502686 -0.6340942 -0.7216797 -0.27771 -0.5621338 -0.7506714 -0.3471069 -0.5164185 -0.762207 -0.3903198 -0.4834595 -0.7633667 -0.4284058 -0.4542847 -0.7768555 -0.4360962 -1 0 0 0 1 0 0 0.7070923 -0.7070923 0 0 -1 -0.3509521 0.93396 0.06768799 -0.4125977 0.9105835 0.02404785 -0.4716797 0.8815308 -0.01977539 0.5453491 0.7722168 -0.3259888 0.5166016 0.8231812 -0.2355957 0.4818726 0.864563 -0.1424561 0.4473267 -0.7729492 -0.4500122 0.4375 -0.8071289 -0.3964233 0.5117798 -0.7613525 -0.3980713 0.2559204 -0.9103394 -0.3251953 0.4077148 -0.8511963 -0.3305054 0.002807617 -0.9885254 -0.1508789 0.4179688 0.5737305 0.7043457 0.4281006 0.6687622 0.6078491 0.4303589 0.7514038 0.5001831 0.4734497 0.7288208 0.4946289 0.4381104 0.6602173 0.6100464 0.3943481 0.5787964 0.7137451 -0.3345947 -0.5968018 0.7293091 -0.4138794 -0.6426392 0.6447144 -0.4867554 -0.6785889 0.5501099 0.3943481 -0.5787964 -0.7137451 0.4381104 -0.6602173 -0.6100464 0.4734497 -0.7288208 -0.4946289 -0.7670288 0.4536743 -0.4536743 -0.7504883 0.6608887 0 -0.7748413 0.6321411 0 -0.7828369 0.4399414 0.4399414 0.7250366 -0.5145264 -0.4577637 0.7144775 0 -0.699646 0.6983643 0 -0.7157593 0.7250366 0.5145264 -0.4577637 0.6621704 0.5344849 -0.5252686 0.6669312 0.7451172 0 -0.7504883 0 -0.6608887 -0.7828369 0.4399414 -0.4399414 0.5453491 0.7722168 0.3259888 0.5166016 0.8231812 0.2355957 0.4818726 0.864563 0.1424561 0.5453491 -0.7722168 -0.3259888 0.5166016 -0.8231812 -0.2355957 0.7993774 0.5203857 -0.300354 0.4077148 0.8511963 -0.3305054 0.5117798 0.7613525 -0.3980713 0.2559204 0.9103394 -0.3251953 0.4375 0.8071289 -0.3964233 0.03417969 -0.9989624 0.03082275 -0.03009033 -0.9962769 0.08074951 -0.03253174 -0.9994507 0 -0.0657959 -0.9957886 0.06408691 -0.0657959 -0.9957886 -0.06408691 -0.03009033 -0.9962769 -0.08074951 0.03417969 -0.9989624 -0.03082275 0.009521484 -0.6807251 0.7324829 0.08135986 -0.7086792 0.7008057 0.09771729 0 0.9952393 0.1081543 -0.6168823 0.7796021 0.0692749 0 0.9976196 -0.5854492 -0.612915 0.5306396 -0.5079956 -0.6079712 0.6101685 -0.4177246 -0.6053467 0.6775513 -0.9526367 0 0.3041992 -0.9338989 -0.2528076 0.2528076 -0.9526367 -0.3041992 0 -0.9240723 -0.3822632 0 -0.9338989 -0.2528076 -0.2528076 -0.9526367 0 -0.3041992 -0.9240723 0 -0.3822632 -0.9338989 0.2528076 -0.2528076 -0.9526367 0.3041992 0 -0.9240723 0.3822632 0 -0.9338989 0.2528076 0.2528076 -0.9240723 0 0.3822632 0 0.7070923 0.7070923 0.6621704 0.5344849 0.5252686 0.7250366 0.5145264 0.4577637 0.6983643 0 0.7157593 0.7144775 0 0.699646 0.7250366 -0.5145264 0.4577637 1 -0.0004272461 0 -0.7043457 0.7098999 0 -0.6340942 0.7216797 -0.27771 -0.652832 0.725708 -0.2171631 -0.663208 0.7332153 -0.1502686 0.4400635 -0.6172485 0.6521606 0.5527344 -0.586853 0.5917358 0.4320679 -0.6947632 0.5750122 0.5378418 -0.5463257 0.6420288 0.9800415 0 0.1987305 0.9558105 -0.01818848 0.2935181 0.9559326 0 0.2935791 0.9558105 0.01818848 0.2935181 0.960083 0 -0.2797241 0.9800415 0 -0.1987305 0.960083 -0.002868652 0.2797241 0.5814209 -0.4169312 0.6986694 0.3846436 -0.4871216 0.7840576 0.9558105 0.01818848 -0.2935181 0.9559326 0 -0.2935791 0.9558105 -0.01818848 -0.2935181 0.4400635 0.6172485 -0.6521606 0.5527344 0.586853 -0.5917358 0.4320679 0.6947632 -0.5750122 0.5378418 0.5463257 -0.6420288 0.5814209 0.4169312 -0.6986694 0.3846436 0.4871216 -0.7840576 -0.3509521 -0.93396 0.06768799 -0.4125977 -0.9105835 0.02404785 -0.3509521 0.93396 -0.06768799 -0.4125977 0.9105835 -0.02404785 -0.4716797 0.8815308 0.01977539 -0.4716797 -0.8815308 -0.01977539 0.4303589 -0.7514038 0.5001831 0.4281006 -0.6687622 0.6078491 0.4179688 -0.5737305 0.7043457 0.4179688 0.5737305 -0.7043457 0.4281006 0.6687622 -0.6078491 -0.4867554 0.6785889 -0.5501099 -0.4138794 0.6426392 -0.6447144 -0.3345947 -0.5968018 -0.7293091 -0.4138794 -0.6426392 -0.6447144 -0.4867554 -0.6785889 -0.5501099 -0.486084 -0.7080688 0.5122681 -0.444458 -0.6471558 0.6193848 0.3943481 -0.5787964 0.7137451 0.4381104 -0.6602173 0.6100464 -0.5854492 -0.612915 -0.5306396 -0.5079956 -0.6079712 -0.6101685 -0.4177246 -0.6053467 -0.6775513 -0.4177246 0.6053467 -0.6775513 -0.5079956 0.6079712 -0.6101685 -0.5854492 0.612915 -0.5306396 -0.2911987 0.5418701 0.7883911 -0.2740479 0.6034546 0.7487793 -0.2553101 0.6616821 0.7050171 -0.3953857 -0.5753174 0.7160645 -0.2911987 0.7883911 0.5418701 -0.2740479 0.7487793 0.6034546 -0.2553101 0.7050171 0.6616821 0.4734497 -0.7288208 0.4946289 -0.3953857 0.5753174 0.7160645 -0.444458 0.6471558 0.6193848 -0.486084 0.7080688 0.5122681 -0.2911987 -0.7883911 0.5418701 -0.2740479 -0.7487793 0.6034546 -0.2553101 -0.7050171 0.6616821 -0.2911987 -0.5418701 0.7883911 -0.2740479 -0.6034546 0.7487793 -0.2553101 -0.6616821 0.7050171 -0.4177246 0.6053467 0.6775513 -0.5079956 0.6079712 0.6101685 -0.5854492 0.612915 0.5306396 0.4734497 0.7288208 -0.4946289 0.4381104 0.6602173 -0.6100464 0.3943481 0.5787964 -0.7137451 -0.4867554 0.6785889 0.5501099 -0.4138794 0.6426392 0.6447144 -0.3345947 0.5968018 0.7293091 -0.3345947 0.5968018 -0.7293091 -0.2911987 -0.5418701 -0.7883911 -0.2740479 -0.6034546 -0.7487793 -0.2553101 -0.6616821 -0.7050171 -0.2911987 -0.7883911 -0.5418701 -0.2740479 -0.7487793 -0.6034546 -0.2553101 -0.7050171 -0.6616821 -0.486084 -0.7080688 -0.5122681 -0.444458 -0.6471558 -0.6193848 -0.3953857 -0.5753174 -0.7160645 -0.01245117 0.999939 0 -0.01245117 0 0.999939 -0.01245117 0 -0.999939 -0.01245117 -0.999939 0 0.364624 0.6656494 0.651123 -0.0001831055 0.6226196 0.7825317 -0.3953857 0.5753174 -0.7160645 -0.444458 0.6471558 -0.6193848 0.364624 0.6656494 -0.651123 -0.2911987 0.7883911 -0.5418701 -0.2740479 0.7487793 -0.6034546 -0.2553101 0.7050171 -0.6616821 -0.0001831055 0.6226196 -0.7825317 -0.486084 0.7080688 -0.5122681 0.364624 -0.6656494 0.651123 -0.0001831055 -0.6226196 0.7825317 0.4303589 0.7514038 -0.5001831 0.364624 -0.6656494 -0.651123 -0.0001831055 -0.6226196 -0.7825317 -0.2911987 0.5418701 -0.7883911 -0.2740479 0.6034546 -0.7487793 -0.2553101 0.6616821 -0.7050171 -0.03710938 0.9993286 0.002258301 0.6621704 -0.5344849 0.5252686 0.6669312 -0.7451172 0 0.6621704 -0.5344849 -0.5252686 0.009521484 0.6807251 0.7324829 0.08135986 0.7086792 0.7008057 0.1081543 0.6168823 0.7796021 0.009521484 -0.6807251 -0.7324829 0.09771729 0 -0.9952393 0.08135986 -0.7086792 -0.7008057 0.1081543 -0.6168823 -0.7796021 0.0692749 0 -0.9976196 0.1081543 0.6168823 -0.7796021 0.08135986 0.7086792 -0.7008057 0.009521484 0.6807251 -0.7324829 0.5940552 0.8043213 -0.01379395 0.5941162 0.8043823 0 0.5940552 0.8043213 0.01379395 0.5401611 -0.8378906 -0.07843018 0.5941162 -0.8043823 0 0.4473267 -0.7729492 0.4500122 0.5117798 -0.7613525 0.3980713 0.4375 -0.8071289 0.3964233 0.2559204 -0.9103394 0.3251953 -0.4542847 0.7768555 -0.4360962 -0.5164185 0.762207 -0.3903198 -0.4834595 0.7633667 -0.4284058 -0.5621338 0.7506714 -0.3471069 -0.4542847 -0.7768555 0.4360962 -0.5164185 -0.762207 0.3903198 -0.4834595 -0.7633667 0.4284058 -0.5621338 -0.7506714 0.3471069 -0.6340942 -0.7216797 0.27771 0.7993774 -0.5203857 0.300354 0.4077148 -0.8511963 0.3305054 -0.663208 -0.7332153 0.1502686 -0.09417725 0.9869995 0.1300659 -0.09417725 0.9869995 -0.1300659 0.03417969 0.9989624 0.03082275 0.03417969 0.9989624 -0.03082275 0.5098267 0.04998779 -0.8588257 0.5098267 -0.04998779 0.8588257 0.5098267 -0.04998779 -0.8588257 0.5098267 0.04998779 0.8588257 0.7993774 0.5203857 0.300354 0.7993774 -0.5203857 -0.300354 0.002807617 0.9885254 -0.1508789 0.4473267 0.7729492 -0.4500122 0.6752319 0.550354 0.4910889 0.6752319 0.550354 -0.4910889 0.6752319 -0.550354 -0.4910889 -0.01605225 -0.7405396 -0.671814 -0.01605225 0.7405396 -0.671814 0.6752319 -0.550354 0.4910889 0.002807617 -0.9885254 0.1508789 0.4853516 0.7310791 0.4794922 0.4853516 0.7310791 -0.4794922 -0.01605225 -0.7405396 0.671814 -0.01605225 0.7405396 0.671814 0.4853516 -0.7310791 0.4794922 0.4853516 -0.7310791 -0.4794922 0.3991699 0.6884155 0.6055908 -0.3969727 0.6912231 0.6038208 0.3991699 0.6884155 -0.6055908 -0.3969727 0.6912231 -0.6038208 0.3991699 -0.6884155 0.6055908 -0.3969727 -0.6912231 0.6038208 0.3991699 -0.6884155 -0.6055908 -0.3969727 -0.6912231 -0.6038208</float_array>
					<technique_common>
						<accessor source="#polygon1_NormArr" count="333" stride="3">
							<param name="X" type="float" />
							<param name="Y" type="float" />
							<param name="Z" type="float" />
						</accessor>
					</technique_common>
				</source>
				<source id="polygon1_Colors0">
					<float_array id="polygon1_ColorArr0" count="4">1 1 1 1</float_array>
					<technique_common>
						<accessor source="#polygon1_ColorArr0" count="1" stride="4">
							<param name="R" type="float" />
							<param name="G" type="float" />
							<param name="B" type="float" />
							<param name="A" type="float" />
						</accessor>
					</technique_common>
				</source>
				<source id="polygon1_UVs0">
					<float_array id="polygon1_UVArr0" count="246">0.40625 0.984375 0.40625 0.875 0.34375 0.8125 0.40625 0.8125 0.328125 0.65625 0.40625 0.75 0.40625 0.5625 0.328125 0.1328125 0.328125 0.171875 0.390625 0.1328125 0.4453125 0.171875 0.4375 0.1328125 0.546875 0.171875 0.5625 0.1328125 0.609375 0.75 0.5 0.75 0.609375 0.625 0.5 0.609375 0.5546875 0.4921875 0.5 0.46875 0.71875 0.625 0.71875 0.6875 0.671875 0.65625 0.640625 0.59375 0.6741333 0.5625 0.578125 0.328125 0.59375 0.2890625 0.4765625 0.328125 0.46875 0.2890625 0.328125 0.328125 0.328125 0.2890625 0.453125 0.71875 0.453125 0.59375 0.453125 0.4375 0.71875 0.5625 0.71875 0.5 0.640625 0.53125 0.671875 0.46875 0.78125 0.5625 0.78125 0.640625 0.40625 0.390625 0.78125 0.484375 0.71875 0.4375 1 0.015625 0.75 0.109375 0.75 0.015625 0.5 0.109375 0.5 0.015625 0.25 0.015625 0.328125 0.390625 0.6875 0.25 0.71875 0.28125 0.65625 0.28125 0.71875 0.34375 0.65625 0.34375 0.6875 0.375 0.25 0.109375 0 0.015625 0 0.109375 0.328125 0.2109375 0.328125 0.25 0.453125 0.2109375 0.4609375 0.25 0.578125 0.2109375 0.5625 0.25 0.9765625 0.21875 0.984375 0.1875 0.875 0.125 0.875 0.1875 0.875 0.25 0.609375 0.5 0.875 0.6875 0.90625 0.5 0.8125 0.625 0.859375 0.453125 0.8125 0.5 0.875 0.71875 0.984375 0.71875 0.984375 0.5 0.328125 0.375 0.484375 0.375 0.609375 0.375 0.765625 0.328125 0.875 0.3125 0.765625 0.25 0.765625 0.1742249 0.875 0.375 1 0.109375 0.9765625 0.28125 0.984375 0.3125 0.6875 0.125 0.625 0.125 0.6875 0.21875 0.625 0.25 0.75 0.125 0.75 0.25 0.015625 0.984375 0.15625 0.984375 0.015625 0.125 0.15625 0.125 0.296875 0.125 0.296875 0.984375 0.625 0.78125 0.78125 0.671875 0.65625 0.828125 0.78125 0.734375 0.984375 0.828125 0.90625 0.828125 0.5625 0.828125 0.53125 0.78125 0.625 0.875 0.78125 0.984375 0.78125 0.921875 0.53125 0.875 0.8125 0.421875 0.90625 0.46875 0.4390564 0.7817993 0.4390564 0.8371582 0.4561462 0.8882751 0.5 0.828125 0.75 0.3125 0.625 0.3125 0.78125 0.828125</float_array>
					<technique_common>
						<accessor source="#polygon1_UVArr0" count="123" stride="2">
							<param name="S" type="float" />
							<param name="T" type="float" />
						</accessor>
					</technique_common>
				</source>
				<vertices id="polygon1_Vertices">
					<input semantic="POSITION" source="#polygon1_Positions" />
				</vertices>
				<triangles material="m_Grip" count="376">
					<input semantic="VERTEX" source="#polygon1_Vertices" offset="0" />
					<input semantic="NORMAL" source="#polygon1_Normals" offset="1" />
					<input semantic="COLOR" source="#polygon1_Colors0" set="0" offset="2" />
					<input semantic="TEXCOORD" source="#polygon1_UVs0" set="0" offset="3" />
					<p>2 2 0 2 1 1 0 1 0 0 0 0 3 3 0 3 1 1 0 1 2 2 0 2 4 4 0 4 3 3 0 3 2 2 0 2 5 5 0 5 3 3 0 3 4 4 0 4 6 6 0 6 5 5 0 5 4 4 0 4 9 9 0 9 8 8 0 8 7 7 0 7 10 10 0 10 8 8 0 8 9 9 0 9 11 11 0 11 10 10 0 10 9 9 0 9 12 12 0 12 10 10 0 10 11 11 0 11 13 12 0 13 12 12 0 12 11 11 0 11 15 15 0 16 14 14 0 15 11 13 0 14 16 16 0 17 14 14 0 15 15 15 0 16 17 17 0 18 16 16 0 17 15 15 0 16 18 18 0 19 16 16 0 17 17 17 0 18 20 21 0 9 5 20 0 8 19 19 0 7 21 22 0 10 5 20 0 8 20 21 0 9 22 23 0 11 21 22 0 10 20 21 0 9 23 24 0 13 21 22 0 10 22 23 0 11 26 27 0 22 25 26 0 21 24 25 0 20 27 28 0 20 25 26 0 21 26 27 0 22 28 29 0 23 27 28 0 20 26 27 0 22 29 30 0 24 27 28 0 20 28 29 0 23 32 32 0 27 31 31 0 26 30 31 0 25 33 32 0 28 31 31 0 26 32 32 0 27 34 33 0 29 33 32 0 28 32 32 0 27 35 33 0 30 33 32 0 28 34 33 0 29 36 35 0 32 9 34 0 15 7 34 0 31 37 35 0 17 9 34 0 15 36 35 0 32 38 36 0 33 37 35 0 17 36 35 0 32 39 36 0 19 37 35 0 17 38 36 0 33 29 30 0 24 40 37 0 34 27 28 0 20 41 38 0 35 40 37 0 34 29 30 0 24 42 39 0 36 41 38 0 35 29 30 0 24 43 40 0 37 41 38 0 35 42 39 0 36 24 43 0 20 45 42 0 38 44 41 0 34 46 44 0 39 45 42 0 38 24 43 0 20 25 45 0 21 46 44 0 39 24 43 0 20 27 46 0 20 46 44 0 39 25 45 0 21 47 48 0 6 7 47 0 31 8 47 0 5 36 48 0 32 7 47 0 31 47 48 0 6 48 49 0 40 36 48 0 32 47 48 0 6 38 50 0 33 36 48 0 32 48 49 0 40 41 53 0 35 49 52 0 38 40 51 0 34 50 54 0 41 49 52 0 38 41 53 0 35 51 55 0 42 50 54 0 41 41 53 0 35 52 56 0 35 50 54 0 41 51 55 0 42 55 58 0 45 54 58 0 44 53 57 0 43 56 59 0 46 54 58 0 44 55 58 0 45 57 59 0 47 56 59 0 46 55 58 0 45 58 60 0 48 56 59 0 46 57 59 0 47 48 62 0 40 59 37 0 49 4 61 0 4 60 63 0 4 59 37 0 49 48 62 0 40 47 64 0 6 60 63 0 4 48 62 0 40 8 65 0 5 60 63 0 4 47 64 0 6 61 66 0 3 60 63 0 4 8 65 0 5 62 67 0 2 60 63 0 4 61 66 0 3 34 68 0 1 62 67 0 2 61 66 0 3 63 69 0 0 62 67 0 2 34 68 0 1 66 70 0 52 65 70 0 51 64 70 0 50 67 70 0 53 65 70 0 51 66 70 0 52 68 70 0 54 67 70 0 53 66 70 0 52 69 70 0 55 67 70 0 53 68 70 0 54 72 72 0 56 71 72 0 48 70 71 0 46 73 73 0 57 71 72 0 48 72 72 0 56 74 73 0 58 73 73 0 57 72 72 0 56 75 60 0 56 73 73 0 57 74 73 0 58 76 75 0 32 20 74 0 15 19 74 0 31 77 75 0 17 20 74 0 15 76 75 0 32 78 76 0 33 77 75 0 17 76 75 0 32 79 76 0 19 77 75 0 17 78 76 0 33 6 78 0 6 19 77 0 31 5 77 0 5 76 78 0 32 19 77 0 31 6 78 0 6 80 79 0 40 76 78 0 32 6 78 0 6 78 79 0 33 76 78 0 32 80 79 0 40 82 82 0 16 81 81 0 15 22 80 0 14 83 83 0 17 81 81 0 15 82 82 0 16 84 84 0 18 83 83 0 17 82 82 0 16 85 85 0 19 83 83 0 17 84 84 0 18 88 87 0 27 87 86 0 26 86 86 0 25 89 87 0 28 87 86 0 26 88 87 0 27 1 88 0 29 89 87 0 28 88 87 0 27 90 88 0 30 89 87 0 28 1 88 0 29 92 90 0 61 3 89 0 60 91 89 0 59 93 90 0 62 3 89 0 60 92 90 0 61 94 91 0 63 93 90 0 62 92 90 0 61 95 91 0 64 93 90 0 62 94 91 0 63 97 93 0 61 12 92 0 12 96 92 0 63 10 93 0 10 12 92 0 12 97 93 0 61 98 94 0 59 10 93 0 10 97 93 0 61 8 94 0 8 10 93 0 10 98 94 0 59 100 96 0 62 96 95 0 63 99 95 0 64 97 96 0 61 96 95 0 63 100 96 0 62 61 97 0 60 97 96 0 61 100 96 0 62 98 97 0 59 97 96 0 61 61 97 0 60 101 100 0 24 44 99 0 34 52 98 0 35 24 25 0 20 44 99 0 34 101 100 0 24 102 101 0 23 24 25 0 20 101 100 0 24 26 27 0 22 24 25 0 20 102 101 0 23 74 104 0 67 104 103 0 66 103 102 0 65 105 105 0 65 104 103 0 66 74 104 0 67 72 106 0 68 105 105 0 65 74 104 0 67 70 107 0 69 105 105 0 65 72 106 0 68 43 40 0 37 51 108 0 42 41 38 0 35 52 98 0 35 51 108 0 42 43 40 0 37 106 109 0 36 52 98 0 35 43 40 0 37 101 100 0 24 52 98 0 35 106 109 0 36 109 111 0 32 108 110 0 5 107 110 0 31 110 111 0 6 108 110 0 5 109 111 0 32 80 112 0 40 110 111 0 6 109 111 0 32 113 114 0 32 112 113 0 5 111 113 0 31 114 114 0 6 112 113 0 5 113 114 0 32 48 49 0 40 114 114 0 6 113 114 0 32 82 117 0 16 116 116 0 18 115 115 0 70 77 118 0 17 116 116 0 18 82 117 0 16 20 119 0 15 77 118 0 17 82 117 0 16 118 122 0 73 84 121 0 72 117 120 0 71 119 123 0 74 84 121 0 72 118 122 0 73 120 122 0 75 119 123 0 74 118 122 0 73 118 122 0 73 38 124 0 74 120 122 0 75 121 125 0 72 38 124 0 74 118 122 0 73 122 126 0 71 121 125 0 72 118 122 0 73 124 129 0 77 122 128 0 71 123 127 0 76 121 130 0 72 122 128 0 71 124 129 0 77 125 131 0 78 121 130 0 72 124 129 0 77 32 133 0 27 126 132 0 79 34 132 0 29 127 133 0 80 126 132 0 79 32 133 0 27 128 134 0 81 127 133 0 80 32 133 0 27 130 137 0 84 55 136 0 83 129 135 0 82 57 138 0 69 55 136 0 83 130 137 0 84 58 139 0 68 57 138 0 69 130 137 0 84 131 140 0 85 58 139 0 68 130 137 0 84 73 141 0 67 58 139 0 68 131 140 0 85 71 142 0 68 73 141 0 67 131 140 0 85 132 143 0 84 71 142 0 68 131 140 0 85 133 144 0 69 71 142 0 68 132 143 0 84 134 145 0 83 133 144 0 69 132 143 0 84 129 135 0 82 134 145 0 83 132 143 0 84 53 146 0 86 134 145 0 83 129 135 0 82 55 136 0 83 53 146 0 86 129 135 0 82 70 71 0 46 134 147 0 45 135 147 0 44 133 71 0 47 134 147 0 45 70 71 0 46 71 72 0 48 133 71 0 47 70 71 0 46 53 57 0 43 135 147 0 44 134 147 0 45 136 57 0 87 135 147 0 44 53 57 0 43 54 58 0 44 136 57 0 87 53 57 0 43 136 150 0 86 137 149 0 88 135 148 0 83 138 151 0 89 137 149 0 88 136 150 0 86 139 152 0 88 138 151 0 89 136 150 0 86 138 153 0 89 105 153 0 65 137 153 0 88 104 153 0 66 105 153 0 65 138 153 0 89 103 153 0 65 104 153 0 66 138 153 0 89 4 4 0 4 80 154 0 40 6 6 0 6 59 99 0 49 80 154 0 40 4 4 0 4 110 157 0 6 60 156 0 4 108 155 0 5 80 154 0 40 60 156 0 4 110 157 0 6 112 160 0 8 81 159 0 9 111 158 0 7 140 161 0 10 81 159 0 9 112 160 0 8 142 162 0 81 87 162 0 26 141 162 0 25 86 162 0 25 87 162 0 26 142 162 0 81 23 164 0 13 94 164 0 63 143 163 0 12 144 165 0 12 94 164 0 63 23 164 0 13 31 166 0 26 96 166 0 63 145 166 0 64 99 166 0 64 96 166 0 63 31 166 0 26 128 167 0 81 31 167 0 26 146 167 0 25 30 167 0 25 31 167 0 26 128 167 0 81 87 168 0 26 94 168 0 63 147 168 0 64 95 168 0 64 94 168 0 63 87 168 0 26 140 161 0 10 22 169 0 11 81 159 0 9 144 170 0 12 22 169 0 11 140 161 0 10 13 172 0 13 96 172 0 63 12 171 0 12 148 173 0 12 96 172 0 63 13 172 0 13 108 176 0 8 14 175 0 9 107 174 0 7 149 177 0 10 14 175 0 9 108 176 0 8 149 177 0 10 11 178 0 11 14 175 0 9 148 179 0 12 11 178 0 11 149 177 0 10 81 180 0 15 113 181 0 32 111 180 0 31 83 181 0 17 113 181 0 32 81 180 0 15 14 182 0 15 109 183 0 32 107 182 0 31 16 183 0 17 109 183 0 32 14 182 0 15 16 183 0 17 150 184 0 33 109 183 0 32 18 184 0 19 150 184 0 33 16 183 0 17 83 181 0 17 119 185 0 33 113 181 0 32 85 185 0 19 119 185 0 33 83 181 0 17 153 186 0 29 152 187 0 28 151 186 0 30 154 187 0 27 152 187 0 28 153 186 0 29 154 187 0 27 87 188 0 26 152 187 0 28 141 188 0 25 87 188 0 26 154 187 0 27 31 189 0 26 155 190 0 27 146 189 0 25 156 190 0 28 155 190 0 27 31 189 0 26 5 191 0 8 92 192 0 61 91 191 0 59 21 192 0 10 92 192 0 61 5 191 0 8 144 193 0 12 157 194 0 61 94 193 0 63 140 194 0 10 157 194 0 61 144 193 0 12 158 195 0 59 140 194 0 10 112 195 0 8 157 194 0 61 140 194 0 10 158 195 0 59 61 196 0 60 33 197 0 28 35 196 0 30 100 197 0 62 33 197 0 28 61 196 0 60 94 198 0 63 159 199 0 62 147 198 0 64 157 199 0 61 159 199 0 62 94 198 0 63 160 200 0 79 154 201 0 27 153 200 0 29 161 201 0 80 154 201 0 27 160 200 0 79 142 202 0 81 154 201 0 27 161 201 0 80 141 202 0 25 154 201 0 27 142 202 0 81 142 203 0 81 88 204 0 27 86 203 0 25 161 204 0 80 88 204 0 27 142 203 0 81 1 205 0 29 161 204 0 80 160 205 0 79 88 204 0 27 161 204 0 80 1 205 0 29 102 207 0 92 69 207 0 91 68 206 0 90 101 208 0 93 69 207 0 91 102 207 0 92 100 197 0 62 31 209 0 26 33 197 0 28 99 209 0 64 31 209 0 26 100 197 0 62 162 211 0 94 102 211 0 92 68 210 0 90 26 212 0 95 102 211 0 92 162 211 0 94 163 213 0 60 157 199 0 61 158 213 0 59 159 199 0 62 157 199 0 61 163 213 0 60 145 214 0 64 156 215 0 28 31 214 0 26 164 215 0 62 156 215 0 28 145 214 0 64 164 215 0 62 165 216 0 30 156 215 0 28 166 216 0 60 165 216 0 30 164 215 0 62 28 218 0 92 162 218 0 94 66 217 0 90 26 219 0 95 162 218 0 94 28 218 0 92 64 221 0 91 28 221 0 92 66 220 0 90 29 222 0 93 28 221 0 92 64 221 0 91 146 223 0 25 127 224 0 80 128 223 0 81 155 224 0 27 127 224 0 80 146 223 0 25 127 224 0 80 167 225 0 29 126 225 0 79 155 224 0 27 167 225 0 29 127 224 0 80 166 226 0 60 169 227 0 61 168 226 0 59 164 227 0 62 169 227 0 61 166 226 0 60 164 227 0 62 96 228 0 63 169 227 0 61 145 228 0 64 96 228 0 63 164 227 0 62 168 229 0 59 149 230 0 10 108 229 0 8 169 230 0 61 149 230 0 10 168 229 0 59 169 230 0 61 148 231 0 12 149 230 0 10 96 231 0 63 148 231 0 12 169 230 0 61 94 232 0 63 21 192 0 10 143 232 0 12 92 192 0 61 21 192 0 10 94 232 0 63 42 234 0 92 64 234 0 91 65 233 0 90 29 235 0 93 64 234 0 91 42 234 0 92 170 237 0 94 42 237 0 92 65 236 0 90 43 238 0 95 42 237 0 92 170 237 0 94 151 239 0 30 159 240 0 62 163 239 0 60 152 240 0 28 159 240 0 62 151 239 0 30 152 240 0 28 147 241 0 64 159 240 0 62 87 241 0 26 147 241 0 64 152 240 0 28 45 242 0 98 129 243 0 97 132 242 0 96 46 243 0 99 129 243 0 97 45 242 0 98 132 242 0 101 50 244 0 99 45 242 0 100 131 244 0 97 50 244 0 99 132 242 0 101 131 244 0 97 49 245 0 98 50 244 0 99 130 245 0 96 49 245 0 98 131 244 0 97 130 245 0 101 46 243 0 99 49 245 0 100 129 243 0 97 46 243 0 99 130 245 0 101 173 246 0 104 172 246 0 103 171 246 0 102 174 246 0 105 172 246 0 103 173 246 0 104 174 223 0 105 175 223 0 106 172 223 0 103 176 223 0 107 175 223 0 106 174 223 0 105 173 247 0 104 178 247 0 109 177 247 0 108 171 247 0 102 178 247 0 109 173 247 0 104 87 248 0 26 93 249 0 62 95 248 0 64 89 249 0 28 93 249 0 62 87 248 0 26 180 250 0 111 173 250 0 104 179 250 0 110 181 250 0 112 173 250 0 104 180 250 0 111 106 252 0 92 170 252 0 94 67 251 0 90 43 253 0 95 170 252 0 94 106 252 0 92 182 254 0 113 173 254 0 104 177 254 0 108 179 254 0 110 173 254 0 104 182 254 0 113 3 255 0 60 89 249 0 28 90 255 0 30 93 249 0 62 89 249 0 28 3 255 0 60 185 256 0 103 184 256 0 104 183 256 0 102 186 256 0 105 184 256 0 104 185 256 0 103 187 134 0 106 186 134 0 105 185 134 0 103 188 134 0 107 186 134 0 105 187 134 0 106 190 257 0 109 184 257 0 104 189 257 0 108 183 257 0 102 184 257 0 104 190 257 0 109 156 190 0 28 167 258 0 29 155 190 0 27 165 258 0 30 167 258 0 29 156 190 0 28 184 259 0 104 192 259 0 111 191 259 0 110 193 259 0 112 192 259 0 111 184 259 0 104 193 202 0 112 187 202 0 106 192 202 0 111 188 202 0 107 187 202 0 106 193 202 0 112 184 260 0 104 194 260 0 113 189 260 0 108 191 260 0 110 194 260 0 113 184 260 0 104 69 262 0 91 106 262 0 92 67 261 0 90 101 263 0 93 106 262 0 92 69 262 0 91 70 107 0 69 137 149 0 88 105 105 0 65 135 148 0 83 137 149 0 88 70 107 0 69 196 264 0 75 195 264 0 73 78 264 0 74 150 264 0 74 195 264 0 73 196 264 0 75 54 265 0 83 139 152 0 88 136 150 0 86 56 266 0 69 139 152 0 88 54 265 0 83 56 266 0 69 103 102 0 65 139 152 0 88 75 267 0 68 103 102 0 65 56 266 0 69 198 269 0 71 124 129 0 77 197 268 0 76 17 270 0 72 124 129 0 77 198 269 0 71 175 203 0 106 181 203 0 112 180 203 0 111 176 203 0 107 181 203 0 112 175 203 0 106 117 273 0 71 200 272 0 77 199 271 0 76 84 274 0 72 200 272 0 77 117 273 0 71 115 275 0 78 200 272 0 77 84 274 0 72 116 276 0 72 200 272 0 77 115 275 0 78 45 42 0 38 52 56 0 35 44 41 0 34 50 54 0 41 52 56 0 35 45 42 0 38 201 277 0 71 200 272 0 77 116 276 0 72 202 278 0 76 200 272 0 77 201 277 0 71 27 46 0 20 49 52 0 38 46 44 0 39 40 51 0 34 49 52 0 38 27 46 0 20 80 280 0 114 196 280 0 75 78 279 0 74 150 281 0 74 196 280 0 75 80 280 0 114 120 283 0 75 48 49 0 114 119 282 0 74 38 50 0 74 48 49 0 114 120 283 0 75 9 286 0 15 15 285 0 16 11 284 0 14 37 287 0 17 15 285 0 16 9 286 0 15 167 290 0 1 62 289 0 2 63 288 0 0 166 291 0 3 62 289 0 2 167 290 0 1 166 291 0 3 60 156 0 4 62 289 0 2 108 155 0 5 60 156 0 4 166 291 0 3 153 294 0 1 2 293 0 2 0 292 0 0 163 295 0 3 2 293 0 2 153 294 0 1 163 295 0 3 4 61 0 4 2 293 0 2 112 296 0 5 4 61 0 4 163 295 0 3 15 285 0 16 121 298 0 18 125 297 0 70 37 287 0 17 121 298 0 18 15 285 0 16 114 299 0 6 4 61 0 4 112 296 0 5 48 62 0 40 4 61 0 4 114 299 0 6 58 60 0 48 75 60 0 56 56 59 0 46 73 73 0 57 75 60 0 56 58 60 0 48 195 300 0 73 116 300 0 72 78 300 0 74 17 301 0 72 195 301 0 73 150 301 0 74 195 302 0 73 201 302 0 71 116 302 0 72 17 303 0 72 198 303 0 71 195 303 0 73 124 129 0 77 17 270 0 72 125 131 0 78 121 304 0 72 39 304 0 115 38 304 0 74 116 305 0 72 79 305 0 115 78 305 0 74 17 306 0 72 150 306 0 74 18 306 0 115 84 307 0 72 119 307 0 74 85 307 0 115 15 15 0 16 125 308 0 70 17 17 0 18 84 84 0 18 82 82 0 16 115 309 0 70 77 118 0 17 79 310 0 19 116 116 0 18 22 311 0 14 20 119 0 15 82 117 0 16 166 312 0 3 168 312 0 116 108 312 0 5 61 158 0 3 35 158 0 117 34 158 0 1 5 313 0 5 91 313 0 116 3 313 0 3 3 174 0 3 90 174 0 117 1 174 0 1 153 7 0 1 151 7 0 117 163 7 0 3 163 314 0 3 158 314 0 116 112 314 0 5 0 315 0 0 160 315 0 118 153 315 0 1 0 316 0 0 1 316 0 1 160 316 0 118 60 156 0 4 80 154 0 40 59 99 0 49 8 317 0 5 98 317 0 116 61 317 0 3 37 287 0 17 39 318 0 19 121 298 0 18 177 319 0 108 178 319 0 109 203 319 0 119 177 320 0 108 203 320 0 119 182 320 0 113 63 321 0 0 34 321 0 1 126 321 0 118 63 322 0 0 126 322 0 118 167 322 0 1 167 19 0 1 165 19 0 117 166 19 0 3 189 323 0 108 204 323 0 119 190 323 0 109 189 324 0 108 194 324 0 113 204 324 0 119 67 70 0 53 170 70 0 120 65 70 0 51 68 70 0 54 66 70 0 52 162 70 0 121 113 114 0 32 119 282 0 33 48 49 0 40 109 111 0 32 150 112 0 33 80 112 0 40 23 24 0 13 143 24 0 12 21 22 0 10 23 170 0 13 22 169 0 11 144 170 0 12 30 134 0 25 128 134 0 81 32 133 0 27 13 179 0 13 11 178 0 11 148 179 0 12 138 153 0 89 139 153 0 88 103 153 0 65 103 102 0 65 75 267 0 68 74 104 0 67 174 325 0 105 173 325 0 104 205 325 0 122 174 326 0 105 205 326 0 122 176 326 0 107 181 327 0 112 205 327 0 122 173 327 0 104 181 328 0 112 176 328 0 107 205 328 0 122 186 329 0 105 206 329 0 122 184 329 0 104 186 330 0 105 188 330 0 107 206 330 0 122 193 331 0 112 184 331 0 104 206 331 0 122 193 332 0 112 206 332 0 122 188 332 0 107</p>
				</triangles>
			</mesh>
		</geometry>
	</library_geometries>
	<library_controllers>
		<controller id="polygon0_Controller">
			<skin source="#polygon0">
				<bind_shape_matrix>1 0 0 0 0 1 0 0 0 0 1 0 0 0 0 1</bind_shape_matrix>
				<source id="polygon0_Joints">
					<Name_array id="polygon0_JointArr" count="1">EquipSwordMaster</Name_array>
					<technique_common>
						<accessor source="#polygon0_JointArr" count="1">
							<param name="JOINT" type="Name" />
						</accessor>
					</technique_common>
				</source>
				<source id="polygon0_Matrices">
					<float_array id="polygon0_MatArr" count="16">1 0 0 0 0 1 0 0 0 0 1 0 0 0 0 1</float_array>
					<technique_common>
						<accessor source="#polygon0_MatArr" count="1" stride="16">
							<param type="float4x4" />
						</accessor>
					</technique_common>
				</source>
				<source id="polygon0_Weights">
					<float_array id="polygon0_WeightArr" count="1">1</float_array>
					<technique_common>
						<accessor source="#polygon0_WeightArr" count="1">
							<param type="float" />
						</accessor>
					</technique_common>
				</source>
				<joints>
					<input semantic="JOINT" source="#polygon0_Joints" />
					<input semantic="INV_BIND_MATRIX" source="#polygon0_Matrices" />
				</joints>
				<vertex_weights count="97">
					<input semantic="JOINT" offset="0" source="#polygon0_Joints" />
					<input semantic="WEIGHT" offset="1" source="#polygon0_Weights" />
					<vcount>1 1 1 1 1 1 1 1 1 1 1 1 1 1 1 1 1 1 1 1 1 1 1 1 1 1 1 1 1 1 1 1 1 1 1 1 1 1 1 1 1 1 1 1 1 1 1 1 1 1 1 1 1 1 1 1 1 1 1 1 1 1 1 1 1 1 1 1 1 1 1 1 1 1 1 1 1 1 1 1 1 1 1 1 1 1 1 1 1 1 1 1 1 1 1 1 1</vcount>
					<v>0 0 0 0 0 0 0 0 0 0 0 0 0 0 0 0 0 0 0 0 0 0 0 0 0 0 0 0 0 0 0 0 0 0 0 0 0 0 0 0 0 0 0 0 0 0 0 0 0 0 0 0 0 0 0 0 0 0 0 0 0 0 0 0 0 0 0 0 0 0 0 0 0 0 0 0 0 0 0 0 0 0 0 0 0 0 0 0 0 0 0 0 0 0 0 0 0 0 0 0 0 0 0 0 0 0 0 0 0 0 0 0 0 0 0 0 0 0 0 0 0 0 0 0 0 0 0 0 0 0 0 0 0 0 0 0 0 0 0 0 0 0 0 0 0 0 0 0 0 0 0 0 0 0 0 0 0 0 0 0 0 0 0 0 0 0 0 0 0 0 0 0 0 0 0 0 0 0 0 0 0 0 0 0 0 0 0 0 0 0 0 0 0 0</v>
				</vertex_weights>
			</skin>
		</controller>
		<controller id="polygon1_Controller">
			<skin source="#polygon1">
				<bind_shape_matrix>1 0 0 0 0 1 0 0 0 0 1 0 0 0 0 1</bind_shape_matrix>
				<source id="polygon1_Joints">
					<Name_array id="polygon1_JointArr" count="1">EquipSwordMaster</Name_array>
					<technique_common>
						<accessor source="#polygon1_JointArr" count="1">
							<param name="JOINT" type="Name" />
						</accessor>
					</technique_common>
				</source>
				<source id="polygon1_Matrices">
					<float_array id="polygon1_MatArr" count="16">1 0 0 0 0 1 0 0 0 0 1 0 0 0 0 1</float_array>
					<technique_common>
						<accessor source="#polygon1_MatArr" count="1" stride="16">
							<param type="float4x4" />
						</accessor>
					</technique_common>
				</source>
				<source id="polygon1_Weights">
					<float_array id="polygon1_WeightArr" count="1">1</float_array>
					<technique_common>
						<accessor source="#polygon1_WeightArr" count="1">
							<param type="float" />
						</accessor>
					</technique_common>
				</source>
				<joints>
					<input semantic="JOINT" source="#polygon1_Joints" />
					<input semantic="INV_BIND_MATRIX" source="#polygon1_Matrices" />
				</joints>
				<vertex_weights count="207">
					<input semantic="JOINT" offset="0" source="#polygon1_Joints" />
					<input semantic="WEIGHT" offset="1" source="#polygon1_Weights" />
					<vcount>1 1 1 1 1 1 1 1 1 1 1 1 1 1 1 1 1 1 1 1 1 1 1 1 1 1 1 1 1 1 1 1 1 1 1 1 1 1 1 1 1 1 1 1 1 1 1 1 1 1 1 1 1 1 1 1 1 1 1 1 1 1 1 1 1 1 1 1 1 1 1 1 1 1 1 1 1 1 1 1 1 1 1 1 1 1 1 1 1 1 1 1 1 1 1 1 1 1 1 1 1 1 1 1 1 1 1 1 1 1 1 1 1 1 1 1 1 1 1 1 1 1 1 1 1 1 1 1 1 1 1 1 1 1 1 1 1 1 1 1 1 1 1 1 1 1 1 1 1 1 1 1 1 1 1 1 1 1 1 1 1 1 1 1 1 1 1 1 1 1 1 1 1 1 1 1 1 1 1 1 1 1 1 1 1 1 1 1 1 1 1 1 1 1 1 1 1 1 1 1 1 1 1 1 1 1 1</vcount>
					<v>0 0 0 0 0 0 0 0 0 0 0 0 0 0 0 0 0 0 0 0 0 0 0 0 0 0 0 0 0 0 0 0 0 0 0 0 0 0 0 0 0 0 0 0 0 0 0 0 0 0 0 0 0 0 0 0 0 0 0 0 0 0 0 0 0 0 0 0 0 0 0 0 0 0 0 0 0 0 0 0 0 0 0 0 0 0 0 0 0 0 0 0 0 0 0 0 0 0 0 0 0 0 0 0 0 0 0 0 0 0 0 0 0 0 0 0 0 0 0 0 0 0 0 0 0 0 0 0 0 0 0 0 0 0 0 0 0 0 0 0 0 0 0 0 0 0 0 0 0 0 0 0 0 0 0 0 0 0 0 0 0 0 0 0 0 0 0 0 0 0 0 0 0 0 0 0 0 0 0 0 0 0 0 0 0 0 0 0 0 0 0 0 0 0 0 0 0 0 0 0 0 0 0 0 0 0 0 0 0 0 0 0 0 0 0 0 0 0 0 0 0 0 0 0 0 0 0 0 0 0 0 0 0 0 0 0 0 0 0 0 0 0 0 0 0 0 0 0 0 0 0 0 0 0 0 0 0 0 0 0 0 0 0 0 0 0 0 0 0 0 0 0 0 0 0 0 0 0 0 0 0 0 0 0 0 0 0 0 0 0 0 0 0 0 0 0 0 0 0 0 0 0 0 0 0 0 0 0 0 0 0 0 0 0 0 0 0 0 0 0 0 0 0 0 0 0 0 0 0 0 0 0 0 0 0 0 0 0 0 0 0 0 0 0 0 0 0 0 0 0 0 0 0 0 0 0 0 0 0 0 0 0 0 0 0 0 0 0 0 0 0 0 0 0 0 0 0 0 0 0 0 0 0 0 0 0 0 0 0 0 0 0 0 0 0 0 0 0 0 0 0 0 0 0 0 0 0 0 0 0 0 0 0 0</v>
				</vertex_weights>
			</skin>
		</controller>
	</library_controllers>
	<library_visual_scenes>
		<visual_scene id="RootNode" name="RootNode">
			<node id="EquipSwordMaster" name="EquipSwordMaster" sid="EquipSwordMaster" type="JOINT" />
			<node id="polygon0" name="polygon0" type="NODE">
				<instance_controller url="#polygon0_Controller">
					<skeleton>#EquipSwordMaster</skeleton>
					<bind_material>
						<technique_common>
							<instance_material symbol="m_Edge" target="#m_Edge">
								<bind_vertex_input semantic="TEXCOORD0" input_semantic="TEXCOORD" input_set="0" />
								<bind_vertex_input semantic="TEXCOORD0" input_semantic="TEXCOORD" input_set="0" />
								<bind_vertex_input semantic="TEXCOORD0" input_semantic="TEXCOORD" input_set="0" />
								<bind_vertex_input semantic="TEXCOORD0" input_semantic="TEXCOORD" input_set="0" />
							</instance_material>
						</technique_common>
					</bind_material>
				</instance_controller>
			</node>
			<node id="polygon1" name="polygon1" type="NODE">
				<instance_controller url="#polygon1_Controller">
					<skeleton>#EquipSwordMaster</skeleton>
					<bind_material>
						<technique_common>
							<instance_material symbol="m_Grip" target="#m_Grip">
								<bind_vertex_input semantic="TEXCOORD0" input_semantic="TEXCOORD" input_set="0" />
								<bind_vertex_input semantic="TEXCOORD0" input_semantic="TEXCOORD" input_set="0" />
								<bind_vertex_input semantic="TEXCOORD0" input_semantic="TEXCOORD" input_set="0" />
							</instance_material>
						</technique_common>
					</bind_material>
				</instance_controller>
			</node>
		</visual_scene>
	</library_visual_scenes>
	<scene>
		<instance_visual_scene url="#RootNode" />
	</scene>
</COLLADA>