<?xml version="1.0" encoding="utf-8"?>
<COLLADA version="1.5.0" xmlns="http://www.collada.org/2008/03/COLLADASchema">
	<asset>
		<contributor>
			<authoring_tool>BrawlCrate</authoring_tool>
		</contributor>
		<created>2026-05-29T19:31:00Z</created>
		<modified>2026-05-29T19:31:00Z</modified>
		<unit meter="0.01" name="centimeter" />
		<up_axis>Y_UP</up_axis>
	</asset>
	<library_images>
		<image id="LmChaAdd-image" name="LmChaAdd">
			<init_from>
				<ref>LmChaAdd.png</ref>
			</init_from>
		</image>
		<image id="LmChaSkin-image" name="LmChaSkin">
			<init_from>
				<ref>LmChaSkin.png</ref>
			</init_from>
		</image>
		<image id="PodMaster-image" name="PodMaster">
			<init_from>
				<ref>PodMaster.png</ref>
			</init_from>
		</image>
	</library_images>
	<library_materials>
		<material id="m_PodMaster">
			<instance_effect url="#m_PodMaster-fx" />
		</material>
	</library_materials>
	<library_effects>
		<effect id="m_PodMaster-fx" name="m_PodMaster">
			<profile_COMMON>
				<newparam sid="PodMaster-surface">
					<surface type="2D">
						<init_from>
							<ref>PodMaster-image</ref>
						</init_from>
					</surface>
				</newparam>
				<newparam sid="PodMaster-sampler">
					<sampler2D>
						<source>PodMaster-surface</source>
						<instance_image url="#PodMaster-image" />
						<wrap_s>MIRROR</wrap_s>
						<wrap_t>MIRROR</wrap_t>
						<minfilter>LINEAR</minfilter>
						<magfilter>LINEAR</magfilter>
					</sampler2D>
				</newparam>
				<newparam sid="LmChaSkin-surface">
					<surface type="2D">
						<init_from>
							<ref>LmChaSkin-image</ref>
						</init_from>
					</surface>
				</newparam>
				<newparam sid="LmChaSkin-sampler">
					<sampler2D>
						<source>LmChaSkin-surface</source>
						<instance_image url="#LmChaSkin-image" />
						<wrap_s>CLAMP</wrap_s>
						<wrap_t>CLAMP</wrap_t>
						<minfilter>LINEAR</minfilter>
						<magfilter>LINEAR</magfilter>
					</sampler2D>
				</newparam>
				<newparam sid="LmChaAdd-surface">
					<surface type="2D">
						<init_from>
							<ref>LmChaAdd-image</ref>
						</init_from>
					</surface>
				</newparam>
				<newparam sid="LmChaAdd-sampler">
					<sampler2D>
						<source>LmChaAdd-surface</source>
						<instance_image url="#LmChaAdd-image" />
						<wrap_s>CLAMP</wrap_s>
						<wrap_t>CLAMP</wrap_t>
						<minfilter>LINEAR</minfilter>
						<magfilter>LINEAR</magfilter>
					</sampler2D>
				</newparam>
				<technique sid="COMMON">
					<phong>
						<diffuse>
							<texture texture="PodMaster-sampler" texcoord="TEXCOORD0" />
						</diffuse>
					</phong>
				</technique>
			</profile_COMMON>
		</effect>
	</library_effects>
	<library_geometries>
		<geometry id="polygon0" name="polygon0">
			<mesh>
				<source id="polygon0_Positions">
					<float_array id="polygon0_PosArr" count="1080">52.81098 2.606258 41.09636 52.81098 -0.606259 41.09636 56.47055 3.224198 40.42006 56.47055 -1.224198 40.42006 56.20204 3.145412 41.77328 56.20204 -1.145412 41.77328 61.33173 3.128302 45.07957 61.33173 -1.128302 45.07957 63.19972 3.147091 44.71303 63.19972 -1.147091 44.71303 65.30391 3.184671 46.03929 65.30391 -1.184671 46.03929 66.08704 3.036507 48.04416 66.08704 -1.036507 48.04416 69.21057 3.022627 49.99268 69.21057 -1.022627 49.99268 71.88609 3.200724 49.41273 71.88609 -1.200724 49.41273 12.23974 3.546931 10.57062 10.68909 3.596658 7.099442 14.4979 3.588662 10.55973 22.49876 3.61286 14.79807 22.00533 3.542201 15.63735 24.40831 3.615525 16.04288 22.41605 3.270645 19.68436 25.46397 3.109999 22.95389 14.92412 3.166466 16.02651 25.75144 1 24.61953 14.47553 1 17.04325 14.92412 -1.166466 16.02651 14.49083 3.546931 7.117441 14.49083 -1.546931 7.117441 15.39214 3.588662 9.187958 15.39214 -1.588662 9.187958 23.06755 3.542201 14.00791 23.06755 -1.542201 14.00791 26.93615 3.270645 12.75055 26.93615 -1.270645 12.75055 22.27682 3.253986 9.751829 22.27682 -1.253986 9.751829 19.14458 3.352982 8.958324 19.14458 -1.352982 8.958324 47.15572 -1.546931 33.33205 50.95745 -1.596658 33.35005 46.2544 -1.588662 31.26154 39.14779 -1.61286 25.65143 38.57899 -1.542201 26.44158 37.23824 -1.615525 24.40661 34.7104 -1.270645 27.69895 30.48895 -1.109999 26.22963 41.08051 -1.166466 33.07766 28.84894 1 26.63876 40.33126 1 33.8984 41.08051 3.166466 33.07766 47.15572 3.546931 33.33205 46.2544 3.588662 31.26154 38.57899 3.542201 26.44158 34.7104 3.270645 27.69895 39.36972 3.253986 30.69767 39.36972 -1.253986 30.69767 42.50197 3.352982 31.49117 42.50197 -1.352982 31.49117 81.62721 2.205831 54.64716 69.87828 2.543121 51.58804 69.42235 1 51.98769 52.69754 1 42.05121 69.87828 -0.543121 51.58804 81.62721 -0.205831 54.64716 74.09982 -1.200724 46.01689 82.82009 -0.205831 52.8173 75.27988 -0.543121 43.30199 75.46156 1 42.72356 58.79299 -0.606259 31.91998 59.62086 1 31.43085 58.79299 2.606258 31.91998 75.27988 2.543121 43.30199 82.82009 2.205831 52.8173 74.09982 3.200724 46.01689 -5.251041 3.942143 0.549425 -6.466231 3.942143 1.021504 -5.544833 3.942143 -0.804272 -6.800296 3.942143 -1.553385 -3.972831 3.942143 -1.263017 -3.997661 3.942214 -2.472715 6.652675 3.918067 4.468133 -2.880147 3.942143 -2.939191 1.391509 3.942143 -0.155821 0.298824 3.942143 1.520353 -1.506102 3.534719 4.289104 1.128879 3.324652 7.457017 -3.226688 3.631737 3.167468 -4.766223 3.392768 3.674378 -3.207097 3.642793 1.875954 -4.733032 3.547238 2.194887 37.61881 2.83109 19.53679 37.31514 1 17.55692 75.8624 1 43.37801 37.61881 -0.83109 19.53679 74.99902 -0.491089 44.70201 38.49102 -1.243043 25.22329 73.0224 -0.909811 47.73401 71.0459 -0.491089 50.76609 -6.49849 3.18645 -11.0044 -6.057929 1 -12.33271 7.244174 1 -2.586271 -6.49849 -1.18645 -11.0044 6.485682 -1.11427 -1.422746 -7.556635 -1.67744 -4.7948 3.840525 -1.577424 2.634916 1.195369 -1.11427 6.692577 -8.543051 3.836647 -7.311547 -8.807499 3.033822 -7.323403 -6.792759 3.295122 -12.01927 -7.133265 2.482215 -11.85997 -6.007294 2.448759 -12.33107 -6.83524 1 -11.99336 -5.452017 1 -12.44283 -6.007294 -0.448759 -12.33107 1.391509 -1.942143 -0.155821 6.652675 -1.918067 4.468133 3.196435 -1.534719 -2.924572 7.158279 -1.324652 -1.792067 1.475849 -1.631737 -4.046208 1.318378 -1.392768 -5.659383 0.302072 -1.642793 -3.507098 -0.021902 -1.547238 -5.031972 73.0143 -1.308303 47.72873 82.33919 -0.289576 53.80755 82.8981 1 54.17191 83.37892 1 53.18174 -1.73782 -1.942143 -4.839845 -1.796777 -1.942143 -6.141433 -3.094784 -1.942143 -4.562633 -4.287506 -1.942143 -5.408003 -2.880147 -1.942143 -2.939191 -3.997661 -1.942214 -2.472715 6.929703 0.404589 -2.62187 6.929791 1.641777 -2.621673 7.176123 0.404813 -4.151112 7.17627 1.642002 -4.151015 3.866272 0.405327 -6.308777 3.866423 1.642515 -6.308677 2.485867 1.64247 -5.51863 0.2774 1.595411 7.58274 0.277617 0.358223 7.582741 -1.022351 1.595187 8.425323 -1.022203 0.357998 8.425419 -4.332204 1.594673 6.267658 -4.332051 0.357485 6.267757 -4.166307 0.35753 4.685784 -9.798834 3.68541 -3.017508 -9.798834 -1.68541 -3.017508 -12.22322 3.405554 -0.627481 -12.22322 -1.405554 -0.627481 -12.26982 2.457558 0.621451 -12.26982 -0.457558 0.621451 -12.26474 1 1.102005 3.939654 1.074596 -5.581935 3.367435 3.530331 -4.704154 3.367435 -1.785311 -4.704154 2.259493 4.04689 -3.004574 0.151048 -2.49327 0.229775 0.151048 4.452932 0.229775 -1.957397 4.04689 3.464124 -10.37499 3.033822 -4.918885 -13.85848 3.295122 -1.18048 -13.8504 2.482215 -1.555917 -13.82679 2.448759 -0.335985 -13.85297 1 -1.228219 -13.70497 1 0.217168 -13.82679 -0.448759 -0.335985 -13.8504 -0.482215 -1.555917 -13.85848 -1.295123 -1.18048 -10.37499 -1.033822 -4.918885 -10.25742 -1.836647 -4.681708 -7.854655 -2.428568 -4.989076 66.29443 -1.147091 39.96576 68.35704 -1.184671 41.3558 65.87598 -1.128302 38.1087 70.50744 -1.036507 41.26328 73.55074 -1.022627 43.33487 -1.231751 1.075002 7.609811 -0.659533 3.530744 6.732031 -0.659533 -1.784905 6.732031 0.448408 4.047309 5.032451 2.556856 -2.49327 1.798102 2.556856 4.453339 1.798102 4.665301 4.047309 -1.436248 2.259493 -2.087025 -3.004574 4.665301 -2.087444 -1.436248 5.773244 -1.784905 -3.135828 6.34546 1.075002 -4.013608 0.436876 1 7.856102 -12.81116 3.18645 -1.320784 1.195369 3.11427 6.692577 -7.556635 3.67744 -4.7948 3.840525 3.577424 2.634916 6.485682 3.11427 -1.422746 24.11938 1 22.87599 23.85694 2.912092 20.99133 32.93613 2.83109 26.72002 23.04402 3.392108 15.15351 38.49102 3.243043 25.22329 12.23974 -1.546931 10.57062 14.4979 -1.588662 10.55973 10.68909 -1.596658 7.099442 22.49876 -1.61286 14.79807 45.84448 3.352982 26.36377 43.85445 3.253986 23.8181 46.72243 3.166466 24.42298 39.2305 3.270645 20.76513 36.18258 3.109999 17.49561 37.23824 3.615525 24.40661 70.18289 1 52.09034 71.0459 2.491089 50.76609 73.0224 2.909811 47.73401 74.99902 2.491089 44.70201 31.00208 1 27.24113 32.93613 -0.83109 26.72002 23.85694 -0.912092 20.99133 23.04402 -1.392108 15.15351 -9.798834 3.969462 -3.017508 -5.533234 4.163995 -3.475761 -5.533234 -2.163996 -3.475761 -9.798834 -1.969462 -3.017508 50.95745 3.596658 33.35005 39.14779 3.61286 25.65143 47.14865 3.588662 29.88976 39.64121 3.542201 24.81215 -8.209676 3.019802 -5.220511 -8.209488 1 -5.220389 20.56603 -1.166466 7.371841 31.1576 -1.109999 14.21987 24.40831 -1.615525 16.04288 73.0143 3.308303 47.72873 82.33919 2.289576 53.80755 28.71343 2.912092 13.54148 30.54373 1 13.02106 -3.065341 3.530331 5.163705 -3.637559 1.074596 6.041486 28.71343 -0.912092 13.54148 -4.502968 -0.457558 -11.29287 -6.792759 -1.295123 -12.01927 -5.626886 -1.405554 -10.74624 -6.835314 -1.68541 -7.56354 30.48895 3.109999 26.22963 73.55074 3.022627 43.33487 70.50744 3.036507 41.26328 65.87598 3.128302 38.1087 60.78079 3.145412 34.74949 59.651 3.224198 35.54125 7.602117 1 -2.766378 7.158279 3.324652 -1.792067 3.196435 3.534719 -2.924572 1.475849 3.631737 -4.046208 1.318378 3.392768 -5.659383 2.417314 1 -6.195493 47.17102 1 23.40624 46.72243 -1.166466 24.42298 45.84448 -1.352982 26.36377 -7.854655 4.428567 -4.989076 -10.25742 3.836647 -4.681708 -10.25742 -2.172411 -4.681708 -6.835314 -1.969462 -7.56354 -5.626886 3.405554 -10.74624 -4.502968 2.457558 -11.29287 -4.813273 1 4.896205 0.416532 1 8.256288 1.128879 -1.324652 7.457017 15.80207 -1.352982 14.08572 15.80207 3.352982 14.08572 2.485778 1.594718 -5.51883 2.485867 0.35753 -5.51863 3.866272 1.594673 -6.308777 3.866423 0.357485 -6.308677 7.17627 0.357998 -4.151015 -4.166524 0.405282 4.685783 -4.166307 1.64247 4.685784 -4.332204 0.405327 6.267658 -4.332051 1.642515 6.267757 -1.022203 1.642002 8.425419 25.46397 -1.109999 22.95389 -1.506102 -1.534719 4.289104 -3.226688 -1.631737 3.167468 -4.766223 -1.392768 3.674378 35.8951 1 15.82997 82.18619 1 55.01141 39.2305 -1.270645 20.76513 36.18258 -1.109999 17.49561 21.31528 1 6.551098 20.56603 3.166466 7.371841 31.1576 3.109999 14.21987 32.79761 1 13.81073 60.78079 -1.145412 34.74949 66.29443 3.147091 39.96576 68.35704 3.184671 41.3558 17.7921 -1.253986 16.63139 17.7921 3.253986 16.63139 5.773244 3.530744 -3.135828 -1.957397 -2.087025 3.464124 -3.065341 -1.785311 5.163705 0.448408 -2.087444 5.032451 -10.25742 4.172411 -4.681708 -4.733032 -1.547238 2.194887 49.40681 -1.546931 29.87888 49.40681 3.546931 29.87888 47.14865 -1.588662 29.88976 39.64121 -1.542201 24.81215 43.85445 -1.253986 23.8181 -3.207097 -1.642793 1.875954 0.298824 -1.942143 1.520353 -3.972831 -1.942143 -1.263017 -5.544833 -1.942143 -0.804272 -5.251041 -1.942143 0.549425 -6.466231 -1.942143 1.021504 -6.800296 -1.942143 -1.553385 -6.835314 3.68541 -7.56354 -6.835314 3.969462 -7.56354 -8.543051 4.172411 -7.311547 -1.73782 3.942143 -4.839845 -3.094784 3.942143 -4.562633 -1.796777 3.942143 -6.141433 -4.287506 3.942143 -5.408003 -4.061229 1 -11.48215 59.651 -1.224198 35.54125 -7.133265 -0.482215 -11.85997 -8.807499 -1.033822 -7.323403 -8.543051 -1.836647 -7.311547 -0.021902 3.547238 -5.031972 0.302072 3.642793 -3.507098 -8.543051 -2.172411 -7.311547 22.00533 -1.542201 15.63735 -8.209676 -1.019802 -5.220511 27.58823 -1.69305 18.11585 30.87936 -1.69305 18.29409 27.58823 3.69305 18.11585 30.87936 3.69305 18.29409 29.07944 -1.69305 21.05518 29.07944 3.69305 21.05518 30.87937 -1.69305 18.29409 34.17049 -1.69305 18.47234 30.87937 3.69305 18.29409 34.17049 3.69305 18.47234 32.37057 -1.69305 21.23342 32.37057 3.69305 21.23342 22.41605 -1.270645 19.68436 32.37057 -1.69305 21.23342 32.37057 3.69305 21.23342 30.57064 -1.69305 23.9945 30.57064 3.69305 23.9945 2.485778 0.405282 -5.51883 6.929703 1.595411 -2.62187 7.176123 1.595187 -4.151112 6.929791 0.358223 -2.621673 0.2774 0.404589 7.58274 -1.022351 0.404813 8.425323 0.277617 1.641777 7.582741 -4.166524 1.594718 4.685783 -13.84873 1 -0.381654 -12.81116 -1.18645 -1.320784</float_array>
					<technique_common>
						<accessor source="#polygon0_PosArr" count="360" stride="3">
							<param name="X" type="float" />
							<param name="Y" type="float" />
							<param name="Z" type="float" />
						</accessor>
					</technique_common>
				</source>
				<source id="polygon0_Normals">
					<float_array id="polygon0_NormArr" count="897">-0.5344238 0.0001220703 -0.8452148 0.2836304 -6.103516E-05 -0.9589233 0.7550659 -0.0001220703 -0.6556396 0.1832886 -6.103516E-05 -0.9830322 0.7695313 -0.0001220703 -0.6386108 0.1713257 0 -0.9852295 -0.211853 6.103516E-05 -0.9772949 -0.02252197 0.9993896 0.02606201 -0.0001831055 1 0 -0.02362061 0.9989624 0.03900146 -0.01342773 0.9998779 -0.007080078 -0.07226563 0.9963379 0.04626465 -0.0378418 0.9981079 0.04901123 -0.07653809 0.9927368 0.09283447 -0.1893311 0.9360962 0.2965088 -0.1763306 0.9469604 0.2687378 -0.552063 -0.0001220703 0.8338013 -0.1763306 -0.9469604 0.2687378 0.927124 0.0001831055 -0.3747559 -0.1426392 0 -0.9897461 -0.9900513 -0.0001831055 0.1405029 -0.3989258 -6.103516E-05 0.9169922 -0.2374878 -6.103516E-05 0.9713745 -0.02362061 -0.9989624 0.03900146 0.0001831055 -1 0 0.01409912 -0.9998779 0.009094238 -0.01318359 -0.9963379 0.08477783 -0.0378418 -0.9981079 0.04901123 -0.05407715 -0.9927368 0.1075439 -0.1893311 -0.9360962 0.2965088 -0.5317993 0 0.8468628 -0.927124 0.0001831055 0.3747559 -0.7629395 -6.103516E-05 0.6464844 0.1426392 0 0.9897461 0.9900513 -0.0001831055 -0.1405029 0.3989258 -6.103516E-05 -0.9169922 0.2456055 -6.103516E-05 -0.9693604 -0.02008057 0.9620361 0.2722778 -0.1556396 0.7043457 0.6925659 -0.2160645 0.8256836 0.5210571 -0.3770142 -6.103516E-05 0.9262085 -0.5092163 0.7788086 0.366272 -0.802124 -0.0001220703 0.5971069 -0.5092163 -0.7788086 0.366272 -0.2160645 -0.8256836 0.5210571 -0.1556396 -0.7043457 0.6925659 -0.02008057 -0.9620361 0.2722778 0.2410278 -0.9620361 -0.1282349 0.5708618 -0.7043457 -0.421875 0.3895874 -0.8256836 -0.407959 0.6953125 -6.103516E-05 -0.71875 0.1296387 -0.7788086 -0.6137085 0.2226563 -0.0001220703 -0.9749146 0.1296387 0.7788086 -0.6137085 0.3895874 0.8256836 -0.407959 0.5708618 0.7043457 -0.421875 0.2410278 0.9620361 -0.1282349 0.01409912 0.9998779 0.009094238 0.04064941 0.998291 -0.04180908 -0.02185059 0.998291 0.05407715 -0.01318359 0.9963379 0.08477783 -0.1688232 0.9383545 0.3015747 -0.05383301 0.9945068 0.08978271 -0.2549438 0.8922729 0.3725586 -0.09295654 0.9940186 0.05761719 0.2736816 0.8756714 -0.3978882 0.5602417 0 -0.8283081 0.2736816 -0.8756714 -0.3978882 -0.2536011 -0.8756714 0.4110107 -0.9783325 0.197876 0.06115723 -0.9293213 0.3335571 -0.1583252 -0.760376 0.256897 -0.5964966 -0.5641479 0.2154541 -0.7970581 -0.2857056 0.07324219 -0.9555054 -0.2506104 0 -0.9680786 -0.2857056 -0.07324219 -0.9555054 0.04064941 -0.998291 -0.04180908 0.07092285 -0.9958496 -0.05657959 0.2077637 -0.9383545 -0.2761841 0.0604248 -0.9945068 -0.08551025 0.2379761 -0.8922729 -0.383606 0.01519775 -0.9940186 -0.1082764 0.04205322 -0.9934692 0.105957 0.4005127 -0.8278809 0.3927612 0.07818604 -0.9956665 0.05084229 0.463562 -0.8329468 0.302124 0.5209351 -0.8278809 0.2079468 0.8377075 0 0.5460815 0.9080811 0.0001220703 0.4188232 0.5209351 0.8278809 0.2079468 -0.1395874 0.9628906 0.2310181 -0.1506348 0.9527588 0.2637939 -0.1134033 0.937439 0.3292236 0.9882813 0.0001220703 0.1526489 0.9157104 0 -0.4018555 0.005065918 -0.0001831055 -1 -0.5483398 -0.0001831055 -0.8362427 0.5384521 0.0001220703 0.8426514 0.00189209 0 1 -0.9129028 -0.0001831055 0.4082031 -0.9864502 -0.0001831055 -0.1642456 0.6977539 -0.0001220703 0.7163086 0.914917 0 0.4036865 0.9995117 0 0.03125 -0.8377075 0.0001220703 -0.5460815 -0.5198975 0.3335571 -0.786438 -0.8526001 0.256897 -0.4550171 -0.9569702 0.2154541 -0.194519 -0.989563 0.07324219 0.1242065 -0.9868774 0 0.161377 -0.9631958 0 0.2688599 -0.989563 -0.07324219 0.1242065 -0.9569702 -0.2154541 -0.194519 -0.8526001 -0.256897 -0.4550171 -0.5198975 -0.3335571 -0.786438 -0.3388672 -0.197876 -0.9197998 -0.1373291 -0.1334229 -0.9815063 -0.01342773 -0.9998779 -0.007080078 0.02618408 -0.9989624 -0.03735352 0.1550903 -0.9628906 -0.2209473 0.180542 -0.9527588 -0.2442627 0.2554321 -0.937439 -0.2365723 -0.4318848 0.506897 0.7460327 -0.4318848 -0.506897 0.7460327 -0.4658813 -0.4641724 0.7532959 -0.2525635 -0.8499756 0.4623413 0.06878662 -0.9920044 -0.1055298 0.3449707 -0.7752075 -0.5291748 0.5458984 0.02606201 -0.8374634 -0.2536011 0.8756714 0.4110107 -0.02252197 -0.9993896 0.02606201 0.01318359 -0.9963379 -0.08477783 0.04412842 0.9967041 -0.06835938 0.1747437 0.9469604 -0.2697754 0.07653809 0.9927368 -0.09283447 0.1948853 0.9360962 -0.2929077 0.02954102 0.9981079 -0.05444336 0.1068115 0 0.9942627 0.02618408 0.9989624 -0.03735352 0.07226563 0.9963379 -0.04626465 -0.3638306 -0.1501465 -0.9193115 -0.367981 0 -0.9298096 -0.5859985 0 -0.8103027 -0.3638306 0.1501465 -0.9193115 -0.5610962 0.2883911 -0.7758789 0.04412842 -0.9967041 -0.06835938 0.1747437 -0.9469604 -0.2697754 0.05407715 -0.9927368 -0.1075439 0.1948853 -0.9360962 -0.2929077 0.02954102 -0.9981079 -0.05444336 0.04205322 0.9934692 0.105957 0.07818604 0.9956665 0.05084229 0.4005127 0.8278809 0.3927612 0.463562 0.8329468 0.302124 -0.09631348 0.984375 0.1474609 -0.3554077 0.7593994 0.5449829 -0.5458984 0.02606201 0.8374023 0.5012817 -0.4641724 -0.7302246 0.5082397 -0.506897 -0.696228 0.321106 -0.8499756 -0.4176025 0.24823 -0.925415 -0.2863159 0.04498291 -0.9952393 -0.08673096 -0.2709961 -0.0001831055 -0.9625854 -0.4055786 6.103516E-05 -0.9140625 -0.8736572 -0.4857178 -0.02838135 -0.8736572 0.4857178 -0.02838135 -0.1618042 -0.925415 0.3426514 -0.06121826 -0.9952393 0.07611084 -0.9992676 0 0.03851318 -0.987915 -0.1501465 0.03808594 -0.9779053 0 -0.2091675 -0.9363403 -0.2883911 -0.2002563 0.2554321 0.937439 -0.2365723 0.180542 0.9527588 -0.2442627 0.1550903 0.9628906 -0.2209473 0.1288452 0.9535522 -0.2722168 0.03546143 0.9768066 -0.2110596 0.9678955 0 0.2512817 0.9967651 0 0.08050537 0.07092285 0.9958496 -0.05657959 0.0604248 0.9945068 -0.08551025 0.2077637 0.9383545 -0.2761841 0.2379761 0.8922729 -0.383606 0.8991699 0.0001220703 0.437561 0.9369507 -0.0001220703 0.3493652 -0.1453247 0.2645264 -0.9533691 -0.1373291 0.1334229 -0.9815063 -0.3388672 0.197876 -0.9197998 0.07226563 -0.9963379 -0.04626465 0.24823 0.925415 -0.2863159 0.321106 0.8499756 -0.4176025 0.5082397 0.506897 -0.696228 0.5012817 0.4641724 -0.7302246 -0.1688232 -0.9383545 0.3015747 -0.914917 0 -0.4036865 -0.8991699 -0.0001220703 -0.437561 -0.9369507 -0.0001220703 -0.3493652 -0.06121826 0.9952393 0.07611084 -0.2525635 0.8499756 0.4623413 -0.1618042 0.925415 0.3426514 1 6.103516E-05 0.002197266 0.37854 0.4857178 0.7879028 0.37854 -0.4857178 0.7879028 -0.05383301 -0.9945068 0.08978271 -0.2549438 -0.8922729 0.3725586 0.7496338 0.0001220703 0.6618652 0.07653809 -0.9927368 -0.09283447 -0.7385254 0 -0.6741943 -0.7631836 -0.0001220703 -0.6461182 -0.6977539 -0.0001220703 -0.7163086 0.01477051 0.9993896 -0.03106689 0.01318359 0.9963379 -0.08477783 0.05407715 0.9927368 -0.1075439 0.5401611 -0.0001220703 -0.8415527 -0.1395874 -0.9628906 0.2310181 -0.1506348 -0.9527588 0.2637939 -0.178772 -0.9768066 0.1176147 -0.1970825 -0.9535522 0.2277222 0.1288452 -0.9535522 -0.2722168 -0.1134033 -0.937439 0.3292236 -0.1970825 0.9535522 0.2277222 0.7929688 -6.103516E-05 -0.6092529 0.6780396 -6.103516E-05 -0.7350464 -0.04321289 0 0.9990845 0.09606934 0.984375 -0.147644 0.3552246 0.7593994 -0.545105 -0.06884766 -0.9920044 0.1055298 -0.3449097 -0.7752075 0.5291748 0.04321289 0 -0.9990845 -0.4658813 0.4641724 0.7532959 -0.9997559 0 -0.0223999 0.8966675 0 -0.442688 -0.03125 0.0001831055 -0.9995117 0.9631958 0 -0.2688599 0.2709961 -0.0001831055 0.9625854 -0.6780396 -6.103516E-05 0.7350464 -0.7878418 6.103516E-05 0.6159058 0.9998779 0 0.01519775 0.9832764 0 -0.1820068 -0.9916992 0 0.1286621 -0.3117065 0 -0.9501953 -0.02185059 -0.998291 0.05407715 -0.09295654 -0.9940186 0.05761719 0.7385254 0 0.6741943 0.04498291 0.9952393 -0.08673096 0.7631836 -0.0001220703 0.6461182 -0.04473877 -0.9967041 0.06799316 -0.9890137 0.0001220703 -0.1478882 -0.295166 -0.0001220703 0.9554443 -0.8255005 -6.103516E-05 0.5643921 -0.2738037 -0.0001220703 0.961792 -0.8323364 0 0.5543213 -0.9796753 -6.103516E-05 0.2005615 -0.8445435 0.0001220703 -0.5355225 -0.9309692 0.2645264 0.25177 -0.9534302 0.1334229 0.2703857 -0.04473877 0.9967041 0.06799316 -0.05407715 0.9927368 0.1075439 -0.5641479 -0.2154541 -0.7970581 -0.760376 -0.256897 -0.5964966 -0.9293213 -0.3335571 -0.1583252 -0.9783325 -0.197876 0.06115723 0.01519775 0.9940186 -0.1082764 -0.4239502 0 -0.9057007 0.4173584 0 0.9087524 0.6205444 0 0.7841797 0.4758911 0 0.8795166 -0.8307495 0.0001220703 -0.5565796 0.2302856 0 0.9731445 -0.2824707 0 -0.9592896 -0.9951782 0 0.0982666 0.9528198 0 -0.3035278 -0.07226563 -0.9963379 0.04626465 -0.9309692 -0.2645264 0.25177 -0.9534302 -0.1334229 0.2703857 0.1139526 0.9934692 -0.004333496 -0.8917847 0 0.4524536 0.05407715 0 -0.9985352 0.03125 0.0001831055 0.9995117 -0.987915 0.1501465 0.03808594 -0.07653809 -0.9927368 0.09283447 0.4319458 0 0.9019165 0.4055786 -6.103516E-05 0.9140625 0.8736572 0.4857178 0.02838135 -1 6.103516E-05 -0.002197266 -0.37854 -0.4857178 -0.7879028 0.01477051 -0.9993896 -0.03106689 -0.9992676 0 -0.03845215 -0.1268921 0 -0.9919434 -0.9587402 0 0.2841797 -0.4384766 0 -0.8987427 0.03546143 -0.9768066 -0.2110596 -0.178772 0.9768066 0.1176147 -0.37854 0.4857178 -0.7879028 -0.5610962 -0.2883911 -0.7758789 0.8736572 -0.4857178 0.02838135 -0.1453247 -0.2645264 -0.9533691 0.1139526 -0.9934692 -0.004333496 -0.9363403 0.2883911 -0.2002563</float_array>
					<technique_common>
						<accessor source="#polygon0_NormArr" count="299" stride="3">
							<param name="X" type="float" />
							<param name="Y" type="float" />
							<param name="Z" type="float" />
						</accessor>
					</technique_common>
				</source>
				<source id="polygon0_Colors0">
					<float_array id="polygon0_ColorArr0" count="12">1 1 1 0.7490196 1 1 1 0 1 1 1 1</float_array>
					<technique_common>
						<accessor source="#polygon0_ColorArr0" count="3" stride="4">
							<param name="R" type="float" />
							<param name="G" type="float" />
							<param name="B" type="float" />
							<param name="A" type="float" />
						</accessor>
					</technique_common>
				</source>
				<source id="polygon0_UVs0">
					<float_array id="polygon0_UVArr0" count="312">0.9523926 0.03814697 0.8779907 0.1899414 0.8627319 0.1141968 0.6821899 0.1160889 0.6417847 0.1946411 0.5682373 0.1968384 0.5164185 0.1228027 0.4074707 0.1271362 0.3505249 0.2423706 0.8574219 0.3292847 0.9805298 0.2228394 0.8165894 0.2637329 0.5314331 0.2228394 0.5269775 0.2704468 0.4597778 0.2228394 0.463501 0.4019775 0.3527832 0.4486084 0.6556396 0.4465332 0.3122559 0.5324707 0.6549683 0.524292 0.5964355 0.4005737 0.6571655 0.3552246 0.02453613 0.2976685 0.3651733 0.06964111 0.3699951 -0.0004272461 0.9451294 0 0.1682129 0.8096924 0.1405029 0.7471313 0.1408081 0.8671875 0.09075928 0.8637695 0.1723022 0.9405518 0.1452637 0.9996338 0.5528564 0.9996338 0.3480835 0.9405518 0.3477173 0.9397583 0.3477173 0.7451782 0.4642334 0.6732788 0.2869263 0.7451782 0.2619019 0.6702881 0.2763672 0.8098755 0.2437134 0.744751 0.9634399 1.022522 0.9980469 1.035889 0.9980469 0.7021484 0.9634399 0.7021484 0.9065552 0.9865723 0.9065552 0.7021484 1.001282 0.5549927 1.001282 0.6570435 0.8840942 0.6570435 0.8790283 0.5549927 1.001282 0.3439331 0.8662109 0.3439331 0.1264038 0.02197266 0.1309204 0.07617188 0.03790283 0.04595947 0.05291748 0.1047363 0.01464844 0.1030884 0.04608154 0.1945801 0.004211426 0.2005005 0.3497925 0.3619385 0.02044678 0.3619385 0 0.3619385 0 0.2562256 0.135376 0.402771 0.135376 0.4956055 0.1740112 0.402771 0.1740112 0.4956055 0.255188 0.402771 0.255188 0.4956055 0.2938232 0.4956055 0.07763672 0.6611328 0.05737305 0.8260498 0.07501221 0.9237061 0.08947754 0.9985962 0.6768799 0.656189 0.6644897 0.7142944 0.6644897 0.588501 0.6404419 0.7265625 0.5947876 0.5717163 0.5947876 0.736145 0.1971436 0.01177979 0.04498291 0.9985962 0.03009033 0.9260864 0.01348877 0.850708 0.6914673 0.4346313 0.8548584 0.4346313 0.6914673 0.4354858 0.8548584 0.4354858 0.6914673 0.4365845 0.8548584 0.4365845 0.6177979 1.026611 0.5925293 0.9718628 0.8095703 0.9653931 0.5142822 0.8067627 0.887085 0.8067627 0.7825317 1.026611 0.08691406 0.6455078 0.1578369 0.524231 0.01745605 0.4432373 0.00390625 0.4432373 0.01745605 0.4124756 -0.01831055 0.4124756 -0.01159668 0.4313965 0.6914673 0.3514404 0.8548584 0.3514404 0.6914673 0.3475952 0.8548584 0.3475952 0.6914673 0.342041 0.8548584 0.342041 0.8990479 1.113831 0.9634399 1.289368 0.9634399 1.098816 0.9980469 1.296204 0.9980469 1.094482 0.8990479 1.271973 0.0413208 0.6034546 0.4594727 0.5663452 0.2755737 0.5639038 0.1949463 0.06970215 0.05059814 0.5877686 0.08789063 0.524231 0.2938232 0.402771 0.8546143 0.3514404 0.6912231 0.3514404 0.8546143 0.5159912 0.6912231 0.5159912 0.6914673 0.6807861 0.6914673 0.6846313 0.8548584 0.6807861 0.8548584 0.6846313 0.8546143 0.6808472 0.8546143 0.5162354 0.6912231 0.6808472 0.6912231 0.5162354 0.8548584 0.6901855 0.6914673 0.6901855 0.6914673 0.3662109 0.6914673 0.3654175 0.8548584 0.3662109 0.8548584 0.3654175 0.8546143 0.3662109 0.8546143 0.4004517 0.6912231 0.3662109 0.6912231 0.4004517 0.8548584 0.3643188 0.6914673 0.3643188 0.8546143 0.4346924 0.6912231 0.4346924 0.4799805 0.6586304 0.5672607 0.7459106 0.5672607 0.5713501 0.05328369 0.5088501 -0.0579834 0.5088501 0.074646 0.4125977 -0.07501221 0.4125977</float_array>
					<technique_common>
						<accessor source="#polygon0_UVArr0" count="156" stride="2">
							<param name="S" type="float" />
							<param name="T" type="float" />
						</accessor>
					</technique_common>
				</source>
				<vertices id="polygon0_Vertices">
					<input semantic="POSITION" source="#polygon0_Positions" />
				</vertices>
				<triangles material="m_PodMaster" count="644">
					<input semantic="VERTEX" source="#polygon0_Vertices" offset="0" />
					<input semantic="NORMAL" source="#polygon0_Normals" offset="1" />
					<input semantic="COLOR" source="#polygon0_Colors0" set="0" offset="2" />
					<input semantic="TEXCOORD" source="#polygon0_UVs0" set="0" offset="3" />
					<p>2 1 0 1 1 0 0 0 0 0 0 0 3 1 0 1 1 0 0 0 2 1 0 1 4 2 0 2 3 1 0 1 2 1 0 1 5 2 0 2 3 1 0 1 4 2 0 2 6 3 0 3 5 2 0 2 4 2 0 2 7 3 0 3 5 2 0 2 6 3 0 3 8 3 0 4 7 3 0 3 6 3 0 3 9 3 0 4 7 3 0 3 8 3 0 4 10 4 0 5 9 3 0 4 8 3 0 4 11 4 0 5 9 3 0 4 10 4 0 5 12 4 0 6 11 4 0 5 10 4 0 5 13 4 0 6 11 4 0 5 12 4 0 6 14 5 0 7 13 4 0 6 12 4 0 6 15 5 0 7 13 4 0 6 14 5 0 7 16 6 0 8 15 5 0 7 14 5 0 7 17 6 0 8 15 5 0 7 16 6 0 8 20 9 0 11 19 8 0 10 18 7 0 9 21 10 0 12 19 8 0 10 20 9 0 11 22 11 0 13 21 10 0 12 20 9 0 11 23 12 0 14 21 10 0 12 22 11 0 13 24 13 0 15 23 12 0 14 22 11 0 13 25 14 0 16 23 12 0 14 24 13 0 15 26 15 0 17 25 14 0 16 24 13 0 15 27 16 0 18 25 14 0 16 26 15 0 17 28 16 0 19 27 16 0 18 26 15 0 17 29 17 0 17 27 16 0 18 28 16 0 19 32 4 0 11 31 18 0 9 30 18 0 9 33 4 0 11 31 18 0 9 32 4 0 11 34 19 0 13 33 4 0 11 32 4 0 11 35 19 0 13 33 4 0 11 34 19 0 13 36 20 0 15 35 19 0 13 34 19 0 13 37 20 0 15 35 19 0 13 36 20 0 15 38 21 0 20 37 20 0 15 36 20 0 15 39 21 0 20 37 20 0 15 38 21 0 20 40 22 0 21 39 21 0 20 38 21 0 20 41 22 0 21 39 21 0 20 40 22 0 21 44 23 0 11 43 24 0 10 42 23 0 9 45 25 0 12 43 24 0 10 44 23 0 11 46 26 0 13 45 25 0 12 44 23 0 11 47 27 0 14 45 25 0 12 46 26 0 13 48 28 0 15 47 27 0 14 46 26 0 13 49 29 0 16 47 27 0 14 48 28 0 15 50 17 0 17 49 29 0 16 48 28 0 15 51 30 0 18 49 29 0 16 50 17 0 17 52 30 0 19 51 30 0 18 50 17 0 17 53 15 0 17 51 30 0 18 52 30 0 19 55 32 0 11 42 31 0 9 54 31 0 9 44 32 0 11 42 31 0 9 55 32 0 11 56 33 0 13 44 32 0 11 55 32 0 11 46 33 0 13 44 32 0 11 56 33 0 13 57 34 0 15 46 33 0 13 56 33 0 13 48 34 0 15 46 33 0 13 57 34 0 15 58 35 0 20 48 34 0 15 57 34 0 15 59 35 0 20 48 34 0 15 58 35 0 20 60 36 0 21 59 35 0 20 58 35 0 20 61 36 0 21 59 35 0 20 60 36 0 21 63 39 0 23 62 38 0 22 16 37 0 8 64 40 0 24 62 38 0 22 63 39 0 23 0 41 0 0 64 40 0 24 63 39 0 23 65 42 0 25 64 40 0 24 0 41 0 0 1 43 0 0 65 42 0 25 0 41 0 0 64 40 0 24 65 42 0 25 1 43 0 0 66 44 0 23 64 40 0 24 1 43 0 0 67 45 0 22 64 40 0 24 66 44 0 23 17 46 0 8 67 45 0 22 66 44 0 23 70 49 0 23 69 48 0 22 68 47 0 8 71 50 0 24 69 48 0 22 70 49 0 23 72 51 0 0 71 50 0 24 70 49 0 23 73 52 0 25 71 50 0 24 72 51 0 0 74 53 0 0 73 52 0 25 72 51 0 0 71 50 0 24 73 52 0 25 74 53 0 0 75 54 0 23 71 50 0 24 74 53 0 0 76 55 0 22 71 50 0 24 75 54 0 23 77 56 0 8 76 55 0 22 75 54 0 23 80 8 0 28 79 8 0 27 78 8 0 26 81 8 0 29 79 8 0 27 80 8 0 28 82 8 0 30 81 8 0 29 80 8 0 28 83 8 0 31 81 8 0 29 82 8 0 30 84 57 0 32 83 8 0 31 82 8 0 30 85 8 0 30 83 8 0 31 84 57 0 32 86 58 0 33 85 8 0 30 84 57 0 32 88 60 0 35 84 57 0 32 87 59 0 34 89 61 0 36 84 57 0 32 88 60 0 35 90 62 0 37 89 61 0 36 88 60 0 35 91 63 0 38 89 61 0 36 90 62 0 37 92 64 0 39 91 63 0 38 90 62 0 37 93 64 0 40 91 63 0 38 92 64 0 39 96 66 0 43 95 66 0 42 94 65 0 41 97 67 0 41 95 66 0 42 96 66 0 43 98 67 0 44 97 67 0 41 96 66 0 43 99 24 0 45 97 67 0 41 98 67 0 44 100 24 0 46 99 24 0 45 98 67 0 44 101 68 0 44 99 24 0 45 100 24 0 46 104 66 0 49 103 66 0 48 102 65 0 47 105 67 0 47 103 66 0 48 104 66 0 49 106 67 0 50 105 67 0 47 104 66 0 49 107 24 0 51 105 67 0 47 106 67 0 50 108 24 0 52 107 24 0 51 106 67 0 50 109 68 0 50 107 24 0 51 108 24 0 52 112 71 0 55 111 70 1 54 110 69 0 53 113 72 1 56 111 70 1 54 112 71 0 55 114 73 0 57 113 72 1 56 112 71 0 55 115 74 1 58 113 72 1 56 114 73 0 57 116 19 0 59 115 74 1 58 114 73 0 57 117 75 0 57 115 74 1 58 116 19 0 59 120 77 0 35 119 25 0 32 118 76 0 34 121 78 0 36 119 25 0 32 120 77 0 35 122 79 0 37 121 78 0 36 120 77 0 35 123 80 0 38 121 78 0 36 122 79 0 37 124 81 0 39 123 80 0 38 122 79 0 37 125 81 0 40 123 80 0 38 124 81 0 39 126 84 0 60 67 83 0 22 17 82 0 8 127 85 0 61 67 83 0 22 126 84 0 60 69 86 0 22 127 85 0 61 126 84 0 60 128 87 0 62 127 85 0 61 69 86 0 22 129 88 0 63 128 87 0 62 69 86 0 22 76 89 0 22 128 87 0 62 129 88 0 63 6 90 0 3 10 9 0 5 8 10 0 4 12 91 0 6 10 9 0 5 6 90 0 3 63 39 0 23 12 91 0 6 6 90 0 3 14 92 0 7 12 91 0 6 63 39 0 23 16 37 0 8 14 92 0 7 63 39 0 23 132 24 0 28 131 24 0 27 130 24 0 26 133 24 0 29 131 24 0 27 132 24 0 28 134 24 0 30 133 24 0 29 132 24 0 28 135 24 0 31 133 24 0 29 134 24 0 30 119 25 0 32 135 24 0 31 134 24 0 30 138 94 0 66 137 93 0 65 136 93 0 64 139 94 0 67 137 93 0 65 138 94 0 66 140 95 0 68 139 94 0 67 138 94 0 66 141 95 0 69 139 94 0 67 140 95 0 68 142 96 0 70 141 95 0 69 140 95 0 68 145 98 0 66 144 97 0 65 143 97 0 64 146 98 0 67 144 97 0 65 145 98 0 66 147 99 0 68 146 98 0 67 145 98 0 66 148 99 0 69 146 98 0 67 147 99 0 68 149 100 0 70 148 99 0 69 147 99 0 68 152 102 0 72 151 101 0 71 150 101 0 71 153 102 0 72 151 101 0 71 152 102 0 72 154 103 0 73 153 102 0 72 152 102 0 72 155 103 0 73 153 102 0 72 154 103 0 73 156 103 0 74 155 103 0 73 154 103 0 73 159 104 2 77 158 104 2 76 157 104 2 75 160 104 2 78 158 104 2 76 159 104 2 77 161 104 2 79 160 104 2 78 159 104 2 77 162 104 2 80 160 104 2 78 161 104 2 79 163 104 2 78 162 104 2 80 161 104 2 79 166 107 1 56 165 106 0 55 164 105 1 54 167 108 0 57 165 106 0 55 166 107 1 56 168 109 1 58 167 108 0 57 166 107 1 56 169 110 0 59 167 108 0 57 168 109 1 58 170 111 0 57 169 110 0 59 168 109 1 58 171 112 1 56 170 111 0 57 168 109 1 58 172 113 0 55 170 111 0 57 171 112 1 56 173 114 1 54 172 113 0 55 171 112 1 56 174 115 0 53 172 113 0 55 173 114 1 54 175 116 0 81 174 115 0 53 173 114 1 54 178 119 0 3 177 118 0 5 176 117 0 4 179 120 0 6 177 118 0 5 178 119 0 3 70 49 0 23 179 120 0 6 178 119 0 3 180 121 0 7 179 120 0 6 70 49 0 23 68 47 0 8 180 121 0 7 70 49 0 23 183 87 2 77 182 87 2 76 181 87 2 75 184 87 2 78 182 87 2 76 183 87 2 77 185 87 2 79 184 87 2 78 183 87 2 77 186 87 2 80 184 87 2 78 185 87 2 79 187 87 2 78 186 87 2 80 185 87 2 79 169 30 0 82 156 30 0 74 154 122 0 73 155 123 0 73 156 30 0 74 169 30 0 82 170 124 0 83 155 123 0 73 169 30 0 82 172 125 0 84 155 123 0 73 170 124 0 83 159 127 2 87 189 126 2 86 188 126 2 85 190 127 2 88 189 126 2 86 159 127 2 87 157 128 2 89 190 127 2 88 159 127 2 87 191 128 2 90 190 127 2 88 157 128 2 89 194 129 0 50 193 129 0 47 192 30 0 49 195 8 0 51 193 129 0 47 194 129 0 50 196 8 0 52 195 8 0 51 194 129 0 50 197 65 0 50 195 8 0 51 196 8 0 52 200 129 0 93 199 129 0 92 198 30 0 91 201 8 0 94 199 129 0 92 200 129 0 93 202 8 0 95 201 8 0 94 200 129 0 93 94 65 0 93 201 8 0 94 202 8 0 95 205 24 0 10 204 23 0 11 203 130 0 9 206 117 0 12 204 23 0 11 205 24 0 10 33 118 0 11 206 117 0 12 205 24 0 10 35 131 0 13 206 117 0 12 33 118 0 11 209 133 0 17 208 132 0 20 207 132 0 21 210 134 0 15 208 132 0 20 209 133 0 17 211 135 0 16 210 134 0 15 209 133 0 17 212 136 0 14 210 134 0 15 211 135 0 16 214 129 0 44 200 129 0 41 213 30 0 43 202 8 0 45 200 129 0 41 214 129 0 44 215 8 0 46 202 8 0 45 214 129 0 44 216 65 0 44 202 8 0 45 215 8 0 46 198 30 0 91 217 30 0 96 200 129 0 93 218 68 0 93 217 30 0 96 198 30 0 91 219 68 0 92 218 68 0 93 198 30 0 91 220 24 0 94 218 68 0 93 219 68 0 92 150 137 0 71 222 137 0 98 221 137 0 97 223 137 0 98 222 137 0 98 150 137 0 71 151 137 0 71 223 137 0 98 150 137 0 71 224 137 0 97 223 137 0 98 151 137 0 71 225 8 0 10 55 9 0 11 54 9 0 9 226 57 0 12 55 9 0 11 225 8 0 10 227 138 0 11 226 57 0 12 225 8 0 10 228 139 0 13 226 57 0 12 227 138 0 11 230 141 1 101 164 140 1 100 229 19 1 99 168 142 1 102 164 140 1 100 230 141 1 101 173 143 1 100 168 142 1 102 230 141 1 101 171 144 1 103 168 142 1 102 173 143 1 100 231 146 0 17 39 145 0 20 41 145 0 21 37 147 0 15 39 145 0 20 231 146 0 17 232 148 0 16 37 147 0 15 231 146 0 17 233 149 0 14 37 147 0 15 232 148 0 16 62 152 0 22 234 151 0 60 16 150 0 8 235 153 0 61 234 151 0 60 62 152 0 22 128 87 0 62 235 153 0 61 62 152 0 22 76 89 0 22 235 153 0 61 128 87 0 62 94 65 0 93 236 65 0 92 201 8 0 94 237 66 0 91 236 65 0 92 94 65 0 93 95 66 0 96 237 66 0 91 94 65 0 93 97 67 0 93 237 66 0 91 95 66 0 96 238 155 2 106 184 154 2 105 163 154 2 104 182 155 2 107 184 154 2 105 238 155 2 106 239 156 2 108 182 155 2 107 238 155 2 106 181 156 2 109 182 155 2 107 239 156 2 108 220 24 0 94 99 24 0 95 218 68 0 93 97 67 0 93 99 24 0 95 220 24 0 94 240 67 0 92 97 67 0 93 220 24 0 94 237 66 0 91 97 67 0 93 240 67 0 92 236 65 0 112 197 65 0 111 201 8 0 110 104 66 0 113 197 65 0 111 236 65 0 112 237 66 0 114 104 66 0 113 236 65 0 112 240 67 0 112 104 66 0 113 237 66 0 114 109 68 0 111 219 68 0 112 192 30 0 113 220 24 0 110 219 68 0 112 109 68 0 111 108 24 0 115 220 24 0 110 109 68 0 111 106 67 0 111 220 24 0 110 108 24 0 115 241 158 0 73 117 157 0 83 116 66 0 82 242 159 0 84 117 157 0 83 241 158 0 73 243 160 0 72 242 159 0 84 241 158 0 73 244 161 0 71 242 159 0 84 243 160 0 72 245 163 0 16 49 163 0 16 51 162 0 18 47 164 0 14 49 163 0 16 245 163 0 16 212 165 0 14 47 164 0 14 245 163 0 16 172 125 0 84 153 166 0 72 155 123 0 73 151 167 0 71 153 166 0 72 172 125 0 84 174 167 0 116 151 167 0 71 172 125 0 84 111 169 1 100 230 168 1 101 229 110 1 99 115 170 1 102 230 168 1 101 111 169 1 100 113 171 1 103 115 170 1 102 111 169 1 100 75 54 0 23 246 172 0 7 77 56 0 8 247 173 0 6 246 172 0 7 75 54 0 23 248 174 0 3 247 173 0 6 75 54 0 23 74 53 0 0 248 174 0 3 75 54 0 23 249 175 0 2 248 174 0 3 74 53 0 0 250 176 0 1 249 175 0 2 74 53 0 0 252 177 0 36 121 177 0 36 251 88 0 117 119 178 0 32 121 177 0 36 252 177 0 36 84 178 0 32 119 178 0 32 252 177 0 36 252 181 0 36 254 180 0 37 253 179 0 35 255 182 0 38 254 180 0 37 252 181 0 36 256 66 0 118 255 182 0 38 252 181 0 36 209 183 0 17 258 183 0 17 257 102 0 17 259 184 0 21 258 183 0 17 209 183 0 17 207 184 0 21 259 184 0 21 209 183 0 17 164 105 1 54 260 186 0 81 229 185 1 119 261 187 0 53 260 186 0 81 164 105 1 54 165 106 0 55 261 187 0 53 164 105 1 54 175 25 0 121 224 26 0 97 262 26 0 120 223 25 0 98 224 26 0 97 175 25 0 121 263 188 0 97 223 25 0 98 175 25 0 121 265 191 0 73 112 190 0 84 264 189 0 72 114 192 0 83 112 190 0 84 265 191 0 73 116 66 0 82 114 192 0 83 265 191 0 73 266 30 0 118 89 61 0 36 91 63 0 38 267 30 0 117 89 61 0 36 266 30 0 118 268 193 0 36 267 30 0 117 266 30 0 118 26 195 0 17 29 195 0 17 28 194 0 17 269 196 0 21 29 195 0 17 26 195 0 17 270 196 0 21 269 196 0 21 26 195 0 17 165 198 0 84 150 197 0 71 261 197 0 116 152 199 0 72 150 197 0 71 165 198 0 84 154 122 0 73 152 199 0 72 165 198 0 84 273 95 0 68 272 96 0 70 271 96 0 122 274 95 0 69 272 96 0 70 273 95 0 68 275 94 0 67 274 95 0 69 273 95 0 68 278 99 0 68 277 100 0 70 276 100 0 122 279 99 0 69 277 100 0 70 278 99 0 68 280 98 0 67 279 99 0 69 278 99 0 68 192 30 0 113 199 129 0 112 194 129 0 111 198 30 0 114 199 129 0 112 192 30 0 113 219 68 0 112 198 30 0 114 192 30 0 113 201 8 0 110 194 129 0 111 199 129 0 112 196 8 0 115 194 129 0 111 201 8 0 110 197 65 0 111 196 8 0 115 201 8 0 110 281 200 0 16 25 200 0 16 27 34 0 18 23 201 0 14 25 200 0 16 281 200 0 16 233 202 0 14 23 201 0 14 281 200 0 16 268 193 0 36 283 203 0 37 282 26 0 35 284 204 0 38 283 203 0 37 268 193 0 36 266 30 0 118 284 204 0 38 268 193 0 36 285 66 0 18 257 66 0 19 258 146 0 17 209 133 0 17 257 66 0 19 285 66 0 18 211 135 0 16 209 133 0 17 285 66 0 18 128 87 0 62 67 83 0 22 127 85 0 61 286 205 0 63 67 83 0 22 128 87 0 62 62 152 0 22 286 205 0 63 128 87 0 62 288 148 0 16 258 146 0 17 287 206 0 15 285 66 0 18 258 146 0 17 288 148 0 16 231 208 0 17 290 208 0 17 289 207 0 17 41 209 0 21 290 208 0 17 231 208 0 17 35 131 0 13 233 149 0 14 206 117 0 12 37 147 0 15 233 149 0 14 35 131 0 13 228 139 0 13 212 136 0 14 226 57 0 12 210 134 0 15 212 136 0 14 228 139 0 13 19 8 0 10 32 138 0 11 30 210 0 9 21 10 0 12 32 138 0 11 19 8 0 10 21 10 0 12 34 211 0 13 32 138 0 11 23 136 0 14 34 211 0 13 21 10 0 12 38 132 0 20 290 133 0 17 40 132 0 21 36 212 0 15 290 133 0 17 38 132 0 20 23 136 0 14 36 212 0 15 34 211 0 13 291 135 0 16 36 212 0 15 23 136 0 14 291 135 0 16 290 133 0 17 36 212 0 15 292 213 0 18 290 133 0 17 291 135 0 16 11 23 0 5 7 214 0 3 9 117 0 4 13 215 0 6 7 214 0 3 11 23 0 5 5 217 0 2 1 43 0 0 3 216 0 1 7 214 0 3 1 43 0 0 5 217 0 2 178 119 0 3 72 51 0 0 70 49 0 23 293 218 0 2 72 51 0 0 178 119 0 3 7 214 0 3 66 44 0 23 1 43 0 0 13 215 0 6 66 44 0 23 7 214 0 3 15 219 0 7 66 44 0 23 13 215 0 6 17 46 0 8 66 44 0 23 15 219 0 7 6 90 0 3 0 41 0 0 63 39 0 23 4 220 0 2 0 41 0 0 6 90 0 3 295 138 0 5 248 174 0 3 294 10 0 4 247 173 0 6 248 174 0 3 295 138 0 5 270 221 0 21 296 222 0 20 269 221 0 21 297 222 0 20 296 222 0 20 270 221 0 21 225 223 0 10 42 223 0 9 43 223 0 10 54 223 0 9 42 223 0 9 225 223 0 10 186 8 2 125 163 154 2 124 184 154 2 123 162 8 2 126 163 154 2 124 186 8 2 125 187 224 2 129 158 225 2 128 160 224 2 127 298 225 2 130 158 225 2 128 187 224 2 129 160 224 2 133 186 8 2 132 187 224 2 131 162 8 2 134 186 8 2 132 160 224 2 133 157 128 2 136 298 225 2 130 191 128 2 135 158 225 2 128 298 225 2 130 157 128 2 136 301 226 2 139 300 227 2 138 299 226 2 137 183 227 2 140 300 227 2 138 301 226 2 139 299 226 2 143 185 24 2 142 301 226 2 141 161 24 2 144 185 24 2 142 299 226 2 143 239 156 2 146 183 227 2 140 181 156 2 145 300 227 2 138 183 227 2 140 239 156 2 146 185 24 2 142 188 126 2 148 189 126 2 147 161 24 2 144 188 126 2 148 185 24 2 142 221 110 0 97 261 110 0 116 150 110 0 71 302 110 0 120 261 110 0 116 221 110 0 97 30 228 0 9 205 228 0 10 19 228 0 10 31 228 0 9 205 228 0 10 30 228 0 9 167 229 0 83 154 122 0 73 165 198 0 84 169 30 0 82 154 122 0 73 167 229 0 83 221 60 0 97 260 57 0 121 302 60 0 120 222 57 0 98 260 57 0 121 221 60 0 97 231 146 0 17 292 213 0 18 232 148 0 16 289 213 0 19 292 213 0 18 231 146 0 17 91 230 0 38 303 230 0 40 284 230 0 38 93 230 0 40 303 230 0 40 91 230 0 38 304 231 0 9 225 231 0 10 43 231 0 10 305 231 0 9 225 231 0 10 304 231 0 9 304 232 0 9 227 1 0 11 305 232 0 9 306 1 0 11 227 1 0 11 304 232 0 9 306 1 0 11 228 233 0 13 227 1 0 11 307 233 0 13 228 233 0 13 306 1 0 11 307 233 0 13 210 234 0 15 228 233 0 13 287 234 0 15 210 234 0 15 307 233 0 13 287 234 0 15 208 235 0 20 210 234 0 15 308 235 0 20 208 235 0 20 287 234 0 15 308 235 0 20 207 236 0 21 208 235 0 20 259 236 0 21 207 236 0 21 308 235 0 20 93 6 0 40 309 6 0 39 303 6 0 40 92 6 0 39 309 6 0 39 93 6 0 40 92 237 0 39 283 237 0 37 309 237 0 39 90 237 0 37 283 237 0 37 92 237 0 39 90 213 0 37 282 213 0 35 283 213 0 37 88 213 0 35 282 213 0 35 90 213 0 37 88 104 0 35 310 104 0 34 282 104 0 35 87 104 0 34 310 104 0 34 88 104 0 35 87 16 0 33 311 16 0 30 310 16 0 33 82 16 0 30 311 16 0 30 87 16 0 33 82 234 0 30 312 234 0 28 311 234 0 30 80 234 0 28 312 234 0 28 82 234 0 30 80 238 0 28 313 238 0 26 312 238 0 28 78 238 0 26 313 238 0 26 80 238 0 28 78 234 0 26 314 234 0 27 313 234 0 26 79 234 0 27 314 234 0 27 78 234 0 26 79 239 0 27 315 239 0 29 314 239 0 27 81 239 0 29 315 239 0 29 79 239 0 27 81 240 0 29 135 104 0 31 315 240 0 29 83 104 0 31 135 104 0 31 81 240 0 29 174 110 0 116 224 110 0 97 151 110 0 71 262 110 0 120 224 110 0 97 174 110 0 116 314 24 0 27 312 24 0 28 313 24 0 26 315 24 0 29 312 24 0 28 314 24 0 27 315 24 0 29 311 24 0 30 312 24 0 28 135 24 0 31 311 24 0 30 315 24 0 29 311 24 0 30 119 25 0 32 310 241 0 33 135 24 0 31 119 25 0 32 311 24 0 30 238 104 2 76 300 104 2 77 239 104 2 75 163 104 2 78 300 104 2 77 238 104 2 76 309 242 0 39 284 204 0 38 303 242 0 40 283 203 0 37 284 204 0 38 309 242 0 39 244 184 0 71 264 243 0 72 316 184 0 71 243 243 0 72 264 243 0 72 244 184 0 71 110 19 0 116 317 19 0 97 316 19 0 71 318 19 0 120 317 19 0 97 110 19 0 116 321 8 0 27 320 8 0 28 319 8 0 26 322 8 0 29 320 8 0 28 321 8 0 27 85 8 0 30 322 8 0 29 83 8 0 31 320 8 0 28 322 8 0 29 85 8 0 30 316 244 0 71 112 190 0 84 110 244 0 116 264 189 0 72 112 190 0 84 316 244 0 71 50 245 0 17 53 245 0 17 52 243 0 17 61 101 0 21 53 245 0 17 50 245 0 17 323 66 0 74 116 66 0 82 265 191 0 73 241 158 0 73 116 66 0 82 323 66 0 74 298 87 2 76 190 87 2 77 191 87 2 75 187 87 2 78 190 87 2 77 298 87 2 76 260 57 0 121 317 139 0 97 318 139 0 120 222 57 0 98 317 139 0 97 260 57 0 121 84 57 0 32 253 179 0 35 86 58 0 34 252 181 0 36 253 179 0 35 84 57 0 32 59 246 0 20 50 17 0 17 48 28 0 15 61 246 0 21 50 17 0 17 59 246 0 20 286 22 0 63 64 40 0 24 67 45 0 22 62 38 0 22 64 40 0 24 286 22 0 63 72 247 0 0 250 32 0 1 74 247 0 0 324 32 0 1 250 32 0 1 72 247 0 0 324 32 0 1 249 248 0 2 250 32 0 1 293 248 0 2 249 248 0 2 324 32 0 1 293 248 0 2 248 249 0 3 249 248 0 2 178 249 0 3 248 249 0 3 293 248 0 2 178 249 0 3 294 249 0 4 248 249 0 3 176 249 0 4 294 249 0 4 178 249 0 3 176 249 0 4 295 250 0 5 294 249 0 4 177 250 0 5 295 250 0 5 176 249 0 4 177 250 0 5 247 250 0 6 295 250 0 5 179 250 0 6 247 250 0 6 177 250 0 5 179 250 0 6 246 251 0 7 247 250 0 6 180 251 0 7 246 251 0 7 179 250 0 6 180 251 0 7 77 252 0 8 246 251 0 7 68 252 0 8 77 252 0 8 180 251 0 7 68 253 0 8 234 104 0 60 77 253 0 8 126 104 0 60 234 104 0 60 68 253 0 8 260 255 0 81 111 70 1 54 229 254 1 119 110 69 0 53 111 70 1 54 260 255 0 81 58 256 0 20 53 15 0 17 60 256 0 21 57 257 0 15 53 15 0 17 58 256 0 20 117 75 0 57 325 258 1 56 115 74 1 58 242 259 0 55 325 258 1 56 117 75 0 57 242 259 0 55 326 260 1 54 325 258 1 56 327 261 0 53 326 260 1 54 242 259 0 55 251 66 0 117 256 66 0 118 252 181 0 36 121 78 0 36 256 66 0 118 251 66 0 117 329 262 0 39 255 182 0 38 328 262 0 40 254 180 0 37 255 182 0 38 329 262 0 39 125 263 0 40 255 263 0 38 123 263 0 38 328 263 0 40 255 263 0 38 125 263 0 40 124 252 0 39 328 252 0 40 125 252 0 40 329 252 0 39 328 252 0 40 124 252 0 39 122 264 0 37 329 264 0 39 124 264 0 39 254 264 0 37 329 264 0 39 122 264 0 37 120 16 0 35 254 16 0 37 122 16 0 37 253 16 0 35 254 16 0 37 120 16 0 35 71 50 0 24 129 221 0 63 69 48 0 22 76 55 0 22 129 221 0 63 71 50 0 24 268 265 0 36 89 265 0 36 267 205 0 117 119 266 0 32 89 265 0 36 268 265 0 36 234 104 0 60 17 267 0 8 16 267 0 8 126 104 0 60 17 267 0 8 234 104 0 60 118 104 0 34 253 104 0 35 120 104 0 35 86 104 0 34 253 104 0 35 118 104 0 34 134 213 0 30 86 213 0 33 118 213 0 33 85 213 0 30 86 213 0 33 134 213 0 30 132 34 0 28 85 34 0 30 134 34 0 30 320 34 0 28 85 34 0 30 132 34 0 28 130 268 0 26 320 268 0 28 132 268 0 28 319 268 0 26 320 268 0 28 130 268 0 26 131 34 0 27 319 34 0 26 130 34 0 26 321 34 0 27 319 34 0 26 131 34 0 27 133 269 0 29 321 269 0 27 131 269 0 27 322 269 0 29 321 269 0 27 133 269 0 29 135 104 0 31 322 270 0 29 133 270 0 29 83 104 0 31 322 270 0 29 135 104 0 31 263 19 0 97 327 19 0 116 244 19 0 71 330 19 0 120 327 19 0 116 263 19 0 97 244 271 0 71 223 271 0 98 263 271 0 97 316 271 0 71 223 271 0 98 244 271 0 71 206 117 0 12 331 272 0 13 204 23 0 11 233 27 0 14 331 272 0 13 206 117 0 12 326 260 1 54 175 274 0 81 332 273 1 119 327 261 0 53 175 274 0 81 326 260 1 54 234 151 0 60 76 89 0 22 77 275 0 8 235 153 0 61 76 89 0 22 234 151 0 60 205 276 0 10 18 276 0 9 19 276 0 10 203 276 0 9 18 276 0 9 205 276 0 10 335 277 0 149 334 277 0 150 333 277 0 149 336 277 0 150 334 277 0 150 335 277 0 149 338 276 0 151 333 276 0 149 337 276 0 151 335 276 0 149 333 276 0 149 338 276 0 151 336 87 0 150 337 87 0 151 334 87 0 150 338 87 0 151 337 87 0 151 336 87 0 150 203 278 0 9 20 250 0 11 18 278 0 9 204 250 0 11 20 250 0 11 203 278 0 9 204 250 0 11 22 110 0 13 20 250 0 11 331 110 0 13 22 110 0 13 204 250 0 11 341 277 0 149 340 277 0 150 339 277 0 149 342 277 0 150 340 277 0 150 341 277 0 149 344 276 0 151 339 276 0 149 343 276 0 151 341 276 0 149 339 276 0 149 344 276 0 151 342 87 0 150 343 87 0 151 340 87 0 150 344 87 0 151 343 87 0 151 342 87 0 150 331 110 0 13 24 162 0 15 22 110 0 13 345 162 0 15 24 162 0 15 331 110 0 13 345 162 0 15 297 222 0 20 24 162 0 15 296 222 0 20 297 222 0 20 345 162 0 15 338 277 0 149 346 277 0 150 337 277 0 149 347 277 0 150 346 277 0 150 338 277 0 149 349 276 0 151 337 276 0 149 348 276 0 151 338 276 0 149 337 276 0 149 349 276 0 151 347 87 0 150 348 87 0 151 346 87 0 150 349 87 0 151 348 87 0 151 347 87 0 150 230 168 1 101 326 279 1 100 332 110 1 99 115 170 1 102 326 279 1 100 230 168 1 101 136 24 0 154 140 24 0 153 138 24 0 152 350 24 0 155 140 24 0 153 136 24 0 154 141 8 0 153 137 8 0 154 139 8 0 152 142 8 0 155 137 8 0 154 141 8 0 153 353 93 0 65 352 94 0 66 351 93 0 64 275 94 0 67 352 94 0 66 353 93 0 65 273 8 0 153 351 8 0 154 352 8 0 152 271 8 0 155 351 8 0 154 273 8 0 153 296 246 0 20 29 17 0 17 269 246 0 21 345 280 0 15 29 17 0 17 296 246 0 20 353 24 0 154 274 24 0 153 275 24 0 152 272 24 0 155 274 24 0 153 353 24 0 154 356 97 0 65 355 98 0 66 354 97 0 64 280 98 0 67 355 98 0 66 356 97 0 65 278 24 0 153 354 24 0 154 355 24 0 152 276 24 0 155 354 24 0 154 278 24 0 153 119 25 0 32 282 26 0 35 310 241 0 34 268 193 0 36 282 26 0 35 119 25 0 32 356 8 0 154 279 8 0 153 280 8 0 152 277 8 0 155 279 8 0 153 356 8 0 154 226 57 0 12 56 60 0 13 55 9 0 11 212 12 0 14 56 60 0 13 226 57 0 12 143 8 0 154 147 8 0 153 145 8 0 152 357 8 0 155 147 8 0 153 143 8 0 154 148 24 0 153 144 24 0 154 146 24 0 152 149 24 0 155 144 24 0 154 148 24 0 153 265 281 0 73 241 281 0 73 323 281 0 74 264 243 0 72 241 281 0 73 265 281 0 73 217 30 0 42 213 30 0 43 200 129 0 41 218 68 0 41 213 30 0 43 217 30 0 42 212 12 0 14 57 257 0 15 56 60 0 13 245 14 0 16 57 257 0 15 212 12 0 14 216 65 0 44 94 65 0 41 202 8 0 45 96 66 0 43 94 65 0 41 216 65 0 44 245 14 0 16 53 15 0 17 57 257 0 15 51 30 0 18 53 15 0 17 245 14 0 16 218 68 0 41 101 68 0 44 213 30 0 43 99 24 0 45 101 68 0 44 218 68 0 41 222 271 0 98 316 271 0 71 317 271 0 97 223 271 0 98 316 271 0 71 222 271 0 98 233 27 0 14 345 280 0 15 331 272 0 13 281 29 0 16 345 280 0 15 233 27 0 14 281 29 0 16 29 17 0 17 345 280 0 15 27 16 0 18 29 17 0 17 281 29 0 16 297 256 0 20 26 15 0 17 24 13 0 15 270 256 0 21 26 15 0 17 297 256 0 20 291 282 0 16 232 282 0 16 292 234 0 18 23 283 0 14 232 282 0 16 291 282 0 16 288 284 0 16 211 284 0 16 285 20 0 18 47 285 0 14 211 284 0 16 288 284 0 16 43 24 0 10 306 118 0 11 304 286 0 9 45 25 0 12 306 118 0 11 43 24 0 10 45 25 0 12 307 188 0 13 306 118 0 11 47 149 0 14 307 188 0 13 45 25 0 12 240 67 0 112 106 67 0 111 104 66 0 113 220 24 0 110 106 67 0 111 240 67 0 112 358 30 0 48 192 30 0 49 193 129 0 47 359 68 0 47 192 30 0 49 358 30 0 48 308 145 0 20 258 146 0 17 259 145 0 21 287 206 0 15 258 146 0 17 308 145 0 20 197 65 0 50 102 65 0 47 195 8 0 51 104 66 0 49 102 65 0 47 197 65 0 50 47 149 0 14 287 206 0 15 307 188 0 13 288 148 0 16 287 206 0 15 47 149 0 14 359 68 0 47 109 68 0 50 192 30 0 49 107 24 0 51 109 68 0 50 359 68 0 47 284 287 0 38 266 287 0 118 91 287 0 38 261 187 0 116 302 288 0 120 260 186 0 121 327 261 0 116 330 289 0 120 175 274 0 121 174 115 0 116 175 116 0 121 262 288 0 120 230 141 1 101 332 19 1 99 173 143 1 100 123 290 0 38 255 290 0 38 256 290 0 118 110 69 0 116 260 255 0 121 318 289 0 120 31 286 0 9 33 118 0 11 205 24 0 10 305 210 0 9 227 138 0 11 225 8 0 10 324 291 0 1 72 51 0 0 293 218 0 2 2 292 0 1 0 41 0 0 4 220 0 2 335 8 0 149 338 8 0 151 336 8 0 150 334 24 0 150 337 24 0 151 333 24 0 149 341 8 0 149 344 8 0 151 342 8 0 150 340 24 0 150 343 24 0 151 339 24 0 149 338 8 0 149 349 8 0 151 347 8 0 150 346 24 0 150 348 24 0 151 337 24 0 149 60 101 0 21 53 245 0 17 61 101 0 21 300 104 2 77 163 104 2 78 161 104 2 79 185 87 2 79 190 87 2 77 187 87 2 78 40 209 0 21 290 208 0 17 41 209 0 21 212 293 0 14 211 284 0 16 47 285 0 14 87 59 0 33 84 57 0 32 82 8 0 30 168 142 1 102 166 294 1 103 164 140 1 100 119 266 0 32 84 266 0 32 89 265 0 36 233 295 0 14 232 282 0 16 23 283 0 14 289 213 0 19 290 133 0 17 292 213 0 18 332 296 1 119 175 116 0 81 173 114 1 54 68 297 0 8 69 86 0 22 126 84 0 60 118 76 0 33 119 25 0 32 134 24 0 30 327 161 0 116 242 159 0 84 244 161 0 71 330 188 0 120 263 188 0 97 175 25 0 121 115 170 1 102 325 298 1 103 326 279 1 100 123 80 0 38 256 66 0 118 121 78 0 36 140 95 0 68 350 96 0 122 142 96 0 70 273 95 0 68 352 94 0 66 275 94 0 67 278 99 0 68 355 98 0 66 280 98 0 67 147 99 0 68 357 100 0 122 149 100 0 70 264 243 0 72 243 243 0 72 241 281 0 73</p>
				</triangles>
			</mesh>
		</geometry>
	</library_geometries>
	<library_controllers>
		<controller id="polygon0_Controller">
			<skin source="#polygon0">
				<bind_shape_matrix>1 0 0 0 0 1 0 0 0 0 1 0 0 0 0 1</bind_shape_matrix>
				<source id="polygon0_Joints">
					<Name_array id="polygon0_JointArr" count="1">EquipPodMaster</Name_array>
					<technique_common>
						<accessor source="#polygon0_JointArr" count="1">
							<param name="JOINT" type="Name" />
						</accessor>
					</technique_common>
				</source>
				<source id="polygon0_Matrices">
					<float_array id="polygon0_MatArr" count="16">1 0 0 0 0 1 0 0 0 0 1 0 0 0 0 1</float_array>
					<technique_common>
						<accessor source="#polygon0_MatArr" count="1" stride="16">
							<param type="float4x4" />
						</accessor>
					</technique_common>
				</source>
				<source id="polygon0_Weights">
					<float_array id="polygon0_WeightArr" count="1">1</float_array>
					<technique_common>
						<accessor source="#polygon0_WeightArr" count="1">
							<param type="float" />
						</accessor>
					</technique_common>
				</source>
				<joints>
					<input semantic="JOINT" source="#polygon0_Joints" />
					<input semantic="INV_BIND_MATRIX" source="#polygon0_Matrices" />
				</joints>
				<vertex_weights count="360">
					<input semantic="JOINT" offset="0" source="#polygon0_Joints" />
					<input semantic="WEIGHT" offset="1" source="#polygon0_Weights" />
					<vcount>1 1 1 1 1 1 1 1 1 1 1 1 1 1 1 1 1 1 1 1 1 1 1 1 1 1 1 1 1 1 1 1 1 1 1 1 1 1 1 1 1 1 1 1 1 1 1 1 1 1 1 1 1 1 1 1 1 1 1 1 1 1 1 1 1 1 1 1 1 1 1 1 1 1 1 1 1 1 1 1 1 1 1 1 1 1 1 1 1 1 1 1 1 1 1 1 1 1 1 1 1 1 1 1 1 1 1 1 1 1 1 1 1 1 1 1 1 1 1 1 1 1 1 1 1 1 1 1 1 1 1 1 1 1 1 1 1 1 1 1 1 1 1 1 1 1 1 1 1 1 1 1 1 1 1 1 1 1 1 1 1 1 1 1 1 1 1 1 1 1 1 1 1 1 1 1 1 1 1 1 1 1 1 1 1 1 1 1 1 1 1 1 1 1 1 1 1 1 1 1 1 1 1 1 1 1 1 1 1 1 1 1 1 1 1 1 1 1 1 1 1 1 1 1 1 1 1 1 1 1 1 1 1 1 1 1 1 1 1 1 1 1 1 1 1 1 1 1 1 1 1 1 1 1 1 1 1 1 1 1 1 1 1 1 1 1 1 1 1 1 1 1 1 1 1 1 1 1 1 1 1 1 1 1 1 1 1 1 1 1 1 1 1 1 1 1 1 1 1 1 1 1 1 1 1 1 1 1 1 1 1 1 1 1 1 1 1 1 1 1 1 1 1 1 1 1 1 1 1 1 1 1 1 1 1 1 1 1 1 1 1 1 1 1 1 1 1 1 1 1 1 1 1 1 1 1 1 1 1 1</vcount>
					<v>0 0 0 0 0 0 0 0 0 0 0 0 0 0 0 0 0 0 0 0 0 0 0 0 0 0 0 0 0 0 0 0 0 0 0 0 0 0 0 0 0 0 0 0 0 0 0 0 0 0 0 0 0 0 0 0 0 0 0 0 0 0 0 0 0 0 0 0 0 0 0 0 0 0 0 0 0 0 0 0 0 0 0 0 0 0 0 0 0 0 0 0 0 0 0 0 0 0 0 0 0 0 0 0 0 0 0 0 0 0 0 0 0 0 0 0 0 0 0 0 0 0 0 0 0 0 0 0 0 0 0 0 0 0 0 0 0 0 0 0 0 0 0 0 0 0 0 0 0 0 0 0 0 0 0 0 0 0 0 0 0 0 0 0 0 0 0 0 0 0 0 0 0 0 0 0 0 0 0 0 0 0 0 0 0 0 0 0 0 0 0 0 0 0 0 0 0 0 0 0 0 0 0 0 0 0 0 0 0 0 0 0 0 0 0 0 0 0 0 0 0 0 0 0 0 0 0 0 0 0 0 0 0 0 0 0 0 0 0 0 0 0 0 0 0 0 0 0 0 0 0 0 0 0 0 0 0 0 0 0 0 0 0 0 0 0 0 0 0 0 0 0 0 0 0 0 0 0 0 0 0 0 0 0 0 0 0 0 0 0 0 0 0 0 0 0 0 0 0 0 0 0 0 0 0 0 0 0 0 0 0 0 0 0 0 0 0 0 0 0 0 0 0 0 0 0 0 0 0 0 0 0 0 0 0 0 0 0 0 0 0 0 0 0 0 0 0 0 0 0 0 0 0 0 0 0 0 0 0 0 0 0 0 0 0 0 0 0 0 0 0 0 0 0 0 0 0 0 0 0 0 0 0 0 0 0 0 0 0 0 0 0 0 0 0 0 0 0 0 0 0 0 0 0 0 0 0 0 0 0 0 0 0 0 0 0 0 0 0 0 0 0 0 0 0 0 0 0 0 0 0 0 0 0 0 0 0 0 0 0 0 0 0 0 0 0 0 0 0 0 0 0 0 0 0 0 0 0 0 0 0 0 0 0 0 0 0 0 0 0 0 0 0 0 0 0 0 0 0 0 0 0 0 0 0 0 0 0 0 0 0 0 0 0 0 0 0 0 0 0 0 0 0 0 0 0 0 0 0 0 0 0 0 0 0 0 0 0 0 0 0 0 0 0 0 0 0 0 0 0 0 0 0 0 0 0 0 0 0 0 0 0 0 0 0 0 0 0 0 0 0 0 0 0 0 0 0 0 0 0 0 0 0 0 0 0 0 0 0 0 0 0 0 0 0 0 0 0 0 0 0 0 0 0 0 0 0 0 0 0 0 0 0 0 0 0 0 0 0 0 0 0 0 0 0 0 0 0 0 0 0 0 0 0 0 0 0 0 0 0 0 0 0 0 0 0 0 0 0 0 0 0 0 0 0 0 0 0 0 0 0 0 0 0 0 0 0 0 0 0 0 0 0 0 0 0 0 0 0 0 0 0 0 0 0 0 0 0 0 0 0 0 0 0 0 0 0 0 0 0 0 0 0 0 0 0 0 0 0 0 0 0 0 0 0 0 0 0 0 0 0 0 0 0 0 0 0 0 0 0 0 0 0 0 0 0 0 0 0 0</v>
				</vertex_weights>
			</skin>
		</controller>
	</library_controllers>
	<library_visual_scenes>
		<visual_scene id="RootNode" name="RootNode">
			<node id="EquipPodMaster" name="EquipPodMaster" sid="EquipPodMaster" type="JOINT" />
			<node id="polygon0" name="polygon0" type="NODE">
				<instance_controller url="#polygon0_Controller">
					<skeleton>#EquipPodMaster</skeleton>
					<bind_material>
						<technique_common>
							<instance_material symbol="m_PodMaster" target="#m_PodMaster">
								<bind_vertex_input semantic="TEXCOORD0" input_semantic="TEXCOORD" input_set="0" />
								<bind_vertex_input semantic="TEXCOORD0" input_semantic="TEXCOORD" input_set="0" />
								<bind_vertex_input semantic="TEXCOORD0" input_semantic="TEXCOORD" input_set="0" />
							</instance_material>
						</technique_common>
					</bind_material>
				</instance_controller>
			</node>
		</visual_scene>
	</library_visual_scenes>
	<scene>
		<instance_visual_scene url="#RootNode" />
	</scene>
</COLLADA>