<?xml version="1.0" encoding="utf-8"?>
<COLLADA version="1.5.0" xmlns="http://www.collada.org/2008/03/COLLADASchema">
	<asset>
		<contributor>
			<authoring_tool>BrawlCrate</authoring_tool>
		</contributor>
		<created>2026-05-05T19:42:46Z</created>
		<modified>2026-05-05T19:42:46Z</modified>
		<unit meter="0.01" name="centimeter" />
		<up_axis>Y_UP</up_axis>
	</asset>
	<library_images>
		<image id="BirdLOD_Body.0-image" name="BirdLOD_Body.0">
			<init_from>
				<ref>BirdLOD_Body.0.png</ref>
			</init_from>
		</image>
		<image id="LmChaAdd-image" name="LmChaAdd">
			<init_from>
				<ref>LmChaAdd.png</ref>
			</init_from>
		</image>
		<image id="LmChaSkin-image" name="LmChaSkin">
			<init_from>
				<ref>LmChaSkin.png</ref>
			</init_from>
		</image>
	</library_images>
	<library_materials>
		<material id="m_body">
			<instance_effect url="#m_body-fx" />
		</material>
	</library_materials>
	<library_effects>
		<effect id="m_body-fx" name="m_body">
			<profile_COMMON>
				<newparam sid="BirdLOD_Body.0-surface">
					<surface type="2D">
						<init_from>
							<ref>BirdLOD_Body.0-image</ref>
						</init_from>
					</surface>
				</newparam>
				<newparam sid="BirdLOD_Body.0-sampler">
					<sampler2D>
						<source>BirdLOD_Body.0-surface</source>
						<instance_image url="#BirdLOD_Body.0-image" />
						<wrap_s>MIRROR</wrap_s>
						<wrap_t>MIRROR</wrap_t>
						<minfilter>LINEAR</minfilter>
						<magfilter>LINEAR</magfilter>
					</sampler2D>
				</newparam>
				<newparam sid="LmChaSkin-surface">
					<surface type="2D">
						<init_from>
							<ref>LmChaSkin-image</ref>
						</init_from>
					</surface>
				</newparam>
				<newparam sid="LmChaSkin-sampler">
					<sampler2D>
						<source>LmChaSkin-surface</source>
						<instance_image url="#LmChaSkin-image" />
						<wrap_s>CLAMP</wrap_s>
						<wrap_t>CLAMP</wrap_t>
						<minfilter>LINEAR</minfilter>
						<magfilter>LINEAR</magfilter>
					</sampler2D>
				</newparam>
				<newparam sid="LmChaAdd-surface">
					<surface type="2D">
						<init_from>
							<ref>LmChaAdd-image</ref>
						</init_from>
					</surface>
				</newparam>
				<newparam sid="LmChaAdd-sampler">
					<sampler2D>
						<source>LmChaAdd-surface</source>
						<instance_image url="#LmChaAdd-image" />
						<wrap_s>CLAMP</wrap_s>
						<wrap_t>CLAMP</wrap_t>
						<minfilter>LINEAR</minfilter>
						<magfilter>LINEAR</magfilter>
					</sampler2D>
				</newparam>
				<technique sid="COMMON">
					<phong>
						<diffuse>
							<texture texture="BirdLOD_Body.0-sampler" texcoord="TEXCOORD0" />
						</diffuse>
					</phong>
				</technique>
			</profile_COMMON>
		</effect>
	</library_effects>
	<library_geometries>
		<geometry id="polygon0" name="polygon0">
			<mesh>
				<source id="polygon0_Positions">
					<float_array id="polygon0_PosArr" count="1044">17.04479 12.41159 97.55496 15.11153 14.77027 96.85745 19.22398 9.832258 93.07986 18.28577 11.01319 90.33896 19.84845 4.261053 93.0836 19.19539 2.898094 90.34441 18.29374 1.269173 97.56241 16.93079 -1.459916 96.86832 16.11457 3.848501 102.0375 13.75654 2.297169 103.3868 15.49008 9.419707 102.0338 12.84692 10.41226 103.3814 -19.22398 9.832258 93.07986 -15.11153 14.77027 96.85745 -17.04479 12.41159 97.55496 -12.84692 10.41226 103.3814 -15.49008 9.419707 102.0338 -13.75654 2.297169 103.3868 -16.11457 3.848501 102.0375 -16.93079 -1.459916 96.86832 -18.29374 1.269173 97.56241 -19.19539 2.898094 90.34441 -19.84845 4.261053 93.0836 -18.28577 11.01319 90.33896 -20.35073 -15.93692 -57.36908 -16.70798 -29.72641 -56.79039 -10.67578 -35.79665 -88.984 -9.256308 -25.89486 -97.7171 -16.33831 -72.97052 -151.8458 -12.04768 -65.67859 -154.2163 -9.416603 -74.83103 -158.8572 -14.96657 -71.69284 -160.8811 -23.1116 -100.0994 -173.0671 -19.05356 -104.6234 -168.2343 -12.53283 -101.162 -174.3261 19.86406 20.7952 48.17577 0 37.46428 54.50268 13.71382 31.7377 33.35697 0 42.78423 20.6665 0 24.66747 29.21568 -13.71382 31.7377 33.35697 -19.86406 20.7952 48.17577 0 10.17261 94.72404 0 14.05766 43.63543 -36.40359 -94.95755 -176.2422 -23.11229 -68.8067 -153.6786 -33.67532 -102.4552 -171.6634 -26.23253 -99.79622 -176.97 -21.50984 -67.0951 -162.5813 -18.58972 -61.79489 -155.4919 -26.05776 -63.03422 -162.4013 -43.46449 -84.43141 -172.0975 -37.59617 -88.23666 -176.641 -188.9598 37.12947 0.584438 -157.482 18.99617 -16.52062 -149.4578 28.85374 10.07766 -135.8819 24.55684 8.815722 -146.0566 25.7157 26.60306 -133.0031 20.29964 25.71286 -147.3811 11.04171 26.67582 -133.9894 4.79261 25.19032 -157.482 6.770576 -16.52062 -147.7724 7.190145 -24.30456 -147.7724 22.16149 -24.30456 -40.59629 5.673347 -33.1629 16.33831 -72.97052 -151.8458 10.67578 -35.79665 -88.984 23.11229 -68.8067 -153.6786 17.47265 -26.10515 -95.77744 18.58972 -61.79489 -155.4919 9.256308 -25.89486 -97.7171 12.04768 -65.67859 -154.2163 9.416603 -74.83103 -158.8572 19.05356 -104.6234 -168.2343 12.53283 -101.162 -174.3261 -16.24578 -25.96567 -218.4477 0 -15.28065 -174.0649 -13.28887 -31.84775 -183.2441 -10.59363 -21.94455 -120.3627 0 -45.38665 -184.4779 0 -27.66201 -120 10.59363 -21.94455 -120.3627 0 -10.41886 -37.52411 0 -11.93566 -120 0 -35.10522 -254.893 16.24578 -25.96567 -218.4477 17.27799 -16.6637 -248.7419 0.159136 8.183992 -244.1793 0 2.687338 -311.6781 -17.27799 -16.6637 -248.7419 188.9598 37.12947 0.584438 217.4145 59.91236 22.804 149.4578 28.85374 10.07766 146.0566 25.7157 26.60306 135.8819 24.55684 8.815722 133.0031 20.29964 25.71286 33.24844 4.66798 23.04227 42.7342 -18.35719 20.73386 23.30082 -22.3122 23.7063 33.67532 -102.4552 -171.6634 36.40359 -94.95755 -176.2422 21.50984 -67.0951 -162.5813 26.23253 -99.79622 -176.97 14.96657 -71.69284 -160.8811 23.1116 -100.0994 -173.0671 -21.16862 7.615726 -27.42505 -27.15778 -14.30838 -17.23402 -44.27636 -14.94481 -28.90844 -23.30082 -22.3122 23.7063 -42.7342 -18.35719 20.73386 -33.24844 4.66798 23.04227 -23.11288 4.845371 28.94856 -14.0498 18.03678 18.93064 0 7.682652 41.63683 0 21.0191 5.119976 14.0498 18.03678 18.93064 21.16862 7.615726 -27.42505 -17.47265 -26.10515 -95.77744 -9.605249 -17.21554 -55.87997 -24.05301 5.691503 78.28467 0 29.49977 73.04628 -15.20884 21.63483 90.04233 0 27.91142 101.8 0 7.684002 117.6459 15.20884 21.63483 90.04233 12.61672 -5.556225 107.2782 24.05301 5.691503 78.28467 26.05776 -63.03422 -162.4013 43.46449 -84.43141 -172.0975 37.59617 -88.23666 -176.641 0 -6.891345 -97.10443 -21.07434 -0.03990746 -79.923 -23.78591 -14.83557 -79.44585 -70.08927 -2.609342 -76.66003 -52.91267 -1.925303 -64.20724 -28.54431 -6.51837 -57.24297 23.78591 -14.83557 -79.44585 21.07434 -0.03990746 -79.923 70.08927 -2.609342 -76.66003 52.91267 -1.925303 -64.20724 28.54431 -6.51837 -57.24297 -41.69627 -79.27016 -180.6426 -16.91468 -5.80832 77.00363 -21.84072 12.06745 44.87034 -17.07469 3.335715 54.02497 -25.54669 6.021576 56.177 44.27636 -14.94481 -28.90844 133.9894 4.79261 25.19032 147.7724 7.190145 -24.30456 157.482 6.770576 -16.52062 0 -42.33522 -27.25723 8.942528 -39.87297 44.6058 0 -45.443 31.76711 0 -56.6413 58.85524 -8.942528 -39.87297 44.6058 157.482 16.45795 -16.52063 147.7724 22.16149 -24.30456 40.59629 5.673347 -33.1629 17.26123 -30.54101 102.1079 15.803 -34.97911 138.1517 0 -28.80594 159.0802 -12.61672 -5.556225 107.2782 13.28887 -31.84775 -183.2441 -17.15047 -6.102929 76.51166 -40.70968 20.10742 68.92268 -34.29063 9.696664 68.41652 -35.80305 11.85645 76.25964 38.80588 24.36979 47.042 16.85952 -6.173962 76.82103 30.30746 11.08698 52.74209 37.48488 15.02999 60.67616 21.84072 12.06745 44.87034 16.91468 -5.80832 77.00363 17.07469 3.335715 54.02497 25.54669 6.021576 56.177 40.70968 20.10742 68.92268 17.15047 -6.102929 76.51166 34.29063 9.696664 68.41652 35.80305 11.85645 76.25964 147.3811 11.04171 26.67582 0 11.39468 -46.97385 -19.82996 -27.89624 -61.03767 0 -28.39319 59.75454 -18.11362 -32.16235 75.59161 0 -35.86001 101.2599 -17.26123 -30.54101 102.1079 -27.56341 -17.07916 92.0461 -16.85952 -6.173962 76.82103 -38.80588 24.36979 47.042 -30.30746 11.08698 52.74209 -37.48488 15.02999 60.67616 -217.4145 59.91236 22.80401 -215.132 54.35331 22.80401 -188.9598 26.87918 0.584438 27.15778 -14.30838 -17.23402 19.82996 -27.89624 -61.03767 18.09577 -13.08416 67.37621 0 -3.791208 51.22924 0 15.85558 55.60547 -17.94395 -106.6416 -183.0068 7.410754 -40.36366 150.6766 0 -36.32907 166.4771 -7.410754 -40.36366 150.6766 18.11362 -32.16235 75.59161 27.56341 -17.07916 92.0461 -1E-06 -24.8187 -89.88636 23.11288 4.845371 28.94856 -18.29602 6.910808 97.8233 0 -43.32211 132.4301 18.29602 6.910808 97.8233 16.70798 -29.72641 -56.79039 20.35073 -15.93692 -57.36908 33.25497 -102.4006 -189.951 41.69627 -79.27016 -180.6426 41.77188 -88.81393 -190.4337 17.94395 -106.6416 -183.0068 -33.25497 -102.4006 -189.951 -41.77188 -88.81393 -190.4337 215.132 54.35331 22.804 -82.28222 6.363903 9.301132 -85.75423 -4.614982 -63.13461 -102.7311 10.72838 11.62626 -107.4099 -0.7388721 -63.87125 82.28222 6.363903 9.301132 102.7311 10.72838 11.62626 85.75423 -4.614982 -63.13461 107.4099 -0.7388721 -63.87125 81.1666 9.817513 8.103817 101.222 14.07792 10.09966 -81.1666 9.817513 8.103817 -101.222 14.07792 10.09967 -121.343 18.73668 12.94975 -130.9027 4.153796 -64.18129 0 -22.11896 61.31789 -18.09577 -13.08416 67.37621 -15.803 -34.97911 138.1517 0.022915 -10.18227 -48.02582 12.18669 -10.18225 -92.63576 0.223882 -11.53368 -98.674 14.3745 -10.19632 -106.3767 188.9598 26.87918 0.584438 247.4503 66.5838 -5.773354 144.9184 13.52614 8.812421 245.9049 73.43633 20.53396 144.6629 25.1992 22.2872 300.6589 112.1289 -14.1671 294.3143 125.5658 21.57053 151.5311 15.05886 13.90893 202.2189 30.46571 -45.48697 148.367 15.77606 16.272 181.0829 16.90899 -50.19723 156.5865 18.32952 16.19596 243.3035 63.43084 -10.18997 154.4187 16.70364 14.42181 234.9024 52.03907 -32.35184 230.6392 48.92016 -35.82931 214.3892 35.95026 -46.99802 162.7135 4.409692 -71.17062 153.5401 5.152302 -50.3861 191.2122 20.47235 -72.3333 175.4744 16.94842 -52.25966 -50.28115 -4.415578 -86.27286 -31.17866 -7.819395 -89.87194 -58.80785 -4.314949 -99.80524 -38.4312 -7.883733 -102.9821 -66.87936 -0.8275528 -76.41824 -85.61187 0.8409061 -90.70309 -63.9414 -3.21102 -96.81921 -13.3288 -11.94799 -103.178 -12.28183 -10.78732 -89.72263 -32.82944 -8.866193 -103.7169 -51.54735 -2.246001 -66.61289 -12.69471 -9.776898 -60.06984 -148.367 15.77606 16.272 -133.9483 11.27965 16.53211 -175.4744 16.94842 -52.25966 -153.5401 14.48618 -50.3861 -191.2122 20.47235 -72.3333 -162.7135 4.409692 -71.17062 -202.2189 30.46571 -45.48697 -233.2343 41.39036 -68.63071 -181.0829 16.90899 -50.19723 -207.6432 21.79625 -80.03948 -230.6392 48.92016 -35.8293 -281.4933 73.93227 -62.10967 -214.3892 35.95026 -46.99802 -263.9046 54.51341 -82.14767 -243.3035 63.43084 -10.18997 -301.5883 102.3926 -26.69741 -234.9024 52.03907 -32.35185 -297.4878 86.95279 -56.5918 -247.4503 66.5838 -5.773354 -245.9049 73.43633 20.53396 -144.9184 22.86003 8.812422 -144.6629 15.86532 22.2872 -151.5311 15.05886 13.90893 -154.4187 16.70364 14.42181 -156.5865 18.32952 16.19596 50.28115 -4.415578 -86.27286 12.69471 -9.776897 -60.06984 66.87936 -0.8275528 -76.41824 51.54735 -2.246001 -66.61289 12.28183 -10.78732 -89.72263 31.17866 -7.819395 -89.87194 13.3288 -11.94799 -103.178 32.82944 -8.866193 -103.7169 58.80785 -4.314949 -99.80524 38.4312 -7.883733 -102.9821 85.61187 0.8409061 -90.70309 63.9414 -3.21102 -96.81921 9.605249 -17.21554 -55.87997 -294.3143 125.5658 21.57053 -300.6589 112.1289 -14.1671 138.0065 12.11604 16.53211 301.5883 102.3926 -26.69741 297.4878 86.95278 -56.5918 281.4933 73.93227 -62.10967 263.9046 54.51341 -82.14767 233.2343 41.39036 -68.63071 207.6432 21.79625 -80.03948 -63.37727 -6.112086 -59.72381 -64.53777 5.965219 9.314169 -65.25993 2.407532 10.18222 -42.86119 -6.377087 -55.32867 -47.63267 -0.3830321 12.06622 -123.2951 6.198393 14.43038 -155.1978 9.302999 -62.97129 -132.8072 12.28113 16.28289 63.37727 -6.112086 -59.72381 64.53777 5.965219 9.314169 65.25993 2.407532 10.18222 42.86119 -6.377087 -55.32867 47.63267 0.341831 12.06622 123.2951 6.198393 14.43038 130.9027 4.153796 -64.18129 155.1978 -0.03088307 -62.97129 132.7725 12.28113 16.28289 47.12716 3.91577 11.27043 121.343 9.402791 12.94975 -47.12716 3.190908 11.27043 23.31689 -5.731804 -49.56663 24.58902 -2.424964 14.45292 -23.31689 -5.731804 -49.56663 -24.58902 -2.424964 14.45292 -12.50986 -10.18225 -92.73612 0.223882 -7.89665 -98.80121 0.269389 -10.19725 -109.9503 -14.3745 -10.19632 -106.3767</float_array>
					<technique_common>
						<accessor source="#polygon0_PosArr" count="348" stride="3">
							<param name="X" type="float" />
							<param name="Y" type="float" />
							<param name="Z" type="float" />
						</accessor>
					</technique_common>
				</source>
				<source id="polygon0_Normals">
					<float_array id="polygon0_NormArr" count="948">0.7138672 0.5823364 0.3889771 0.5952759 0.7388916 0.3157959 0.888855 0.4225464 0.1773071 0.8752441 0.4832153 -0.02282715 0.9655151 0.1190186 0.2314453 0.9979858 -0.002502441 0.06378174 0.8673096 -0.0246582 0.4971924 0.8407593 -0.2324219 0.4890137 0.6923218 0.1351318 0.7088013 0.560791 0.02325439 0.8276367 0.6156006 0.4385986 0.6546631 0.4380493 0.5089111 0.7410278 -0.888855 0.4225464 0.1773071 -0.5952759 0.7388916 0.3157959 -0.7138672 0.5823364 0.3889771 -0.4380493 0.5089111 0.7410278 -0.6156006 0.4385986 0.6546631 -0.560791 0.02325439 0.8276367 -0.6923218 0.1351318 0.7088013 -0.8407593 -0.2324219 0.4890137 -0.8673096 -0.0246582 0.4971924 -0.9979858 -0.002502441 0.06378174 -0.9655151 0.1190186 0.2314453 -0.8752441 0.4832153 -0.02282715 -0.4724731 0.84021 -0.2661133 0.04040527 -0.9851074 0.1671753 -0.1834717 -0.876709 0.4445801 0.5918579 0.7406616 -0.3179932 0.2162476 -0.5872192 0.7799683 0.8844604 0.3646851 -0.2910156 0.9796143 0.1654053 -0.1140747 0.3641968 0.4470825 -0.8170166 -0.8876343 0.2734985 -0.3705444 -0.1459961 -0.831604 0.5358276 0.9055786 0.02752686 -0.4232788 0.9904175 -0.1383057 0.0008544922 0 0.9381104 0.3463745 0.8791504 0.1972656 -0.4337769 0 0.546814 -0.8372803 0 -0.6036987 -0.7972412 -0.8791504 0.1972656 -0.4337769 -0.9904175 -0.1383057 0.0008544922 0 -0.6688232 0.7434082 0 -0.925293 -0.3791504 -0.7879028 0.5210571 -0.328186 -0.8043823 -0.1379395 0.5778809 -0.4084473 -0.7134399 0.569397 0.9164429 -0.3005981 -0.2642212 0.4638672 0.4013062 -0.7897949 -0.02001953 0.87677 -0.4805298 -0.4328613 0.8991089 -0.06451416 -0.8944702 -0.1657715 0.4152832 0.7154541 -0.6928711 -0.08947754 -0.1795044 0.49823 -0.8482666 -0.418335 -0.2612305 -0.8699341 0.1826172 0.9343872 -0.3059692 0.1654663 0.9862061 0.006958008 0.1218262 0.4296265 0.8947754 0.1665649 0.4527588 0.8759155 -0.2769165 -0.7669678 0.5787964 -0.1119995 -0.6949463 0.7102661 -0.2128296 -0.6051025 -0.7672119 -0.3200684 0.4749146 -0.8197632 -0.2162476 -0.5872192 0.7799683 0.1834717 -0.876709 0.4445801 0.8043823 -0.1379395 0.5778809 0.8624268 0.4589233 -0.213501 0.02001953 0.87677 -0.4805298 -0.5918579 0.7406616 -0.3179932 -0.8844604 0.3646851 -0.2910156 -0.9796143 0.1654053 -0.1140747 0.1459961 -0.831604 0.5358276 -0.9055786 0.02752686 -0.4232788 -0.9903564 -0.1117554 0.08154297 0.0007324219 0.9884033 0.1519165 -0.977417 0.1905518 0.09112549 -0.9859009 -0.1413574 0.08953857 0.1817017 -0.9833374 0.007202148 -0.009094238 -0.9799194 0.1992798 0.982666 -0.1473999 0.1122437 0 -0.7935791 0.6084595 0 0.9989624 -0.04602051 0 -0.9478149 -0.3188477 0.9940796 -0.1000366 0.04217529 0.9912109 -0.03204346 -0.1281738 0.003601074 0.9812012 0.1928711 0.005371094 0.02862549 -0.9995728 -0.9915161 -0.02783203 -0.1269531 0.1795044 0.49823 -0.8482666 0.08374023 0.557251 0.8261108 -0.1826172 0.9343872 -0.3059692 -0.1218262 0.4296265 0.8947754 -0.1442871 0.989502 0.006286621 -0.1665649 0.4527588 0.8759155 0.1309814 0.7477417 0.651001 0.1446533 -0.5857544 0.7974854 0.6907349 -0.6431885 0.3303833 0.4084473 -0.7134399 0.569397 0.7879028 0.5210571 -0.328186 -0.4638672 0.4013062 -0.7897949 -0.9164429 -0.3005981 -0.2642212 -0.3641968 0.4470825 -0.8170166 0.8876343 0.2734985 -0.3705444 -0.6279907 0.6768188 -0.3840942 -0.7460327 -0.6398315 -0.1845093 -0.6907349 -0.6431885 0.3303833 -0.1446533 -0.5857544 0.7974854 -0.1309814 0.7477417 0.651001 -0.5498657 0.2940063 0.7817993 -0.2089233 0.9625854 0.1724854 0 0.7680664 0.6403809 0 0.9996338 -0.02679443 0.2089233 0.9625854 0.1724854 0.6279907 0.6768188 -0.3840942 -0.8624268 0.4589233 -0.213501 0.8527222 0.5203857 -0.04522705 -0.8999023 0.4233398 -0.1047974 0 0.9522705 -0.3052368 -0.7741089 0.5602417 0.2947998 0 0.9066162 0.421936 0 0.7012939 0.7128906 0.7741089 0.5602417 0.2947998 0.847229 0.2967529 0.4406128 0.8999023 0.4233398 -0.1047974 0.4328613 0.8991089 -0.06451416 0.8944702 -0.1657715 0.4152832 -0.7154541 -0.6928711 -0.08947754 0 0.3540039 -0.9352417 -0.2584839 0.8418579 -0.4737549 -0.6107178 -0.6294556 -0.4804077 -0.3212891 0.07092285 -0.9443359 -0.3942261 0.1902466 0.8991089 -0.9133911 0.4023438 0.06188965 0.6107178 -0.6294556 -0.4804077 0.2584839 0.8418579 -0.4737549 0.3212891 0.07092285 -0.9443359 0.3942261 0.1902466 0.8991089 0.9133911 0.4023438 0.06188965 -0.1741333 0.741394 -0.6480713 0.447937 0.7687378 0.456543 0.423645 0.8746948 0.2353516 -0.02392578 -0.8442383 -0.5354614 -0.6359253 -0.6846313 -0.3562012 0.3200684 0.4749146 -0.8197632 0.1119995 -0.6949463 0.7102661 0.2128296 -0.6051025 -0.7672119 0.418335 -0.2612305 -0.8699341 0 -0.9970703 -0.07666016 0.9152832 -0.3967896 -0.06970215 0 -0.979187 -0.2029419 0 -0.999939 -0.01287842 -0.9152832 -0.3967896 -0.06970215 0.7833252 -0.588501 0.2002563 0.8848877 -0.4381714 0.1582031 0 0.5650024 0.8250732 -0.847229 0.2967529 0.4406128 0.992981 -0.09387207 0.07183838 0.8199463 0.5263062 -0.2250366 -0.6698608 -0.6179199 -0.4116821 -0.7976074 -0.5012207 0.3355713 -0.6420898 0.7663574 0.02093506 -0.765564 0.6095581 0.2057495 0.4055786 -0.7261963 -0.5551147 0.8436279 -0.5350952 -0.0447998 -0.423645 0.8746948 0.2353516 -0.447937 0.7687378 0.456543 0.02392578 -0.8442383 -0.5354614 0.6359253 -0.6846313 -0.3562012 -0.8199463 0.5263062 -0.2250366 0.6698608 -0.6178589 -0.4116821 0.7976074 -0.5012207 0.3355713 0.2769165 -0.7669678 0.5787964 0 0.9824829 -0.1862793 -0.7368774 -0.656189 -0.1625366 0 0.8752441 0.4837036 -0.8623047 -0.3897095 -0.3234253 0 -0.9995117 0.03070068 -0.7833252 -0.588501 0.2002563 -0.987915 -0.1022339 0.1165771 0.765564 0.6095581 0.2057495 0.6420898 0.7663574 0.02093506 -0.4055786 -0.7261963 -0.5551147 -0.8436279 -0.5350952 -0.0447998 -0.08374023 0.557251 0.8261108 0.7460327 -0.6398315 -0.1845093 0.7368774 -0.656189 -0.1625366 0.7410278 -0.1828003 -0.6461182 0 -0.1766357 -0.9842529 -0.2318115 -0.8408203 -0.4891968 0.6239624 -0.6915894 0.3637695 0 -0.328064 0.9446411 -0.6239624 -0.6915894 0.3637695 0.8623047 -0.3897095 -0.3234253 0.987915 -0.1022339 0.1165771 0 -0.8027954 -0.5962524 0.5498657 0.2940063 0.7817993 -0.8338013 0.2940674 0.4672852 0.8338013 0.2940674 0.4672852 -0.04040527 -0.9851074 0.1671753 0.4724731 0.84021 -0.2661133 0.3457642 -0.7059326 -0.6181641 0.1741333 0.741394 -0.6480713 0.701416 -0.6311035 -0.3312378 0.2318115 -0.8408203 -0.4891968 -0.3457642 -0.7059326 -0.6181641 -0.701416 -0.6311035 -0.3312378 -0.1791992 -0.9709473 0.1585693 0.1791992 -0.9709473 0.1585693 -0.1791992 0.9616699 -0.2076416 0.1791992 0.9616699 -0.2076416 0.2020874 0.9574585 -0.2060547 0 -0.2502441 -0.9682007 -0.7410278 -0.1828003 -0.6461182 -0.8848877 -0.4381714 0.1582031 0.1035156 -0.9944458 0.01751709 0.43396 -0.809021 0.3964233 0.6711426 -0.6751709 0.3061523 -0.43396 0.809021 -0.3964233 -0.6711426 0.6751709 -0.3061523 0.4458618 -0.87677 0.1802368 0.5001221 -0.8358154 0.2263794 0.4807129 -0.8446045 0.2355957 -0.1578369 -0.9831543 0.09216309 0.1578369 0.9831543 -0.09216309 0.1901855 0.9770508 -0.09558105 -0.1898193 -0.9812622 0.03369141 0.1898193 0.9812622 -0.03369141 0.3416138 0.8729248 -0.3482666 0.487793 0.8255615 -0.2836914 0.5197754 0.8085938 -0.2756348 0.5664063 0.7800293 -0.2659912 -0.446167 -0.8947754 0.01702881 -0.3416138 -0.8729248 0.3482666 -0.5664063 -0.7800293 0.2659912 0.5021362 0.833252 -0.2314453 0.1901855 -0.9770508 0.09558105 0.1578369 -0.9831543 0.09216309 -0.5197754 -0.8085938 0.2756348 -0.487793 -0.8255615 0.2836914 -0.5001221 -0.8358154 0.2263794 -0.8527222 0.5203857 -0.04522705 -0.1578369 0.9831543 -0.09216309 -0.4458618 -0.87677 0.1802368 0.6711426 0.6751709 -0.3061523 0.446167 0.8947754 -0.01702881 -0.6711426 -0.6751709 0.3061523 -0.1901855 0.9770508 -0.09558105 -0.1901855 -0.9770508 0.09558105 0.4458618 0.87677 -0.1802368 -0.4344482 0.883606 -0.1745605 0.4344482 -0.883606 0.1745605 -0.5664063 0.7800293 -0.2659912 -0.5197754 0.8085938 -0.2756348 -0.487793 0.8255615 -0.2836914 -0.4807129 0.8446045 -0.2355957 -0.5021362 0.833252 -0.2314453 -0.4458618 0.87677 -0.1802368 0.5664063 -0.7800293 0.2659912 0.5197754 -0.8085938 0.2756348 0.487793 -0.8255615 0.2836914 -0.0892334 -0.9841309 0.1534424 0.2339478 0.958374 -0.1636963 -0.2304688 -0.9666748 0.1116333 -0.1638184 -0.9835815 0.0758667 0.2304077 -0.9641113 0.1321411 -0.03851318 -0.9920654 0.119873 -0.2042236 -0.9779053 0.04522705 -0.2019653 -0.9749146 0.09368896 -0.5271606 -0.8466187 0.07305908 0.0892334 -0.9841309 0.1534424 -0.2339478 0.958374 -0.1636963 0.2304688 -0.9666748 0.1116333 0.1253662 -0.9880371 0.08959961 -0.2304077 -0.9641113 0.1321411 0.03851318 -0.9920654 0.119873 0.2042236 -0.9779053 0.04522705 -0.1738281 -0.9793701 0.1029663 0.5285034 -0.8457642 0.07312012 -0.09619141 0.9743042 -0.2036133 -0.1315308 0.980896 -0.1431885 0.2458496 0.9541626 -0.1705322 -0.04943848 0.9840088 -0.1713257 -0.2041626 0.9746094 -0.09161377 0.1738281 0.9793701 -0.1029663 -0.2175293 0.9716187 -0.09307861 0.09619141 0.9743042 -0.2036133 0.1702271 0.9768677 -0.1294556 0.04943848 0.9840088 -0.1713257 0.2019653 0.9749146 -0.09368896 0.1240234 -0.9910889 0.04870605 -0.003540039 -0.9950562 0.09942627 -0.2763062 0.960083 -0.04412842 -0.012146 0.9882813 -0.1519775 -0.5098267 0.8546143 -0.09838867 -0.09326172 -0.9943848 0.04949951 0.006652832 -0.9960327 0.08905029 0.2474976 0.9678345 -0.04504395 0.009094238 0.9898682 -0.1416016 0.1553345 -0.9873657 0.03149414 -0.1680908 0.9849854 -0.03955078 -0.1553345 0.9873657 -0.03149414 0.1680908 -0.9849854 0.03955078 -0.1553345 -0.9873657 0.03149414 0.1680908 0.9849854 -0.03955078 0.1553345 0.9873657 -0.03149414 -0.1680908 -0.9849854 0.03955078 -0.15625 0.9867554 0.04382324 -0.09344482 -0.9953003 0.02618408 0.05102539 0.9781494 -0.2015991 -0.02880859 -0.9926147 -0.1177368 -0.09881592 -0.9949951 0.01452637 0.02984619 -0.9926147 -0.1174927 0.1650391 0.9852295 0.04498291 -0.1665649 0.9857788 0.02172852 -0.04925537 0.9781494 -0.2020264 0.1742554 0.984314 0.0267334</float_array>
					<technique_common>
						<accessor source="#polygon0_NormArr" count="316" stride="3">
							<param name="X" type="float" />
							<param name="Y" type="float" />
							<param name="Z" type="float" />
						</accessor>
					</technique_common>
				</source>
				<source id="polygon0_Colors0">
					<float_array id="polygon0_ColorArr0" count="24">1 1 1 1 1 1 1 0 1 1 1 0.5019608 1 1 1 0.7490196 1 1 1 0.1882353 1 1 1 0.2509804</float_array>
					<technique_common>
						<accessor source="#polygon0_ColorArr0" count="6" stride="4">
							<param name="R" type="float" />
							<param name="G" type="float" />
							<param name="B" type="float" />
							<param name="A" type="float" />
						</accessor>
					</technique_common>
				</source>
				<source id="polygon0_UVs0">
					<float_array id="polygon0_UVArr0" count="446">0.9384155 0.6376953 0.9384766 0.6459961 0.9467163 0.6343384 0.9547729 0.6394653 0.9478149 0.6251221 0.9568481 0.62146 0.9406128 0.6192627 0.942749 0.6099854 0.932312 0.6226196 0.9265137 0.6165161 0.9312134 0.6318359 0.9243774 0.6345215 0.8585815 0.5968018 0.8651123 0.5800171 0.8688965 0.6326294 0.8803101 0.6469116 0.8657837 0.7353516 0.8734741 0.7392578 0.8781738 0.7468262 0.8682251 0.7501221 0.8536377 0.7700195 0.8609009 0.762146 0.8747559 0.7741089 0.899353 0.1196289 0.9676514 0.1407471 0.9123535 0.154541 0.9263916 0.1841431 0.8712158 0.1365967 0.9346924 0.04345703 0.8562012 0.09997559 0.8295288 0.7779541 0.8536377 0.7383423 0.8347168 0.7677612 0.8477173 0.7791748 0.8565063 0.7529297 0.8617554 0.7369995 0.8483887 0.7526245 0.8171997 0.7684326 0.8269653 0.7746582 0.8699341 0.2022095 0.875 0.2078247 0.8763428 0.1990967 0.8810425 0.1980591 0.8768921 0.1937256 0.8814087 0.1940308 0.8774414 0.1936646 0.8810425 0.1941528 0.8807983 0.2103882 0.8933105 0.2098999 0.8619385 0.6437378 0.5307007 0.59021 0.5494385 0.5435181 0.5341187 0.5531616 0.5372314 0.4870605 0.5494385 0.5545044 0.5494385 0.4866333 0.5494385 0.3999023 0.5646362 -0.1799316 0.5512085 -0.1468506 0.5490723 -0.2133789 0.5646973 -0.2058105 0.5494995 -0.2105713 0.5476685 -0.2646484 0.8652954 0.1949463 0.8762817 0.1990967 0.8768311 0.1937256 0.8809814 0.1980591 0.8950806 0.1948853 0.8918457 0.1956177 0.8967285 0.1962891 0.8970337 0.2114258 0.8961182 0.2080688 0.8919067 0.1956177 0.8967285 0.1929321 0.8981934 0.196228 0.9005127 0.1887817 0.9005127 0.2007446 0.8778687 0.5877686 0.8966064 0.1768188 0.9005127 0.1785278 0.8985596 0.1729736 0.9005127 0.1690674 0.9005127 0.1638794 0.8984375 0.1672974 0.9005127 0.2341919 0.8970947 0.2285767 0.8966675 0.2284546 0.8891602 0.2275391 0.8919067 0.2234497 0.895874 0.2211914 0.8966064 0.2284546 0.8970337 0.2285767 0.8186646 0.7824097 0.3422241 0.9295044 0.4037476 0.8734131 0.3765869 0.8823853 0.3953857 0.9021606 0.8664551 0.1967773 0.8690796 0.2008667 0.2731323 0.8846436 0.2369995 0.8198853 0.2978516 0.8483276 0.2941895 0.831543 0.3181152 0.8209229 0.9393311 0.4738159 0.935791 0.4210205 0.9279175 0.4662476 0.8969727 0.3903809 0.8969727 0.4510498 0.8660278 0.4662476 0.3433228 0.9286499 0.4212646 0.9610596 0.4020386 0.9451904 0.3963013 0.9660034 0.4471436 0.9110718 0.3421631 0.928833 0.4135742 0.9043579 0.4221802 0.9353638 0.8773804 0.1936646 0.9005127 0.2177734 0.8972778 0.2224121 0.9005127 0.2113647 0.3209839 0.8681641 0.329834 0.8809814 0.3656616 0.8694458 0.3557129 0.890686 0.3423462 0.9180298 0.3623657 0.9295044 0.3303223 0.9486084 0.8653564 0.1949463 0.8960571 0.2080688 0.897522 0.1803589 0.9005127 0.1856689 0.9005127 0.1842041 0.78479 0.9371338 0.8354492 0.9307861 0.8154907 0.9909058 0.8165283 0.942627 0.7623901 0.953125 0.7794189 0.9711914 0.7623901 0.9371338 0.7454224 0.9711914 0.9005127 0.2318726 0.9005127 0.1828613 0.8519897 0.9514771 0.8487549 0.9526978 0.8493042 0.9494019 0.8460083 0.9505615 0.8466187 0.9472046 0.8499146 0.9460449 0.8525391 0.9481812 0.8969727 0.4750977 0.8969727 0.4293823 0.9151611 0.4026489 0.8307495 0.9264526 0.7866211 0.9550171 0.8178711 0.9921265 0.8164673 0.9514771 0.8140259 0.9283447 0.7925415 0.9511719 0.8234863 0.987854 0.8154297 0.9215698 0.01898193 1.546997 0.01898193 0.203186 0.4970703 1.546997 0.4970703 0.015625 0.897522 0.1776733 0.9005127 0.182373 0.897583 0.1776733 0.897583 0.1803589 0.8546143 0.4738159 0.8582153 0.4210205 0.3218994 0.9098511 0.4805908 1.058228 0.1633911 0.4439087 0.486145 0.3154907 0.140686 0.02069092 0.00769043 0.4544678 0.00769043 0.8308716 0.4903564 0.4544678 0.4903564 0.8308716 0.00769043 0.01831055 0.4903564 0.01831055 0.4903564 1.0979 0.00769043 1.0979 0.00769043 0.5612793 0.4903564 1.004333 0.00769043 1.004333 0.00769043 0.5167847 0.00769043 0.1278076 0.00769043 0.5510864 0.4970703 0.4075317 0.01898193 0.4700928 0.4970703 0.01776123 0.01898193 0.1120605 0.4970703 0.4477539 0.01898193 0.4729614 0.4970703 -0.01959229 0.01898193 0.1637573 0.01898193 0.1724243 0.01898193 0.5160522 0.4970703 -0.008117676 0.4970703 0.3874512 0.4970703 0.8798218 0.01898193 1.427734 0.4903564 1.306213 0.00769043 1.306213 0.00769043 0.08508301 0.00769043 0.05169678 0.01885986 0.4708252 0.01898193 1.420715 0.4946899 0.8821411 0.5515137 -0.1483154 0.8787842 0.4026489 0.02001953 0.5153198 0.02142334 1.425415 0.5238037 0.484436 0.01940918 1.425781 0.01739502 0.4709473 0.4971924 0.4080811 0.01873779 1.427795 0.01818848 0.4708862 0.4874878 -0.00994873</float_array>
					<technique_common>
						<accessor source="#polygon0_UVArr0" count="223" stride="2">
							<param name="S" type="float" />
							<param name="T" type="float" />
						</accessor>
					</technique_common>
				</source>
				<vertices id="polygon0_Vertices">
					<input semantic="POSITION" source="#polygon0_Positions" />
				</vertices>
				<triangles material="m_body" count="566">
					<input semantic="VERTEX" source="#polygon0_Vertices" offset="0" />
					<input semantic="NORMAL" source="#polygon0_Normals" offset="1" />
					<input semantic="COLOR" source="#polygon0_Colors0" set="0" offset="2" />
					<input semantic="TEXCOORD" source="#polygon0_UVs0" set="0" offset="3" />
					<p>2 2 0 2 1 1 0 1 0 0 0 0 3 3 0 3 1 1 0 1 2 2 0 2 4 4 0 4 3 3 0 3 2 2 0 2 5 5 0 5 3 3 0 3 4 4 0 4 6 6 0 6 5 5 0 5 4 4 0 4 7 7 0 7 5 5 0 5 6 6 0 6 8 8 0 8 7 7 0 7 6 6 0 6 9 9 0 9 7 7 0 7 8 8 0 8 10 10 0 10 9 9 0 9 8 8 0 8 11 11 0 11 9 9 0 9 10 10 0 10 0 0 0 0 11 11 0 11 10 10 0 10 1 1 0 1 11 11 0 11 0 0 0 0 14 14 0 0 13 13 0 1 12 12 0 2 15 15 0 11 13 13 0 1 14 14 0 0 16 16 0 10 15 15 0 11 14 14 0 0 17 17 0 9 15 15 0 11 16 16 0 10 18 18 0 8 17 17 0 9 16 16 0 10 19 19 0 7 17 17 0 9 18 18 0 8 20 20 0 6 19 19 0 7 18 18 0 8 21 21 0 5 19 19 0 7 20 20 0 6 22 22 0 4 21 21 0 5 20 20 0 6 23 23 0 3 21 21 0 5 22 22 0 4 12 12 0 2 23 23 0 3 22 22 0 4 13 13 0 1 23 23 0 3 12 12 0 2 26 26 0 14 25 25 1 13 24 24 1 12 27 27 0 15 25 25 1 13 26 26 0 14 28 28 0 16 27 27 0 15 26 26 0 14 29 29 0 17 27 27 0 15 28 28 0 16 30 30 1 18 29 29 0 17 28 28 0 16 31 31 1 19 29 29 0 17 30 30 1 18 32 32 0 20 31 31 1 19 30 30 1 18 28 28 0 16 31 31 1 19 32 32 0 20 33 33 0 21 28 28 0 16 32 32 0 20 30 30 1 18 28 28 0 16 33 33 0 21 34 34 1 22 30 30 1 18 33 33 0 21 32 32 0 20 30 30 1 18 34 34 1 22 37 37 0 25 36 36 0 24 35 35 0 23 38 38 0 26 36 36 0 24 37 37 0 25 39 39 0 27 38 38 0 26 37 37 0 25 40 40 0 25 38 38 0 26 39 39 0 27 41 41 0 23 40 40 0 25 39 39 0 27 36 36 0 24 40 40 0 25 41 41 0 23 42 42 1 28 36 36 0 24 41 41 0 23 35 35 0 23 36 36 0 24 42 42 1 28 43 43 0 29 35 35 0 23 42 42 1 28 39 39 0 27 35 35 0 23 43 43 0 29 41 41 0 23 39 39 0 27 43 43 0 29 46 46 0 32 45 45 0 31 44 44 1 30 28 28 0 16 45 45 0 31 46 46 0 32 47 47 0 33 28 28 0 16 46 46 0 32 31 31 1 19 28 28 0 16 47 47 0 33 48 48 1 34 31 31 1 19 47 47 0 33 49 49 0 35 31 31 1 19 48 48 1 34 50 50 1 36 49 49 0 35 48 48 1 34 45 45 0 31 49 49 0 35 50 50 1 36 51 51 0 37 45 45 0 31 50 50 1 36 52 52 0 38 45 45 0 31 51 51 0 37 55 55 0 41 54 54 1 40 53 53 1 39 56 56 0 42 54 54 1 40 55 55 0 41 57 57 0 43 56 56 0 42 55 55 0 41 58 58 0 44 56 56 0 42 57 57 0 43 59 59 0 45 58 58 0 44 57 57 0 43 60 60 0 46 58 58 0 44 59 59 0 45 61 54 1 40 60 60 0 46 59 59 0 45 62 61 0 47 60 60 0 46 61 54 1 40 63 61 0 47 62 61 0 47 61 54 1 40 64 62 1 48 62 61 0 47 63 61 0 47 67 65 0 31 66 64 0 14 65 63 0 16 68 66 0 49 66 64 0 14 67 65 0 31 69 67 0 35 68 66 0 49 67 65 0 31 70 68 0 15 68 66 0 49 69 67 0 35 71 69 0 17 70 68 0 15 69 67 0 35 65 63 0 16 70 68 0 15 71 69 0 17 72 70 1 18 65 63 0 16 71 69 0 17 73 71 0 21 65 63 0 16 72 70 1 18 74 72 1 22 73 71 0 21 72 70 1 18 77 75 0 52 76 74 0 51 75 73 0 50 78 76 1 53 76 74 0 51 77 75 0 52 79 77 0 54 78 76 1 53 77 75 0 52 80 78 1 55 78 76 1 53 79 77 0 54 81 79 1 53 80 78 1 55 79 77 0 54 82 80 0 56 80 78 1 55 81 79 1 53 83 81 1 55 82 80 0 56 81 79 1 53 78 76 1 53 82 80 0 56 83 81 1 55 76 74 0 51 78 76 1 53 83 81 1 55 84 82 0 59 79 77 0 58 75 73 0 57 85 83 0 57 79 77 0 58 84 82 0 59 86 84 1 60 85 83 0 57 84 82 0 59 87 85 2 61 85 83 0 57 86 84 1 60 88 86 0 62 87 85 2 61 86 84 1 60 89 87 1 60 87 85 2 61 88 86 0 62 84 82 0 59 89 87 1 60 88 86 0 62 75 73 0 57 89 87 1 60 84 82 0 59 92 90 0 64 91 89 0 63 90 88 0 39 93 91 0 65 91 89 0 63 92 90 0 64 94 92 0 66 93 91 0 65 92 90 0 64 95 93 0 44 93 91 0 65 94 92 0 66 96 94 0 67 95 93 0 44 94 92 0 66 97 95 0 68 95 93 0 44 96 94 0 67 98 96 0 69 97 95 0 68 96 94 0 67 100 98 1 30 67 65 0 31 99 97 0 32 101 99 1 34 67 65 0 31 100 98 1 30 102 100 0 33 101 99 1 34 100 98 1 30 103 101 1 19 101 99 1 34 102 100 0 33 65 63 0 16 103 101 1 19 102 100 0 33 104 102 0 20 103 101 1 19 65 63 0 16 73 71 0 21 104 102 0 20 65 63 0 16 106 104 1 71 64 62 1 48 105 103 1 70 107 62 1 48 64 62 1 48 106 104 1 71 108 105 0 69 107 62 1 48 106 104 1 71 109 106 0 72 107 62 1 48 108 105 0 69 110 107 0 67 109 106 0 72 108 105 0 69 58 58 0 44 109 106 0 72 110 107 0 67 111 108 0 73 110 107 0 67 108 105 2 69 112 109 0 74 110 107 0 67 111 108 0 73 113 110 0 75 112 109 0 74 111 108 0 73 114 111 0 76 112 109 0 74 113 110 0 75 115 112 0 74 114 111 0 76 113 110 0 75 116 113 1 70 114 111 0 76 115 112 0 74 26 26 0 14 45 45 0 31 28 28 0 16 117 114 0 49 45 45 0 31 26 26 0 14 24 24 1 12 117 114 0 49 26 26 0 14 27 27 0 15 117 114 0 49 24 24 1 12 118 115 1 77 27 27 0 15 24 24 1 12 25 25 1 13 27 27 0 15 118 115 1 77 121 118 2 80 120 117 1 79 119 116 1 78 122 119 0 81 120 117 1 79 121 118 2 80 123 120 1 82 122 119 0 81 121 118 2 80 124 121 2 80 122 119 0 81 123 120 1 82 125 122 1 83 124 121 2 80 123 120 1 82 126 123 1 78 124 121 2 80 125 122 1 83 69 67 0 35 101 99 1 34 103 101 1 19 127 124 1 36 101 99 1 34 69 67 0 35 67 65 0 31 127 124 1 36 69 67 0 35 128 125 0 37 127 124 1 36 67 65 0 31 129 126 0 38 128 125 0 37 67 65 0 31 132 129 0 86 131 128 0 85 130 127 0 84 133 130 0 87 131 128 0 85 132 129 0 86 134 131 0 88 133 130 0 87 132 129 0 86 131 128 0 85 133 130 0 87 134 131 0 88 135 132 0 89 131 128 0 85 134 131 0 88 137 134 0 91 136 133 0 90 130 127 0 84 138 135 0 87 136 133 0 90 137 134 0 91 139 136 0 88 138 135 0 87 137 134 0 91 136 133 0 90 138 135 0 87 139 136 0 88 140 137 0 89 136 133 0 90 139 136 0 88 50 50 1 36 141 138 1 92 51 51 0 37 52 52 0 38 141 138 1 92 50 50 1 36 48 48 1 34 52 52 0 38 50 50 1 36 45 45 0 31 52 52 0 38 48 48 1 34 44 44 1 30 45 45 0 31 48 48 1 34 144 141 0 95 143 140 0 94 142 139 1 93 145 142 0 96 143 140 0 94 144 141 0 95 142 139 1 93 145 142 0 96 144 141 0 95 143 140 0 94 145 142 0 96 142 139 1 93 146 143 1 48 97 95 3 97 98 96 0 63 147 144 4 98 97 95 3 97 146 143 1 48 148 145 0 47 147 144 4 98 146 143 1 48 149 146 1 40 147 144 4 98 148 145 0 47 151 148 1 101 150 147 0 100 98 96 1 99 152 149 1 102 150 147 0 100 151 148 1 101 153 150 0 103 152 149 1 102 151 148 1 101 154 151 1 101 152 149 1 102 153 150 0 103 155 146 1 40 92 90 0 64 90 88 1 39 94 92 0 66 92 90 0 64 155 146 1 40 156 145 1 47 94 92 0 66 155 146 1 40 157 143 0 48 94 92 0 66 156 145 1 47 125 122 0 106 159 153 0 105 158 152 0 104 160 154 0 107 159 153 0 105 125 122 0 106 123 120 0 108 160 154 0 107 125 122 0 106 161 155 0 109 160 154 0 107 123 120 0 108 72 70 1 18 104 102 0 20 74 72 1 22 103 101 1 19 104 102 0 20 72 70 1 18 71 69 0 17 103 101 1 19 72 70 1 18 69 67 0 35 103 101 1 19 71 69 0 17 81 79 1 53 76 74 0 51 83 81 1 55 162 156 0 52 76 74 0 51 81 79 1 53 79 77 0 54 162 156 0 52 81 79 1 53 85 83 0 50 162 156 0 52 79 77 0 54 60 60 0 46 109 106 0 72 58 58 0 44 107 62 1 48 109 106 0 72 60 60 0 46 62 61 0 47 107 62 1 48 60 60 0 46 64 62 1 48 107 62 1 48 62 61 0 47 165 158 0 112 164 27 0 111 163 157 1 110 166 159 0 113 164 27 0 111 165 158 0 112 163 157 1 110 166 159 0 113 165 158 0 112 164 27 0 111 166 159 0 113 163 157 1 110 169 162 0 116 168 161 1 115 167 160 0 114 170 163 0 117 168 161 1 115 169 162 0 116 167 160 0 114 170 163 0 117 169 162 0 116 168 161 1 115 170 163 0 117 167 160 0 114 173 166 0 95 172 165 1 93 171 164 0 94 174 167 0 96 172 165 1 93 173 166 0 95 171 164 0 94 174 167 0 96 173 166 0 95 172 165 1 93 174 167 0 96 171 164 0 94 177 169 0 112 176 168 1 110 175 68 0 111 178 170 0 113 176 168 1 110 177 169 0 112 175 68 0 111 178 170 0 113 177 169 0 112 176 168 1 110 178 170 0 113 175 68 0 111 93 91 0 65 179 171 0 118 91 89 0 63 147 144 0 46 179 171 0 118 93 91 0 65 95 93 0 44 147 144 0 46 93 91 0 65 97 95 0 68 147 144 0 46 95 93 0 44 135 132 0 89 105 103 1 70 180 172 2 119 106 104 1 71 105 103 1 70 135 132 0 89 181 173 0 120 106 104 1 71 135 132 0 89 150 147 0 121 106 104 1 71 181 173 0 120 154 151 0 101 182 174 0 122 108 105 1 99 183 175 0 123 182 174 0 122 154 151 0 101 153 150 0 103 183 175 0 123 154 151 0 101 184 176 0 124 183 175 0 123 153 150 0 103 185 177 0 125 183 175 0 123 184 176 0 124 186 178 0 126 183 175 0 123 185 177 0 125 161 155 0 127 186 178 0 126 185 177 0 125 119 116 0 128 186 178 0 126 161 155 0 127 189 181 0 116 188 180 0 114 187 179 1 115 190 182 0 117 188 180 0 114 189 181 0 116 187 179 1 115 190 182 0 117 189 181 0 116 188 180 0 114 190 182 0 117 187 179 1 115 64 62 0 48 112 109 0 74 105 103 0 70 110 107 0 67 112 109 0 74 64 62 0 48 56 56 0 42 110 107 0 67 64 62 0 48 58 58 0 44 110 107 0 67 56 56 0 42 192 183 0 129 59 59 0 45 191 183 0 129 61 54 0 40 59 59 0 45 192 183 0 129 193 53 1 39 61 54 0 40 192 183 0 129 191 183 0 129 55 55 0 41 53 53 0 39 57 57 0 43 55 55 0 41 191 183 0 129 59 59 0 45 57 57 0 43 191 183 0 129 63 61 0 47 56 56 0 42 64 62 0 48 54 54 1 40 56 56 0 42 63 61 0 47 61 54 1 40 54 54 1 40 63 61 0 47 157 143 0 48 96 94 0 67 94 92 0 66 115 112 0 74 96 94 0 67 157 143 0 48 116 113 0 70 115 112 0 74 157 143 0 48 194 184 1 130 116 113 1 70 157 143 1 48 140 137 0 89 116 113 1 70 194 184 1 130 195 185 0 120 140 137 0 89 194 184 1 130 197 187 1 132 126 123 0 78 196 186 0 131 198 38 1 133 126 123 0 78 197 187 1 132 119 116 0 78 198 38 1 133 197 187 1 132 199 188 1 136 32 32 0 135 34 34 1 134 33 33 0 137 32 32 0 135 199 188 1 136 34 34 1 134 33 33 0 137 199 188 1 136 201 190 0 140 200 189 0 139 160 154 1 138 202 191 0 141 200 189 0 139 201 190 0 140 160 154 1 138 202 191 0 141 201 190 0 140 204 193 0 126 158 152 0 125 203 192 0 123 125 122 0 127 158 152 0 125 204 193 0 126 126 123 0 128 125 122 0 127 204 193 0 126 181 173 1 120 205 194 1 142 150 147 0 121 132 129 0 86 205 194 1 142 181 173 1 120 135 132 1 89 132 129 0 86 181 173 1 120 206 195 0 73 182 174 0 143 98 96 1 69 113 110 0 75 182 174 0 143 206 195 0 73 115 112 0 74 113 110 0 75 206 195 0 73 150 147 0 121 194 184 1 130 98 96 1 69 195 185 0 120 194 184 1 130 150 147 0 121 205 194 1 142 195 185 0 120 150 147 0 121 207 196 0 146 14 14 0 145 12 12 0 144 16 16 0 147 14 14 0 145 207 196 0 146 18 18 0 148 16 16 0 147 207 196 0 146 207 196 0 146 20 20 0 149 18 18 0 148 22 22 0 150 20 20 0 149 207 196 0 146 12 12 0 144 22 22 0 150 207 196 0 146 159 153 1 105 184 176 0 151 158 152 0 104 208 147 0 152 184 176 0 151 159 153 1 105 200 189 1 153 208 147 0 152 159 153 1 105 203 192 0 123 153 150 0 103 151 148 0 101 184 176 0 124 153 150 0 103 203 192 0 123 158 152 0 125 184 176 0 124 203 192 0 123 209 197 0 146 2 2 0 144 0 0 0 145 4 4 0 150 2 2 0 144 209 197 0 146 6 6 0 149 4 4 0 150 209 197 0 146 66 64 0 14 70 68 0 15 65 63 0 16 210 198 1 13 70 68 0 15 66 64 0 14 211 199 1 12 210 198 1 13 66 64 0 14 212 200 1 156 102 100 0 155 100 98 1 154 99 97 0 157 102 100 0 155 212 200 1 156 100 98 1 154 99 97 0 157 212 200 1 156 214 202 1 160 129 126 0 159 213 201 1 158 128 125 0 161 129 126 0 159 214 202 1 160 213 201 1 158 128 125 0 161 214 202 1 160 215 203 1 136 74 72 1 134 104 102 0 135 73 71 0 137 74 72 1 134 215 203 1 136 104 102 0 135 73 71 0 137 215 203 1 136 216 204 1 156 44 44 1 154 47 47 0 155 46 46 0 157 44 44 1 154 216 204 1 156 47 47 0 155 46 46 0 157 216 204 1 156 217 205 1 160 141 138 1 158 52 52 0 159 51 51 0 161 141 138 1 158 217 205 1 160 52 52 0 159 51 51 0 161 217 205 1 160 179 171 0 40 218 89 1 39 91 89 1 39 149 146 0 40 218 89 1 39 179 171 0 40 221 206 1 164 220 206 0 163 219 206 1 162 222 206 0 165 220 206 0 163 221 206 1 164 225 207 0 163 224 207 1 164 223 207 1 162 226 207 0 165 224 207 1 164 225 207 0 163 228 208 1 164 225 208 0 163 227 208 1 162 226 208 0 165 225 208 0 163 228 208 1 164 220 209 0 163 230 209 1 164 229 209 1 162 222 209 0 165 230 209 1 164 220 209 0 163 222 210 0 163 231 210 1 164 230 210 1 162 232 210 0 165 231 210 1 164 222 210 0 163 198 38 1 133 120 117 0 79 126 123 1 78 119 116 1 78 120 117 0 79 198 38 1 133 182 174 0 122 151 148 0 101 98 96 1 99 203 192 0 123 151 148 0 101 182 174 0 122 206 195 0 73 96 94 0 67 115 112 0 74 98 96 2 69 96 94 0 67 206 195 0 73 194 184 2 69 146 143 1 130 98 96 0 118 157 143 1 130 146 143 1 130 194 184 2 69 182 174 1 143 233 211 1 167 203 192 0 166 183 175 0 168 233 211 1 167 182 174 1 143 233 211 1 167 197 187 1 132 196 186 5 131 234 212 5 169 197 187 1 132 233 211 1 167 180 172 1 119 114 111 0 76 116 113 1 70 105 103 1 70 114 111 0 76 180 172 1 119 154 151 1 101 150 147 0 100 152 149 1 102 108 105 1 99 150 147 0 100 154 151 1 101 184 176 0 151 235 213 1 171 185 177 0 170 208 147 0 152 235 213 1 171 184 176 0 151 161 155 0 109 235 213 0 171 160 154 0 107 185 177 0 170 235 213 0 171 161 155 0 109 111 108 0 73 182 174 0 143 113 110 0 75 108 105 1 69 182 174 0 143 111 108 0 73 186 178 0 126 234 212 0 172 183 175 0 123 119 116 0 128 234 212 0 172 186 178 0 126 136 133 0 90 195 185 1 120 205 194 1 142 140 137 1 89 195 185 1 120 136 133 0 90 137 134 0 91 180 172 0 119 140 137 1 89 130 127 1 84 180 172 0 119 137 134 0 91 131 128 0 85 180 172 0 119 130 127 1 84 135 132 1 89 180 172 0 119 131 128 0 85 238 214 0 175 237 214 0 174 236 214 0 173 239 214 0 176 237 214 0 174 238 214 0 175 91 89 0 118 240 88 0 63 90 88 0 63 218 89 0 118 240 88 0 63 91 89 0 118 90 88 0 47 149 146 1 48 155 146 1 48 240 88 0 47 149 146 1 48 90 88 0 47 243 215 0 179 242 215 0 178 241 215 0 177 244 215 0 180 242 215 0 178 243 215 0 179 246 216 0 182 241 216 0 177 245 216 0 181 243 216 0 179 241 216 0 177 246 216 0 182 243 217 0 179 242 217 0 178 244 217 0 180 241 217 0 177 242 217 0 178 243 217 0 179 246 218 0 182 241 218 0 177 243 218 0 179 245 218 0 181 241 218 0 177 246 218 0 182 249 219 0 184 248 219 0 179 247 219 0 183 250 219 0 185 248 219 0 179 249 219 0 184 253 220 0 178 252 220 0 179 251 220 0 180 254 220 0 177 252 220 0 179 253 220 0 178 247 220 0 187 255 220 0 179 253 220 0 186 256 220 0 188 255 220 0 179 247 220 0 187 259 221 0 182 258 221 0 190 257 221 0 189 260 221 0 179 258 221 0 190 259 221 0 182 263 222 0 193 262 222 0 192 261 222 0 191 264 222 0 194 262 222 0 192 263 222 0 193 266 222 0 197 261 222 0 196 265 222 0 195 267 222 0 198 261 222 0 196 266 222 0 197 270 223 0 201 269 223 0 200 268 223 0 199 262 223 0 202 269 223 0 200 270 223 0 201 263 223 0 193 262 223 0 192 264 223 0 194 261 223 0 191 262 223 0 192 263 223 0 193 266 223 0 197 261 223 0 196 267 223 0 198 265 223 0 195 261 223 0 196 266 223 0 197 272 224 1 204 265 224 0 195 271 224 0 203 261 224 0 196 265 224 0 195 272 224 1 204 275 225 0 179 274 225 0 206 273 225 0 205 276 225 0 190 274 225 0 206 275 225 0 179 273 226 0 205 276 226 0 190 275 226 0 179 274 226 0 206 276 226 0 190 273 226 0 205 54 54 1 40 193 53 0 47 53 53 0 47 61 54 1 40 193 53 0 47 54 54 1 40 276 227 0 190 277 227 0 182 275 227 0 179 278 227 0 189 277 227 0 182 276 227 0 190 281 228 0 185 280 228 0 182 279 228 0 179 282 228 0 207 280 228 0 182 281 228 0 185 285 229 0 188 284 229 0 182 283 229 0 179 286 229 0 208 284 229 0 182 285 229 0 188 289 230 0 177 288 230 0 182 287 230 0 179 290 230 0 181 288 230 0 182 289 230 0 177 293 231 0 178 292 231 0 179 291 231 0 177 294 231 0 180 292 231 0 179 293 231 0 178 276 232 0 190 277 232 0 182 278 232 0 189 275 232 0 179 277 232 0 182 276 232 0 190 289 233 0 177 288 233 0 182 290 233 0 181 287 233 0 179 288 233 0 182 289 233 0 177 124 121 2 80 120 117 1 79 122 119 0 81 126 123 1 78 120 117 1 79 124 121 2 80 121 118 2 80 161 155 1 83 123 120 1 82 119 116 1 78 161 155 1 83 121 118 2 80 285 234 0 188 296 234 0 186 295 234 0 187 283 234 0 179 296 234 0 186 285 234 0 188 289 234 0 177 297 234 0 180 296 234 0 178 287 234 0 179 297 234 0 180 289 234 0 177 196 186 0 172 204 193 0 126 203 192 0 123 126 123 0 128 204 193 0 126 196 186 0 172 300 235 0 195 299 235 1 210 298 235 0 209 301 235 0 211 299 235 1 210 300 235 0 195 304 236 0 199 303 236 0 202 302 236 0 200 305 236 0 201 303 236 0 202 304 236 0 199 303 236 0 192 306 236 0 193 298 236 0 191 307 236 0 194 306 236 0 193 303 236 0 192 10 10 0 147 209 197 0 146 0 0 0 145 8 8 0 148 209 197 0 146 10 10 0 147 285 237 0 188 284 237 0 182 286 237 0 208 283 237 0 179 284 237 0 182 285 237 0 188 99 97 0 32 65 63 0 16 102 100 0 33 67 65 0 31 65 63 0 16 99 97 0 32 281 238 0 185 280 238 0 182 282 238 0 207 279 238 0 179 280 238 0 182 281 238 0 185 283 239 0 179 295 239 0 187 296 239 0 186 285 239 0 188 295 239 0 187 283 239 0 179 298 236 0 196 308 236 0 197 300 236 0 195 309 236 0 198 308 236 0 197 298 236 0 196 68 66 0 49 211 199 1 12 66 64 0 14 70 68 0 15 211 199 1 12 68 66 0 49 70 68 0 15 310 240 1 77 211 199 1 12 210 198 1 13 310 240 1 77 70 68 0 15 287 239 0 179 296 239 0 178 297 239 0 180 289 239 0 177 296 239 0 178 287 239 0 179 101 99 1 34 129 126 0 38 67 65 0 31 127 124 1 36 129 126 0 38 101 99 1 34 213 201 1 92 127 124 1 36 128 125 0 37 129 126 0 38 127 124 1 36 213 201 1 92 302 241 0 200 305 241 0 201 304 241 0 199 303 241 0 202 305 241 0 201 302 241 0 200 303 241 0 192 306 241 0 193 307 241 0 194 298 241 0 191 306 241 0 193 303 241 0 192 298 241 0 196 308 241 0 197 309 241 0 198 300 241 0 195 308 241 0 197 298 241 0 196 279 242 0 179 273 242 0 184 295 242 0 183 281 242 0 185 273 242 0 184 279 242 0 179 291 243 0 177 311 243 0 182 292 243 0 179 312 243 0 181 311 243 0 182 291 243 0 177 293 244 0 178 292 244 0 179 294 244 0 180 291 244 0 177 292 244 0 179 293 244 0 178 117 114 0 49 49 49 0 35 45 45 0 31 27 27 0 15 49 49 0 35 117 114 0 49 291 245 0 177 311 245 0 182 312 245 0 181 292 245 0 179 311 245 0 182 291 245 0 177 29 29 0 17 49 49 0 35 27 27 0 15 31 31 1 19 49 49 0 35 29 29 0 17 300 246 0 195 299 246 1 204 301 246 0 203 298 246 0 196 299 246 1 204 300 246 0 195 272 247 1 210 265 247 0 195 261 247 0 209 271 247 0 211 265 247 0 195 272 247 1 210 295 248 0 183 281 248 0 185 279 248 0 179 273 248 0 184 281 248 0 185 295 248 0 183 258 249 0 190 249 249 0 205 260 249 0 179 313 249 0 206 249 249 0 205 258 249 0 190 75 73 0 57 87 85 2 61 89 87 1 60 76 74 0 212 87 85 2 61 75 73 0 57 313 250 0 206 260 250 0 179 249 250 0 205 258 250 0 190 260 250 0 179 313 250 0 206 155 146 1 39 148 145 0 40 156 145 0 40 149 146 1 39 148 145 0 40 155 146 1 39 205 194 0 142 130 127 0 84 136 133 0 90 132 129 0 86 130 127 0 84 205 194 0 142 156 145 1 48 146 143 1 130 157 143 1 130 148 145 1 48 146 143 1 130 156 145 1 48 314 251 0 182 254 251 0 177 252 251 0 179 315 251 0 181 254 251 0 177 314 251 0 182 262 222 0 202 268 222 0 199 269 222 0 200 270 222 0 201 268 222 0 199 262 222 0 202 53 53 1 39 192 183 0 129 191 183 0 129 193 53 1 39 192 183 0 129 53 53 1 39 316 252 0 182 256 252 0 188 255 252 0 179 317 252 0 208 256 252 0 188 316 252 0 182 318 253 0 182 250 253 0 185 248 253 0 179 319 253 0 207 250 253 0 185 318 253 0 182 259 254 0 182 258 254 0 190 260 254 0 179 257 254 0 189 258 254 0 190 259 254 0 182 251 255 0 180 254 255 0 177 253 255 0 178 252 255 0 179 254 255 0 177 251 255 0 180 253 255 0 186 256 255 0 188 247 255 0 187 255 255 0 179 256 255 0 188 253 255 0 186 250 256 0 185 247 256 0 183 248 256 0 179 249 256 0 184 247 256 0 183 250 256 0 185 314 257 0 182 254 257 0 177 315 257 0 181 252 257 0 179 254 257 0 177 314 257 0 182 316 258 0 182 256 258 0 188 317 258 0 208 255 258 0 179 256 258 0 188 316 258 0 182 318 259 0 182 250 259 0 185 319 259 0 207 248 259 0 179 250 259 0 185 318 259 0 182 320 260 0 163 219 260 1 164 220 260 0 165 229 261 1 164 321 261 1 162 320 261 0 163 322 262 1 162 219 262 1 164 320 262 0 163 324 263 1 162 322 263 1 164 323 263 0 163 221 264 1 162 325 264 1 164 222 264 0 163 322 265 1 164 320 265 0 165 323 265 0 163 325 266 1 164 232 266 0 165 222 266 0 163 327 267 1 164 326 267 0 165 232 267 0 163 232 268 0 163 325 268 1 162 327 268 1 164 328 269 0 163 225 269 0 165 223 269 1 164 227 270 1 164 328 270 0 163 329 270 1 162 330 271 1 162 328 271 0 163 223 271 1 164 332 272 1 162 331 272 0 163 330 272 1 164 224 273 1 162 226 273 0 163 333 273 1 164 330 274 1 164 331 274 0 163 328 274 0 165 333 275 1 164 226 275 0 163 334 275 0 165 336 276 1 164 334 276 0 163 335 276 0 165 334 277 0 163 336 277 1 164 333 277 1 162 227 278 1 164 225 278 0 165 328 278 0 163 329 279 1 164 331 279 0 163 337 279 1 162 338 280 1 164 226 280 0 163 228 280 1 162 328 281 0 165 331 281 0 163 329 281 1 164 334 282 0 165 226 282 0 163 338 282 1 164 335 283 0 165 334 283 0 163 336 283 1 164 338 284 1 162 336 284 1 164 334 284 0 163 229 285 1 164 320 285 0 163 220 285 0 165 321 286 1 164 339 286 1 162 323 286 0 163 320 287 0 165 321 287 1 164 323 287 0 163 326 288 0 165 327 288 1 164 232 288 0 163 341 289 1 162 340 289 0 163 332 289 1 164 332 290 1 164 340 290 0 163 331 290 0 165 341 291 1 162 337 291 1 164 340 291 0 163 331 292 0 165 340 292 0 163 337 292 1 164 200 189 0 153 159 153 0 105 160 154 1 107 233 211 1 167 196 186 0 131 203 192 1 166 231 293 1 162 232 293 0 163 327 293 1 164 140 137 0 89 180 172 2 119 116 113 1 70 202 191 0 213 208 147 0 152 200 189 0 153 202 191 0 213 160 154 1 107 235 213 0 171 202 191 1 213 235 213 1 171 208 147 0 152 233 211 1 167 183 175 1 168 234 212 0 169 112 109 0 74 114 111 0 76 105 103 1 70 106 104 1 71 150 147 0 121 108 105 1 69 343 294 1 162 324 294 1 164 342 294 0 163 324 295 1 164 323 295 0 165 342 295 0 163 343 296 1 162 342 296 0 163 339 296 1 164 323 297 0 165 339 297 1 164 342 297 0 163 303 298 0 216 299 298 1 215 302 298 0 214 298 299 0 219 303 299 0 218 299 299 1 217 303 300 0 216 302 300 0 214 299 300 1 215 303 301 0 221 298 301 0 191 299 301 1 220 262 302 0 216 269 302 0 214 272 302 1 215 261 303 0 219 272 303 1 217 262 303 0 218 262 304 0 216 272 304 1 215 269 304 0 214 262 305 0 221 272 305 1 220 261 305 0 191 236 306 0 173 345 306 0 175 344 306 0 174 238 307 0 175 236 307 0 173 344 307 0 174 239 308 0 176 346 308 0 222 345 308 0 175 346 309 0 222 238 309 0 175 347 309 0 176 347 310 0 176 238 310 0 175 344 310 0 174 239 311 0 176 238 311 0 175 346 311 0 222 237 312 0 174 345 312 0 175 236 312 0 173 347 313 0 176 344 313 0 174 345 313 0 175 346 314 0 222 347 314 0 176 345 314 0 175 237 315 0 174 239 315 0 176 345 315 0 175 149 146 0 40 240 88 1 39 218 89 1 39 179 171 1 39 147 144 4 98 149 146 1 40 197 187 1 132 234 212 0 169 119 116 0 78 8 8 0 148 6 6 0 149 209 197 0 146 47 47 0 33 44 44 1 30 48 48 1 34 85 83 0 57 87 85 2 61 76 74 0 212 86 84 1 60 84 82 0 59 88 86 0 62 78 76 1 53 80 78 1 55 82 80 0 56 77 75 0 52 75 73 0 50 79 77 0 54 85 83 0 50 76 74 0 51 162 156 0 52 140 137 0 89 139 136 0 88 137 134 0 91 134 131 0 88 132 129 0 86 135 132 0 89 38 38 0 26 40 40 0 25 36 36 0 24 41 41 0 23 43 43 0 29 42 42 1 28 39 39 0 27 37 37 0 25 35 35 0 23</p>
				</triangles>
			</mesh>
		</geometry>
	</library_geometries>
	<library_controllers>
		<controller id="polygon0_Controller">
			<skin source="#polygon0">
				<bind_shape_matrix>1 0 0 0 0 1 0 0 0 0 1 0 0 0 0 1</bind_shape_matrix>
				<source id="polygon0_Joints">
					<Name_array id="polygon0_JointArr" count="8">SklRoot Legs Spine Tail WingL1 WingL2 WingR1 WingR2</Name_array>
					<technique_common>
						<accessor source="#polygon0_JointArr" count="8">
							<param name="JOINT" type="Name" />
						</accessor>
					</technique_common>
				</source>
				<source id="polygon0_Matrices">
					<float_array id="polygon0_MatArr" count="128">1 0 0 0 0 1 0 0.694912 0 0 1 35.16347 0 0 0 1 1 0 0 0 0 1 0 20.15248 0 0 1 32.8573 0 0 0 1 1 0 0 0 0 1 0 0.694912 0 0 1 35.16347 0 0 0 1 1 0 0 0 0 1 0 17.96199 0 0 1 60.89553 0 0 0 1 1 0 0 -18.17991 0 1 0 -1.142278 0 0 1 0 0 0 0 1 1 0 0 -144.8299 0 1 0 -17.03763 0 0 1 0 0 0 0 1 1 0 0 18.17991 0 1 0 -1.142278 0 0 1 0 0 0 0 1 1 0 0 144.8299 0 1 0 -17.03762 0 0 1 0 0 0 0 1</float_array>
					<technique_common>
						<accessor source="#polygon0_MatArr" count="8" stride="16">
							<param type="float4x4" />
						</accessor>
					</technique_common>
				</source>
				<source id="polygon0_Weights">
					<float_array id="polygon0_WeightArr" count="2">1 0.5</float_array>
					<technique_common>
						<accessor source="#polygon0_WeightArr" count="2">
							<param type="float" />
						</accessor>
					</technique_common>
				</source>
				<joints>
					<input semantic="JOINT" source="#polygon0_Joints" />
					<input semantic="INV_BIND_MATRIX" source="#polygon0_Matrices" />
				</joints>
				<vertex_weights count="348">
					<input semantic="JOINT" offset="0" source="#polygon0_Joints" />
					<input semantic="WEIGHT" offset="1" source="#polygon0_Weights" />
					<vcount>1 1 1 1 1 1 1 1 1 1 1 1 1 1 1 1 1 1 1 1 1 1 1 1 1 1 1 1 1 1 1 1 1 1 1 1 1 1 1 1 1 1 1 1 1 1 1 1 1 1 1 1 1 1 1 1 1 1 1 1 1 1 1 1 1 1 1 1 1 1 1 1 1 1 1 1 1 1 1 1 1 1 1 1 1 1 1 1 1 1 1 1 1 1 1 1 1 1 2 1 1 1 1 1 1 1 1 1 2 1 1 1 1 1 1 1 1 1 1 1 1 1 1 1 1 1 1 1 1 1 1 1 1 1 1 1 1 1 1 1 1 1 1 1 1 1 1 1 1 1 1 1 1 1 1 1 1 1 1 1 1 1 1 1 1 1 1 1 1 1 1 1 1 1 1 1 1 1 1 1 1 1 1 1 1 1 1 1 1 1 1 1 1 1 1 1 1 1 1 1 1 1 1 1 1 1 1 1 1 1 1 1 1 1 1 1 1 1 1 1 1 1 1 1 1 1 1 1 1 1 1 1 1 1 1 1 1 1 1 1 1 1 1 1 1 1 1 1 1 1 1 1 1 1 1 1 1 1 1 1 1 1 1 1 1 1 1 1 1 1 1 1 1 1 1 1 1 1 1 1 1 1 1 1 1 1 1 1 1 1 1 1 1 1 1 1 1 1 1 1 1 1 1 1 1 1 1 1 1 1 1 1 1 1 1 1 1 1 1 1 1 1 1 1 1 1 1 1 1 1 1 1 1 1 1 1 1 1 1 1 1 1 1 1 1 1 1 1</vcount>
					<v>2 0 2 0 2 0 2 0 2 0 2 0 2 0 2 0 2 0 2 0 2 0 2 0 2 0 2 0 2 0 2 0 2 0 2 0 2 0 2 0 2 0 2 0 2 0 2 0 1 0 1 0 1 0 1 0 1 0 1 0 1 0 1 0 1 0 1 0 1 0 2 0 2 0 2 0 2 0 2 0 2 0 2 0 2 0 2 0 1 0 1 0 1 0 1 0 1 0 1 0 1 0 1 0 1 0 7 0 7 0 7 0 6 0 7 0 6 0 7 0 6 0 7 0 6 0 6 0 6 0 1 0 1 0 1 0 1 0 1 0 1 0 1 0 1 0 1 0 1 0 3 0 3 0 3 0 3 0 3 0 3 0 3 0 1 0 3 0 3 0 3 0 3 0 3 0 3 0 3 0 5 0 5 0 5 0 5 0 4 0 4 0 4 0 4 0 2 1 4 1 1 0 1 0 1 0 1 0 1 0 1 0 2 0 2 0 6 0 2 1 6 1 6 0 6 0 2 0 2 0 2 0 2 0 2 0 2 0 1 0 1 0 2 0 2 0 2 0 2 0 2 0 2 0 2 0 2 0 1 0 1 0 1 0 3 0 3 0 3 0 3 0 3 0 2 0 3 0 3 0 3 0 3 0 2 0 1 0 2 0 2 0 2 0 2 0 4 0 4 0 4 0 5 0 2 0 2 0 2 0 2 0 2 0 5 0 4 0 4 0 2 0 2 0 2 0 2 0 3 0 2 0 2 0 2 0 2 0 2 0 2 0 2 0 2 0 2 0 2 0 2 0 2 0 2 0 2 0 2 0 2 0 5 0 2 0 1 0 2 0 2 0 2 0 2 0 2 0 2 0 2 0 2 0 2 0 7 0 7 0 7 0 2 0 1 0 2 0 2 0 2 0 1 0 2 0 2 0 2 0 2 0 2 0 3 0 2 0 2 0 2 0 2 0 1 0 1 0 1 0 1 0 1 0 1 0 1 0 1 0 5 0 6 0 6 0 6 0 6 0 4 0 4 0 4 0 4 0 4 0 4 0 6 0 6 0 6 0 6 0 2 0 2 0 2 0 3 0 3 0 3 0 3 0 5 0 5 0 5 0 5 0 5 0 5 0 5 0 5 0 5 0 5 0 5 0 5 0 5 0 5 0 5 0 5 0 5 0 5 0 5 0 5 0 5 0 3 0 3 0 3 0 3 0 3 0 3 0 3 0 3 0 3 0 3 0 3 0 2 0 7 0 6 0 7 0 7 0 7 0 7 0 7 0 7 0 7 0 7 0 7 0 7 0 7 0 7 0 7 0 7 0 7 0 7 0 7 0 7 0 7 0 7 0 7 0 7 0 7 0 3 0 2 0 3 0 3 0 3 0 3 0 3 0 3 0 3 0 3 0 3 0 3 0 1 0 7 0 7 0 4 0 5 0 5 0 5 0 5 0 5 0 5 0 6 0 6 0 6 0 6 0 6 0 6 0 6 0 6 0 4 0 4 0 4 0 4 0 4 0 4 0 4 0 4 0 4 0 4 0 4 0 6 0 2 0 4 0 2 0 6 0 3 0 3 0 3 0 3 0</v>
				</vertex_weights>
			</skin>
		</controller>
	</library_controllers>
	<library_visual_scenes>
		<visual_scene id="RootNode" name="RootNode">
			<node id="SklRoot" name="SklRoot" sid="SklRoot" type="JOINT">
				<translate>0 -0.694912 -35.16347</translate>
				<node id="Legs" name="Legs" sid="Legs" type="JOINT">
					<translate>0 -19.45757 2.306171</translate>
				</node>
				<node id="Spine" name="Spine" sid="Spine" type="JOINT">
					<translate>0 0 -1E-06</translate>
				</node>
				<node id="Tail" name="Tail" sid="Tail" type="JOINT">
					<translate>0 -17.26708 -25.73206</translate>
				</node>
				<node id="WingL1" name="WingL1" sid="WingL1" type="JOINT">
					<translate>18.17991 1.83719 35.16347</translate>
					<node id="WingL2" name="WingL2" sid="WingL2" type="JOINT">
						<translate>126.65 15.89535 0</translate>
					</node>
				</node>
				<node id="WingR1" name="WingR1" sid="WingR1" type="JOINT">
					<translate>-18.17991 1.83719 35.16347</translate>
					<node id="WingR2" name="WingR2" sid="WingR2" type="JOINT">
						<translate>-126.65 15.89535 0</translate>
					</node>
				</node>
			</node>
			<node id="polygon0" name="polygon0" type="NODE">
				<instance_controller url="#polygon0_Controller">
					<skeleton>#SklRoot</skeleton>
					<bind_material>
						<technique_common>
							<instance_material symbol="m_body" target="#m_body">
								<bind_vertex_input semantic="TEXCOORD0" input_semantic="TEXCOORD" input_set="0" />
								<bind_vertex_input semantic="TEXCOORD0" input_semantic="TEXCOORD" input_set="0" />
								<bind_vertex_input semantic="TEXCOORD0" input_semantic="TEXCOORD" input_set="0" />
							</instance_material>
						</technique_common>
					</bind_material>
				</instance_controller>
			</node>
		</visual_scene>
	</library_visual_scenes>
	<scene>
		<instance_visual_scene url="#RootNode" />
	</scene>
</COLLADA>